<svg xmlns="http://www.w3.org/2000/svg" version="1.1" xmlns:xlink="http://www.w3.org/1999/xlink" xmlns:svgjs="http://svgjs.com/svgjs" width="512" height="512" x="0" y="0" viewBox="0 0 24 24" style="enable-background:new 0 0 512 512" xml:space="preserve" class=""><g><path fill="#5e72e4" d="M16 18.75c-.41 0-.75-.34-.75-.75s.34-.75.75-.75c2.89 0 5.25-2.36 5.25-5.25S18.89 6.75 16 6.75 10.75 9.11 10.75 12c0 .41-.34.75-.75.75s-.75-.34-.75-.75c0-3.72 3.03-6.75 6.75-6.75s6.75 3.03 6.75 6.75-3.03 6.75-6.75 6.75z" data-original="#aaaaaa"></path><path fill="#5e72e4" d="M7.75 18.5c-3.58 0-6.5-2.92-6.5-6.5s2.92-6.5 6.5-6.5c.41 0 .75.34.75.75S8.16 7 7.75 7c-2.76 0-5 2.24-5 5s2.24 5 5 5 5-2.24 5-5c0-.41.34-.75.75-.75s.75.34.75.75c0 3.58-2.92 6.5-6.5 6.5z" data-original="#000000" class=""></path></g></svg>