<svg xmlns="http://www.w3.org/2000/svg" version="1.1" xmlns:xlink="http://www.w3.org/1999/xlink" xmlns:svgjs="http://svgjs.com/svgjs" width="512" height="512" x="0" y="0" viewBox="0 0 469.333 469.333" style="enable-background:new 0 0 512 512" xml:space="preserve" class=""><g><path d="M170.667 0h-128C19.135 0 0 19.135 0 42.667v128c0 23.531 19.135 42.667 42.667 42.667h128c23.531 0 42.667-19.135 42.667-42.667v-128C213.333 19.135 194.198 0 170.667 0zM192 170.667c0 11.76-9.573 21.333-21.333 21.333h-128c-11.76 0-21.333-9.573-21.333-21.333v-128c0-11.76 9.573-21.333 21.333-21.333h128c11.76 0 21.333 9.573 21.333 21.333v128zM426.667 0h-128C275.135 0 256 19.135 256 42.667v128c0 23.531 19.135 42.667 42.667 42.667h128c23.531 0 42.667-19.135 42.667-42.667v-128C469.333 19.135 450.198 0 426.667 0zM448 170.667c0 11.76-9.573 21.333-21.333 21.333h-128c-11.76 0-21.333-9.573-21.333-21.333v-128c0-11.76 9.573-21.333 21.333-21.333h128c11.76 0 21.333 9.573 21.333 21.333v128zM170.667 256h-128C19.135 256 0 275.135 0 298.667v128c0 23.531 19.135 42.667 42.667 42.667h128c23.531 0 42.667-19.135 42.667-42.667v-128C213.333 275.135 194.198 256 170.667 256zM192 426.667c0 11.76-9.573 21.333-21.333 21.333h-128c-11.76 0-21.333-9.573-21.333-21.333v-128c0-11.76 9.573-21.333 21.333-21.333h128c11.76 0 21.333 9.573 21.333 21.333v128zM416 352h-42.667v-42.667a10.66 10.66 0 0 0-10.667-10.667 10.66 10.66 0 0 0-10.667 10.667V352h-42.667a10.66 10.66 0 0 0-10.667 10.667 10.66 10.66 0 0 0 10.667 10.667H352V416a10.66 10.66 0 0 0 10.667 10.667A10.66 10.66 0 0 0 373.334 416v-42.667H416a10.66 10.66 0 0 0 10.667-10.667A10.66 10.66 0 0 0 416 352z" fill="#5e72e4" data-original="#000000"></path></g></svg>