<?xml version="1.0"?>
<svg xmlns="http://www.w3.org/2000/svg" id="Layer_3" data-name="Layer 3" width="512" height="512" viewBox="0 0 32 32"><path d="M27.348,7H23.054l-.5-1.5A3.645,3.645,0,0,0,19.089,3H12.911A3.646,3.646,0,0,0,9.447,5.5L8.946,7H4.652A3.656,3.656,0,0,0,1,10.652v14.7A3.656,3.656,0,0,0,4.652,29h22.7A3.656,3.656,0,0,0,31,25.348v-14.7A3.656,3.656,0,0,0,27.348,7ZM29,25.348A1.654,1.654,0,0,1,27.348,27H4.652A1.654,1.654,0,0,1,3,25.348v-14.7A1.654,1.654,0,0,1,4.652,9H9.667a1,1,0,0,0,.948-.684l.729-2.187A1.65,1.65,0,0,1,12.911,5h6.178a1.649,1.649,0,0,1,1.567,1.13l.729,2.186A1,1,0,0,0,22.333,9h5.015A1.654,1.654,0,0,1,29,10.652Z"/><path d="M16,10a7.5,7.5,0,1,0,7.5,7.5A7.508,7.508,0,0,0,16,10Zm0,13a5.5,5.5,0,1,1,5.5-5.5A5.506,5.506,0,0,1,16,23Z"/><circle cx="26" cy="12" r="1"/></svg>
