<svg version="1.1" id="Layer_1" xmlns:x="ns_extend;" xmlns:i="ns_ai;" xmlns:graph="ns_graphs;" xmlns="http://www.w3.org/2000/svg" xmlns:xlink="http://www.w3.org/1999/xlink" x="0px" y="0px" viewBox="0 0 65.2 65.1" style="enable-background:new 0 0 65.2 65.1;" xml:space="preserve">
 <style type="text/css">
  .st0 { fill:#04AB61; }
	.st1 { fill-rule:evenodd;clip-rule:evenodd;fill:#FBB016; }
	.st2 { fill:#FBB016; }
 </style>
 <metadata>
  <sfw xmlns="ns_sfw;">
   <slices>
   </slices>
   <sliceSourceBounds bottomLeftOrigin="true" height="65.1" width="65.2" x="7.5" y="121.8">
   </sliceSourceBounds>
  </sfw>
 </metadata>
 <g>
  <path class="st0" d="M25.3,0.1c-5.9,0-10.8,4.8-10.8,10.7l0,0h39.9C60.3,10.8,65.2,6,65.2,0l0,0L25.3,0.1L25.3,0.1z">
  </path>
  <path class="st0" d="M14.5,10.8C14.5,4.9,19.3,0,25.3,0l0,0v39.9c0,5.9-4.8,10.8-10.8,10.8l0,0V10.8z">
  </path>
  <path class="st1" d="M28.7,14.4v10.8h12.5c5.9,0,10.8-4.8,10.8-10.8l0,0H28.7z">
  </path>
  <path class="st2" d="M0,25.2c0-5.9,4.8-10.8,10.8-10.8l0,0v39.9C10.8,60.2,6,65.1,0,65.1l0,0C0,65.1,0,25.2,0,25.2z">
  </path>
 </g>
</svg>