<svg xmlns="http://www.w3.org/2000/svg" version="1.1" xmlns:xlink="http://www.w3.org/1999/xlink" xmlns:svgjs="http://svgjs.com/svgjs" width="512" height="512" x="0" y="0" viewBox="0 0 50 50" style="enable-background:new 0 0 512 512" xml:space="preserve" class=""><g><g fill-rule="evenodd" clip-rule="evenodd"><path fill="#5e72e4" d="M24.88 2.604h.24c4.809 0 8.578 0 11.518.395 3.01.405 5.385 1.25 7.25 3.114s2.708 4.239 3.113 7.249c.395 2.94.395 6.71.395 11.518v.24c0 4.808 0 8.577-.395 11.518-.405 3.01-1.25 5.385-3.114 7.25-1.864 1.863-4.239 2.708-7.249 3.112-2.94.396-6.71.396-11.518.396h-.24c-4.809 0-8.577 0-11.518-.396-3.01-.404-5.385-1.249-7.25-3.113C4.25 42.023 3.405 39.647 3 36.638c-.396-2.94-.396-6.71-.396-11.519v-.239c0-4.809 0-8.578.396-11.518.404-3.01 1.249-5.385 3.113-7.25C7.977 4.249 10.353 3.405 13.362 3c2.94-.395 6.71-.395 11.518-.395zM13.779 6.096c-2.663.359-4.269 1.04-5.455 2.226-1.187 1.187-1.868 2.793-2.226 5.456-.364 2.708-.368 6.267-.368 11.222 0 4.955.004 8.513.368 11.222.358 2.663 1.039 4.269 2.226 5.455 1.186 1.187 2.792 1.868 5.455 2.226 2.709.364 6.267.368 11.222.368 4.955 0 8.514-.004 11.222-.368 2.663-.358 4.269-1.039 5.456-2.226 1.186-1.186 1.867-2.792 2.226-5.455.364-2.709.367-6.267.367-11.222 0-4.955-.003-8.514-.367-11.222-.359-2.663-1.04-4.269-2.226-5.456s-2.793-1.867-5.456-2.226C33.514 5.732 29.955 5.73 25 5.73c-4.955 0-8.513.003-11.222.367z" data-original="#999999"></path><g fill="#222"><path d="M31.187 17.645c.61-.61 1.6-.61 2.21 0l.357.358.077.076c1.323 1.324 2.427 2.427 3.185 3.421.8 1.05 1.362 2.158 1.362 3.5s-.561 2.45-1.362 3.5c-.758.994-1.862 2.097-3.185 3.42l-.077.077-1.105-1.104 1.105 1.104-.357.358a1.563 1.563 0 0 1-2.21-2.21l.357-.357c1.42-1.42 2.372-2.377 2.988-3.184.588-.771.721-1.22.721-1.604s-.133-.833-.721-1.604c-.616-.807-1.567-1.764-2.988-3.184l-.357-.357c-.61-.61-.61-1.6 0-2.21zM28.1 13.429a1.563 1.563 0 0 1 1.105 1.914l-5.392 20.123a1.563 1.563 0 1 1-3.018-.809l5.392-20.123a1.562 1.562 0 0 1 1.913-1.105zM16.604 17.645a1.563 1.563 0 0 1 2.21 2.21l-.358.357c-1.42 1.42-2.372 2.377-2.988 3.184-.588.771-.721 1.22-.721 1.604s.133.833.721 1.604c.616.807 1.568 1.764 2.988 3.184l.357.357a1.563 1.563 0 0 1-2.21 2.21l-.357-.358 1.031-1.03-1.03 1.03-.078-.076c-1.323-1.324-2.427-2.427-3.185-3.421-.8-1.05-1.362-2.158-1.362-3.5s.561-2.45 1.362-3.5c.758-.994 1.862-2.097 3.185-3.42l.077-.077z" fill="#5e72e4" data-original="#222222" class=""></path></g></g></g></svg>