<svg id="Line_Expand" height="512" viewBox="0 0 32 32" width="512" xmlns="http://www.w3.org/2000/svg" data-name="Line Expand"><path d="m6.1 17.313 3.713-3.713a7.018 7.018 0 1 0 -1.413-1.414l-3.714 3.714-1.414-1.415a1 1 0 0 0 -1.414 1.415l1.414 1.415-1.979 1.978a1 1 0 1 0 1.414 1.414l1.979-1.979 1.414 1.414a1 1 0 1 0 1.414-1.414zm7.9-14.313a5 5 0 1 1 -5 5 5 5 0 0 1 5-5z"/><path d="m30 11h-5a1 1 0 0 0 0 2h2.586l-5.4 5.4a7.018 7.018 0 1 0 1.414 1.414l5.4-5.4v2.586a1 1 0 0 0 2 0v-5a1 1 0 0 0 -1-1zm-12 18a5 5 0 1 1 5-5 5 5 0 0 1 -5 5z"/></svg>