<svg xmlns="http://www.w3.org/2000/svg" version="1.1" xmlns:xlink="http://www.w3.org/1999/xlink" xmlns:svgjs="http://svgjs.com/svgjs" width="512" height="512" x="0" y="0" viewBox="0 0 24 24" style="enable-background:new 0 0 512 512" xml:space="preserve" class=""><g><g fill-rule="evenodd" clip-rule="evenodd"><path fill="#5e72e4" d="M16.52 4.959a.75.75 0 0 1 .79-.708 6.826 6.826 0 0 1 4.443 11.637l-2.861 2.863a6.817 6.817 0 0 1-9.645 0 6.826 6.826 0 0 1 0-9.649l1.43-1.431a.75.75 0 1 1 1.062 1.06l-1.43 1.432a5.326 5.326 0 0 0 0 7.528 5.317 5.317 0 0 0 7.522 0l2.86-2.863a5.326 5.326 0 0 0-3.464-9.08.75.75 0 0 1-.707-.79z" data-original="#999999"></path><path fill="#5e72e4" d="M13.692 6.309a5.317 5.317 0 0 0-7.523 0L3.31 9.172a5.326 5.326 0 0 0 3.464 9.08.75.75 0 1 1-.083 1.497A6.826 6.826 0 0 1 2.247 8.112l2.861-2.863a6.817 6.817 0 0 1 9.645 0 6.826 6.826 0 0 1 0 9.649l-1.43 1.431a.75.75 0 1 1-1.062-1.06l1.43-1.432a5.326 5.326 0 0 0 0-7.528z" data-original="#222222" class=""></path></g></g></svg>