<svg xmlns="http://www.w3.org/2000/svg" version="1.1" xmlns:xlink="http://www.w3.org/1999/xlink" xmlns:svgjs="http://svgjs.com/svgjs" width="512" height="512" x="0" y="0" viewBox="0 0 32 32" style="enable-background:new 0 0 512 512" xml:space="preserve" class=""><g><path fill="#3cacb6" d="M7 8.5a1 1 0 0 1-1-1C6 6.122 7.122 5 8.5 5a1 1 0 0 1 0 2 .5.5 0 0 0-.5.5 1 1 0 0 1-1 1zm7.476.055a1 1 0 0 0 .079-1.412 2.487 2.487 0 0 0-1.725-.83 2.491 2.491 0 0 0-1.806.632 1 1 0 1 0 1.333 1.491.5.5 0 0 1 .706.039.997.997 0 0 0 1.412.079zM26 21v-1a1 1 0 0 0-2 0v1a1 1 0 0 0 2 0zm0 9v-1a1 1 0 0 0-2 0v1a1 1 0 0 0 2 0zm0-4v-2a1 1 0 0 0-2 0v2a1 1 0 0 0 2 0z" data-original="#3cacb6" class=""></path><path fill="#5e72e4" d="M30 23a1 1 0 0 0 1-1v-1c0-1.654-1.346-3-3-3h-8.742c.228-1.687.452-3.397.674-5.341a2.01 2.01 0 0 0-.101-.854C20.594 11.116 21 10.163 21 9c0-1.568-.752-3.04-2-3.978V5c0-2.206-1.794-4-4-4-.661 0-1.299.164-1.878.479a5.008 5.008 0 0 0-4.244 0A3.92 3.92 0 0 0 7 1C4.794 1 3 2.794 3 5v.022C1.752 5.96 1 7.432 1 9c0 1.153.419 2.097 1.177 2.787-.092.28-.139.577-.1.884l1.732 13.661A2.997 2.997 0 0 0 6.79 29h5.394A2.996 2.996 0 0 0 15 31h13c1.654 0 3-1.346 3-3v-1a1 1 0 0 0-1-1c-.827 0-1.5-.673-1.5-1.5S29.173 23 30 23zm-15-5c-.122 0-.239.022-.357.036l.355-5.515-.054-.003c.366-.265 1.058-.643 1.918-.527.39.055.759.203 1.083.442A256.562 256.562 0 0 1 17.241 18h-2.24zM3.592 10.395C3.323 10.186 3 9.819 3 9c0-1.07.591-2.067 1.543-2.603a.999.999 0 0 0 .495-1.048A1.912 1.912 0 0 1 5 5c0-1.103.897-2 2-2 .552 0 .969.235 1.221.432a.998.998 0 0 0 1.158.052 3.005 3.005 0 0 1 3.242 0 .999.999 0 0 0 1.158-.052A1.978 1.978 0 0 1 15 3c1.103 0 2 .897 2 2 0 .12-.017.235-.038.349a.999.999 0 0 0 .495 1.048A3 3 0 0 1 19 9c0 .629-.202 1.072-.603 1.39a4.405 4.405 0 0 0-1.259-.38c-1.395-.194-2.508.313-3.189.765a6.082 6.082 0 0 0-2.948-.774 6.02 6.02 0 0 0-2.946.775c-.681-.452-1.795-.96-3.192-.766a4.437 4.437 0 0 0-1.269.385zm2.202 15.7L4.045 12.428a2.494 2.494 0 0 1 1.092-.437c.86-.116 1.552.262 1.918.527l-.054.003L7.932 27H6.789c-.51 0-.938-.383-.996-.905zM12 27H9.937l-.93-14.464A3.993 3.993 0 0 1 11 12c.425 0 1.197.1 1.991.554l-.432 6.713A2.976 2.976 0 0 0 12 20.999v1a1 1 0 0 0 1 1c.827 0 1.5.673 1.5 1.5s-.673 1.5-1.5 1.5a1 1 0 0 0-1 1zm17 .854V28c0 .551-.449 1-1 1H15c-.551 0-1-.449-1-1v-.146c1.444-.431 2.5-1.772 2.5-3.354s-1.056-2.923-2.5-3.354V21c0-.551.449-1 1-1h13c.551 0 1 .449 1 1v.146c-1.444.431-2.5 1.772-2.5 3.354s1.056 2.923 2.5 3.354z" data-original="#09474d" class=""></path></g></svg>