<svg xmlns="http://www.w3.org/2000/svg" version="1.1" xmlns:xlink="http://www.w3.org/1999/xlink" xmlns:svgjs="http://svgjs.com/svgjs" width="512" height="512" x="0" y="0" viewBox="0 0 32 32" style="enable-background:new 0 0 512 512" xml:space="preserve" class=""><g><g fill-rule="evenodd" stroke-linecap="round" stroke-linejoin="round" stroke-miterlimit="4.1"><path fill="#5e72e4" d="M23.99 5a1 1 0 0 0-.385.08L9.793 11H6c-2.197 0-4 1.803-4 4 0 1.852 1.282 3.419 3 3.867V24c0 1.645 1.355 3 3 3s3-1.355 3-3v-4.482l12.605 5.402A1 1 0 0 0 25 24V6a1 1 0 0 0-1.01-1zM23 7.518v14.964L11 17.34v-4.68zM6 13h3v4H6c-1.116 0-2-.884-2-2s.884-2 2-2zm1 6h2v5c0 .564-.436 1-1 1s-1-.436-1-1z" data-original="#232555"></path><path fill="#ff385a" fill-opacity=".992" d="M2.293 2.293a1 1 0 0 0 0 1.414l26 26a1 1 0 0 0 1.414 0 1 1 0 0 0 0-1.414l-26-26a1 1 0 0 0-1.414 0z" data-original="#ff385a"></path></g></g></svg>