<svg xmlns="http://www.w3.org/2000/svg" version="1.1" xmlns:xlink="http://www.w3.org/1999/xlink" xmlns:svgjs="http://svgjs.com/svgjs" width="512" height="512" x="0" y="0" viewBox="0 0 24 24" style="enable-background:new 0 0 512 512" xml:space="preserve" class=""><g><path fill="#5e72e4" fill-rule="evenodd" d="M4 1a3 3 0 0 0-3 3v11a3 3 0 0 0 3 3v2.586a2.414 2.414 0 0 0 4.121 1.707l4.586-4.586a1 1 0 0 0-1.414-1.414l-4.586 4.586A.414.414 0 0 1 6 20.586V17a1 1 0 0 0-1-1H4a1 1 0 0 1-1-1V4a1 1 0 0 1 1-1h16a1 1 0 0 1 1 1v6a1 1 0 1 0 2 0V4a3 3 0 0 0-3-3zm15 12a1 1 0 0 1 1 1v2h2a1 1 0 1 1 0 2h-2v2a1 1 0 0 1-2 0v-2h-2a1 1 0 1 1 0-2h2v-2a1 1 0 0 1 1-1z" clip-rule="evenodd" data-original="#000000" class=""></path></g></svg>