<svg id="Layer_1" height="512" viewBox="0 0 64 64" width="512" xmlns="http://www.w3.org/2000/svg"><g><path d="m39.289 27.278c-.203 0-.408-.062-.585-.19-.448-.323-.548-.948-.224-1.396 1.687-2.329 1.948-5.329.7-8.024-1.244-2.688-3.695-4.423-6.558-4.644-3.06-.237-5.955 1.344-7.515 4.127-1.553 2.772-1.396 6.046.411 8.541.324.448.225 1.073-.223 1.396-.449.325-1.073.224-1.396-.223-2.27-3.135-2.476-7.231-.537-10.692 1.944-3.471 5.545-5.436 9.414-5.144 3.593.276 6.666 2.444 8.219 5.798 1.556 3.36 1.222 7.113-.896 10.038-.195.27-.5.413-.81.413z"/></g><g><path d="m33 26c-.553 0-1-.447-1-1s.447-1 1-1c.306 0 .532-.091.692-.277.153-.179.242-.442.242-.723 0-.167-.045-1-.935-1-.553 0-1-.447-1-1s.447-1 1-1c1.927 0 2.935 1.509 2.935 3 0 .763-.258 1.482-.726 2.027-.538.627-1.323.973-2.208.973z"/></g><g><path d="m33 22h-2c-.553 0-1-.447-1-1s.447-1 1-1h2c.553 0 1 .447 1 1s-.447 1-1 1z"/></g><g><path d="m31 22c-1.927 0-2.935-1.509-2.935-3 0-.763.258-1.482.726-2.027.539-.627 1.324-.973 2.209-.973.553 0 1 .447 1 1s-.447 1-1 1c-.306 0-.532.091-.692.277-.153.179-.242.442-.242.723 0 .167.045 1 .935 1 .553 0 1 .447 1 1s-.448 1-1.001 1z"/></g><g><path d="m33 18h-2c-.553 0-1-.447-1-1s.447-1 1-1h2c.553 0 1 .447 1 1s-.447 1-1 1z"/></g><g><path d="m33 26h-2c-.553 0-1-.447-1-1s.447-1 1-1h2c.553 0 1 .447 1 1s-.447 1-1 1z"/></g><g><path d="m31 26c-1.299 0-2.444-.829-2.85-2.063-.172-.525.113-1.09.638-1.263.524-.172 1.09.113 1.263.638.135.412.516.688.949.688.553 0 1 .447 1 1s-.447 1-1 1z"/></g><g><path d="m34.899 19.375c-.421 0-.812-.267-.95-.688-.135-.411-.516-.687-.949-.687-.553 0-1-.447-1-1s.447-1 1-1c1.299 0 2.444.829 2.85 2.063.172.525-.113 1.09-.638 1.263-.104.033-.209.049-.313.049z"/></g><g><path d="m32 18c-.553 0-1-.447-1-1v-1c0-.553.447-1 1-1s1 .447 1 1v1c0 .553-.447 1-1 1z"/></g><g><path d="m32 27c-.553 0-1-.447-1-1v-1c0-.553.447-1 1-1s1 .447 1 1v1c0 .553-.447 1-1 1z"/></g><g><path d="m50 29.278c-.553 0-1-.447-1-1 0-.552-.448-1-1-1-.553 0-1-.447-1-1s.447-1 1-1c1.654 0 3 1.346 3 3 0 .553-.447 1-1 1z"/></g><g><path d="m50 33.278c-.553 0-1-.447-1-1v-4c0-.553.447-1 1-1s1 .447 1 1v4c0 .553-.447 1-1 1z"/></g><g><path d="m48 27.278h-32c-.553 0-1-.447-1-1s.447-1 1-1h32c.553 0 1 .447 1 1s-.447 1-1 1z"/></g><g><path d="m14 29.278c-.553 0-1-.447-1-1 0-1.654 1.346-3 3-3 .553 0 1 .447 1 1s-.447 1-1 1c-.552 0-1 .448-1 1 0 .553-.447 1-1 1z"/></g><g><path d="m14 33.278c-.553 0-1-.447-1-1v-4c0-.553.447-1 1-1s1 .447 1 1v4c0 .553-.447 1-1 1z"/></g><g><path d="m50 33.278h-36c-.553 0-1-.447-1-1s.447-1 1-1h36c.553 0 1 .447 1 1s-.447 1-1 1z"/></g><g><path d="m20 53c-2.757 0-5-2.243-5-5 0-.553.447-1 1-1s1 .447 1 1c0 1.654 1.346 3 3 3 .553 0 1 .447 1 1s-.447 1-1 1z"/></g><g><path d="m16 49c-.553 0-1-.447-1-1v-15.722c0-.553.447-1 1-1s1 .447 1 1v15.722c0 .553-.447 1-1 1z"/></g><g><path d="m44 53h-24c-.553 0-1-.447-1-1s.447-1 1-1h24c.553 0 1 .447 1 1s-.447 1-1 1z"/></g><g><path d="m44 53c-.553 0-1-.447-1-1s.447-1 1-1c1.654 0 3-1.346 3-3 0-.553.447-1 1-1s1 .447 1 1c0 2.757-2.243 5-5 5z"/></g><g><path d="m48 49c-.553 0-1-.447-1-1v-15.722c0-.553.447-1 1-1s1 .447 1 1v15.722c0 .553-.447 1-1 1z"/></g></svg>