<svg xmlns="http://www.w3.org/2000/svg" version="1.1" xmlns:xlink="http://www.w3.org/1999/xlink" xmlns:svgjs="http://svgjs.com/svgjs" width="512" height="512" x="0" y="0" viewBox="0 0 24 24" style="enable-background:new 0 0 512 512" xml:space="preserve" class=""><g><g fill-rule="evenodd" clip-rule="evenodd"><path fill="#5e72e4" d="M11.943 1.25h.114c2.309 0 4.118 0 5.53.19 1.444.194 2.584.6 3.479 1.494s1.3 2.035 1.494 3.48c.19 1.411.19 3.22.19 5.529v.114c0 2.309 0 4.118-.19 5.53-.194 1.444-.6 2.584-1.494 3.479s-2.035 1.3-3.48 1.494c-1.411.19-3.22.19-5.529.19h-.114c-2.309 0-4.118 0-5.53-.19-1.444-.194-2.584-.6-3.479-1.494s-1.3-2.035-1.494-3.48c-.19-1.411-.19-3.22-.19-5.529v-.114c0-2.309 0-4.118.19-5.53.194-1.444.6-2.584 1.494-3.479s2.035-1.3 3.48-1.494c1.411-.19 3.22-.19 5.529-.19zm-5.33 1.676c-1.278.172-2.049.5-2.618 1.069-.57.57-.897 1.34-1.069 2.619-.174 1.3-.176 3.008-.176 5.386s.002 4.086.176 5.386c.172 1.279.5 2.05 1.069 2.62.57.569 1.34.896 2.619 1.068 1.3.174 3.008.176 5.386.176s4.086-.002 5.386-.176c1.279-.172 2.05-.5 2.62-1.069s.896-1.34 1.068-2.619c.174-1.3.176-3.008.176-5.386s-.002-4.086-.176-5.386c-.172-1.279-.5-2.05-1.069-2.62-.57-.569-1.34-.896-2.619-1.068-1.3-.174-3.008-.176-5.386-.176s-4.086.002-5.386.176z" data-original="#26d701"></path><path fill="#5e72e4" d="M14.5 10.75a.75.75 0 0 1 0-1.5H17a.75.75 0 0 1 .75.75v2.5a.75.75 0 0 1-1.5 0v-.69l-2.013 2.013a1.75 1.75 0 0 1-2.474 0l-1.586-1.586a.25.25 0 0 0-.354 0L7.53 14.53a.75.75 0 0 1-1.06-1.06l2.293-2.293a1.75 1.75 0 0 1 2.474 0l1.586 1.586a.25.25 0 0 0 .354 0l2.012-2.013z" data-original="#00ab08" class=""></path></g></g></svg>