<svg xmlns="http://www.w3.org/2000/svg" version="1.1" xmlns:xlink="http://www.w3.org/1999/xlink" xmlns:svgjs="http://svgjs.com/svgjs" width="512" height="512" x="0" y="0" viewBox="0 0 512 512" style="enable-background:new 0 0 512 512" xml:space="preserve" class=""><g><path d="M256 0C115.043 0 0 115.048 0 256c0 140.957 115.049 256 256 256 140.959 0 256-115.049 256-256C512 115.041 396.951 0 256 0zm0 482C131.383 482 30 380.617 30 256S131.383 30 256 30s226 101.383 226 226-101.383 226-226 226z" fill="#5e72e4" data-original="#000000" class=""></path><path d="M256 61c-40.744 0-79.803 12.489-112.952 36.117-7.538 5.373-8.466 16.257-1.9 22.821l250.914 250.914c6.561 6.563 17.445 5.641 22.821-1.9C438.511 335.804 451 296.746 451 256c0-107.523-87.477-195-195-195zm144.053 275.417-224.47-224.47C200.077 98.196 227.551 91 256 91c90.981 0 165 74.019 165 165 0 28.45-7.195 55.924-20.947 80.417zM370.852 392.062 119.938 141.147c-6.531-6.533-17.42-5.675-22.821 1.9C73.489 176.196 61 215.254 61 256c0 107.523 87.477 195 195 195 40.744 0 79.803-12.489 112.952-36.117 7.538-5.373 8.466-16.257 1.9-22.821zM256 421c-90.981 0-165-74.019-165-165 0-28.45 7.195-55.924 20.947-80.417l224.47 224.47C311.923 413.804 284.449 421 256 421z" fill="#5e72e4" data-original="#000000" class=""></path></g></svg>