<svg xmlns="http://www.w3.org/2000/svg" version="1.1" xmlns:xlink="http://www.w3.org/1999/xlink" xmlns:svgjs="http://svgjs.com/svgjs" width="512" height="512" x="0" y="0" viewBox="0 0 24 24" style="enable-background:new 0 0 512 512" xml:space="preserve" class=""><g><g data-name="Layer 2"><g fill="#7fbde7"><path d="M12 22.75a.76.76 0 0 1-.75-.75v-2.5a.75.75 0 0 1 1.5 0V22a.76.76 0 0 1-.75.75zM9 21.75a.76.76 0 0 1-.75-.75v-1.5a.75.75 0 0 1 1.5 0V21a.76.76 0 0 1-.75.75zM15 21.75a.76.76 0 0 1-.75-.75v-1.5a.75.75 0 0 1 1.5 0V21a.76.76 0 0 1-.75.75z" fill="#7fbde7" data-original="#7fbde7"></path></g><path fill="#5e72e4" d="M16 18.25H8a1.76 1.76 0 0 1-1.75-1.75v-10a1.76 1.76 0 0 1 .66-1.37l4-3.2a1.74 1.74 0 0 1 2.18 0l4 3.2a1.76 1.76 0 0 1 .66 1.37V9a.75.75 0 0 1-1.5 0V6.48a.22.22 0 0 0-.09-.19l-4-3.2a.24.24 0 0 0-.32 0l-4 3.2a.22.22 0 0 0-.09.19v10a.25.25 0 0 0 .25.25h8a.25.25 0 0 0 .25-.25V12a.75.75 0 0 1 1.5 0v4.5A1.76 1.76 0 0 1 16 18.25z" data-original="#232323" class=""></path><path fill="#7fbde7" d="M12 13.75A2.75 2.75 0 1 1 14.75 11 2.75 2.75 0 0 1 12 13.75zm0-4A1.25 1.25 0 1 0 13.25 11 1.25 1.25 0 0 0 12 9.75z" data-original="#7fbde7"></path><path fill="#5e72e4" d="M7 16.75H2.5a1.25 1.25 0 0 1-1.25-1.25v-3.22a1.26 1.26 0 0 1 .61-1.07l4.75-2.85a.74.74 0 0 1 .76 0 .75.75 0 0 1 .38.64v7a.76.76 0 0 1-.75.75zm-4.25-1.5h3.5v-4.93l-3.5 2.1zM21.5 16.75H17a.75.75 0 0 1 0-1.5h4.25v-2.83l-4.64-2.78a.75.75 0 0 1 .78-1.28l4.75 2.85a1.26 1.26 0 0 1 .61 1.07v3.22a1.25 1.25 0 0 1-1.25 1.25z" data-original="#232323" class=""></path></g></g></svg>