<?xml version="1.0" encoding="utf-8"?>
<!-- Uploaded to: SVG Repo, www.svgrepo.com, Generator: SVG Repo Mixer Tools -->
<svg fill="#000000" width="800px" height="800px" viewBox="0 0 32 32" version="1.1" xmlns="http://www.w3.org/2000/svg">
<title>swap</title>
<path d="M0 30.016v-8q0-0.832 0.576-1.408t1.44-0.608h8q0.8 0 1.408 0.608t0.576 1.408v8q0 0.832-0.576 1.408t-1.408 0.576h-8q-0.832 0-1.44-0.576t-0.576-1.408zM0.032 10.368q-0.096-0.608 0.128-1.152t0.704-0.864 1.152-0.352h1.984q0-2.464 1.76-4.224t4.256-1.76h4q0.704 0 1.216 0.416t0.64 0.992 0 1.184-0.64 0.992-1.216 0.416h-4q-0.832 0-1.44 0.576t-0.576 1.408h2.016q0.64 0 1.152 0.384t0.704 0.864 0.096 1.12-0.544 1.056l-4 4q-0.64 0.608-1.44 0.608t-1.376-0.608l-4-4q-0.48-0.448-0.576-1.056zM4 28h4v-4h-4v4zM16.128 28.608q-0.096-0.608 0-1.184t0.64-0.992 1.248-0.416h4q0.8 0 1.408-0.576t0.576-1.44h-1.984q-0.672 0-1.184-0.352t-0.704-0.896-0.096-1.12 0.576-1.024l4-4q0.608-0.608 1.408-0.608t1.408 0.576l4 4q0.48 0.48 0.576 1.088t-0.16 1.12-0.704 0.864-1.12 0.352h-2.016q0 2.496-1.76 4.256t-4.224 1.76h-4q-0.736 0-1.248-0.416t-0.64-0.992zM20 10.016v-8q0-0.832 0.576-1.408t1.44-0.608h8q0.8 0 1.408 0.608t0.576 1.408v8q0 0.832-0.576 1.408t-1.408 0.576h-8q-0.832 0-1.44-0.576t-0.576-1.408zM24 8h4v-4h-4v4z"></path>
</svg>