<svg xmlns="http://www.w3.org/2000/svg" version="1.1" xmlns:xlink="http://www.w3.org/1999/xlink" xmlns:svgjs="http://svgjs.com/svgjs" width="512" height="512" x="0" y="0" viewBox="0 0 24 24" style="enable-background:new 0 0 512 512" xml:space="preserve" class=""><g><path fill="#5e72e4" fill-rule="evenodd" d="M6.53 2.47a.75.75 0 0 1 0 1.06l-3 3a.75.75 0 0 1-1.06-1.06l3-3a.75.75 0 0 1 1.06 0zm10.94 0a.75.75 0 0 1 1.06 0l3 3a.75.75 0 0 1-1.06 1.06l-3-3a.75.75 0 0 1 0-1.06zM12 5.75a7.25 7.25 0 1 0 0 14.5 7.25 7.25 0 0 0 0-14.5zM3.25 13a8.75 8.75 0 1 1 17.5 0 8.75 8.75 0 0 1-17.5 0zM12 8.25a.75.75 0 0 1 .75.75v3.69l1.78 1.78a.75.75 0 1 1-1.06 1.06l-2-2a.75.75 0 0 1-.22-.53V9a.75.75 0 0 1 .75-.75z" clip-rule="evenodd" data-original="#001a72" class=""></path></g></svg>