<svg xmlns="http://www.w3.org/2000/svg" version="1.1" xmlns:xlink="http://www.w3.org/1999/xlink" xmlns:svgjs="http://svgjs.com/svgjs" width="512" height="512" x="0" y="0" viewBox="0 0 24 24" style="enable-background:new 0 0 512 512" xml:space="preserve" class=""><g><g data-name="1"><path fill="#5e72e4" d="M10.192 10.59A4.6 4.6 0 0 0 7.173 9.5a4.669 4.669 0 0 0-2.327.616l-.044.022a4.267 4.267 0 0 0-.381.268c-.089.066-.187.119-.271.192-.009.008-.015.018-.025.026-.065.058-.116.127-.177.188a3.592 3.592 0 0 0-1.1 2.545v4.786A4.116 4.116 0 0 0 7.173 22a4.116 4.116 0 0 0 4.327-3.857v-4.786a3.664 3.664 0 0 0-1.308-2.767zM4.4 12.9c.015-.063.044-.122.065-.183a1.815 1.815 0 0 1 .093-.249 2.046 2.046 0 0 1 .14-.225c.037-.057.068-.116.11-.17a2.519 2.519 0 0 1 .237-.249c.034-.033.063-.069.1-.1a2.717 2.717 0 0 1 .344-.246c.031-.019.057-.043.089-.062a3 3 0 0 1 .325-.15c.056-.024.108-.055.167-.076s.113-.027.168-.044A3.3 3.3 0 0 1 7.173 11a3.1 3.1 0 0 1 2.034.721A2.182 2.182 0 0 1 10 13.357a1.834 1.834 0 0 1-.27.969 2.942 2.942 0 0 1-2.557 1.224 2.94 2.94 0 0 1-2.556-1.226 1.821 1.821 0 0 1-.269-.967A1.972 1.972 0 0 1 4.4 12.9zm2.773 4.15a4.836 4.836 0 0 0 2.816-.867c-.05 1.211-1.24 2.117-2.816 2.117s-2.766-.906-2.816-2.116a4.842 4.842 0 0 0 2.816.866zm0 3.45A2.9 2.9 0 0 1 4.6 19.115c.022.014.048.024.071.037.062.036.129.066.194.1a4.565 4.565 0 0 0 .476.215c.081.031.164.059.249.086a5 5 0 0 0 .523.132c.081.017.16.036.243.049a5.084 5.084 0 0 0 1.633 0c.084-.013.162-.032.244-.049a5.061 5.061 0 0 0 .523-.132 4.86 4.86 0 0 0 .249-.086 4.457 4.457 0 0 0 .475-.215c.065-.034.132-.064.2-.1.022-.013.049-.023.071-.037A2.9 2.9 0 0 1 7.173 20.5z" data-original="#fdaa29"></path><path d="M21.75 8.638V7.75a5.388 5.388 0 0 0-4.877-5.69A5.367 5.367 0 0 0 16 2H7a6.046 6.046 0 0 0-.9.065A5.4 5.4 0 0 0 1.25 7.75v2a.75.75 0 0 0 1.5 0v-2a3.928 3.928 0 0 1 3.555-4.2A4.6 4.6 0 0 1 7 3.5h9a3.924 3.924 0 0 1 .663.045A3.925 3.925 0 0 1 20.25 7.75v.7h-1.33a2.811 2.811 0 0 0-2.787 3.042 2.877 2.877 0 0 0 2.907 2.558h1.21v.7A3.982 3.982 0 0 1 16 19h-2.5a.75.75 0 0 0 0 1.5H16a5.444 5.444 0 0 0 5.75-5.75v-.883a1.759 1.759 0 0 0 1-1.587v-2.06a1.752 1.752 0 0 0-1-1.582zm-2.71 3.912a1.389 1.389 0 0 1-1.413-1.191 1.271 1.271 0 0 1 .392-1.037 1.242 1.242 0 0 1 .9-.372h2.054a.277.277 0 0 1 .276.27v2.06a.273.273 0 0 1-.25.27z" fill="#5e72e4" data-original="#000000" class=""></path></g></g></svg>