<svg xmlns="http://www.w3.org/2000/svg" version="1.1" xmlns:xlink="http://www.w3.org/1999/xlink" xmlns:svgjs="http://svgjs.com/svgjs" width="512" height="512" x="0" y="0" viewBox="0 0 64 64" style="enable-background:new 0 0 512 512" xml:space="preserve" class=""><g><g data-name="Layer 84"><g fill="#39b54a"><path d="M32 31.42c9.79 0 26.36-1.47 26.36-7a1.53 1.53 0 0 0-1.5-1.53 1.46 1.46 0 0 0-1.49 1.46c-.59 1.45-8.9 4.05-23.37 4.05s-22.78-2.6-23.36-4a1.5 1.5 0 0 0-3 0c0 5.6 16.57 7.02 26.36 7.02zM56.86 38a1.46 1.46 0 0 0-1.49 1.47c-.59 1.45-8.9 4-23.37 4s-22.78-2.59-23.36-4a1.5 1.5 0 0 0-3 0c0 5.5 16.57 7 26.36 7s26.36-1.47 26.36-7a1.53 1.53 0 0 0-1.5-1.47zM56.86 53a1.46 1.46 0 0 0-1.49 1.47c-.59 1.45-8.9 4-23.37 4s-22.78-2.59-23.36-4a1.5 1.5 0 0 0-3 0c0 5.5 16.57 7 26.36 7s26.36-1.47 26.36-7a1.53 1.53 0 0 0-1.5-1.47z" fill="#5e72e4" data-original="#39b54a"></path></g><path d="M32 2.43c-9.79 0-26.36 1.47-26.36 7v45.1a1.5 1.5 0 0 0 3 0V12.94c5.23 2.63 16.14 3.43 23.36 3.43s18.13-.8 23.36-3.43v41.59a1.5 1.5 0 0 0 3 0V9.4c0-5.5-16.57-6.97-26.36-6.97zm0 10.94c-14.24 0-22.51-2.51-23.33-4 .82-1.46 9.09-4 23.33-4s22.52 2.51 23.33 4c-.81 1.49-9.09 4-23.33 4z" fill="#5e72e4" data-original="#000000" class=""></path><path d="m25.31 20.69-3.1-.23a1.5 1.5 0 1 0-.26 3c1 .1 2.07.18 3.16.25h.1a1.5 1.5 0 0 0 1.5-1.4 1.51 1.51 0 0 0-1.4-1.62zM16.89 19.75a36.8 36.8 0 0 1-4.46-1 1.5 1.5 0 0 0-.86 2.88 42.51 42.51 0 0 0 4.82 1.09h.25a1.5 1.5 0 0 0 .25-3zM25.31 35.79c-1.07-.07-2.1-.15-3.1-.24a1.5 1.5 0 0 0-.26 3c1 .09 2.07.17 3.16.24h.1a1.5 1.5 0 0 0 .1-3zM16.89 34.84a38.35 38.35 0 0 1-4.47-1 1.5 1.5 0 0 0-.84 2.88 41.65 41.65 0 0 0 4.81 1.09 1.06 1.06 0 0 0 .25 0 1.5 1.5 0 0 0 .25-3zM25.31 50.88c-1.07-.07-2.1-.15-3.1-.24A1.51 1.51 0 0 0 20.59 52 1.49 1.49 0 0 0 22 53.63c1 .09 2.07.17 3.16.24h.1a1.5 1.5 0 0 0 .1-3zM16.89 49.94a42.94 42.94 0 0 1-4.47-1 1.5 1.5 0 1 0-.84 2.87 41.65 41.65 0 0 0 4.81 1.09 1.07 1.07 0 0 0 .25 0 1.5 1.5 0 0 0 .25-3z" fill="#5e72e4" data-original="#000000" class=""></path></g></g></svg>