<svg xmlns="http://www.w3.org/2000/svg" version="1.1" xmlns:xlink="http://www.w3.org/1999/xlink" xmlns:svgjs="http://svgjs.com/svgjs" width="512" height="512" x="0" y="0" viewBox="0 0 512 512" style="enable-background:new 0 0 512 512" xml:space="preserve" class=""><g><path d="M402.404 248.614c-16.437-25.669-35.331-45.405-55.106-58.136 8.175-6.394 13.444-16.335 13.444-27.489 0-12.955-7.105-24.275-17.622-30.297L387.694 46.2l-4.778-6.062c-35.33-44.833-66.707-32.679-91.922-22.911-11.718 4.539-22.787 8.827-33.977 7.866l-1.026-.088-1.026.088c-11.226.964-21.833-3.357-33.068-7.931-23.857-9.711-53.547-21.798-88.83 22.976l-4.597 5.833 40.824 86.472c-10.755 5.957-18.055 17.414-18.055 30.546 0 11.154 5.27 21.095 13.445 27.489-19.772 12.73-38.663 32.464-55.095 58.129-27.768 43.367-44.346 96.657-44.346 142.55 0 32.279 8.345 59.556 24.132 78.883 18.408 22.534 45.694 33.96 81.101 33.96h171.058c35.403 0 62.687-11.424 81.093-33.954 15.787-19.324 24.131-46.598 24.131-78.872-.001-45.895-16.582-99.188-44.354-142.56zM212.847 39.39c12.491 5.084 26.612 10.835 43.145 9.693 16.317 1.122 30.831-4.503 43.672-9.478 22.465-8.703 37.83-14.652 59.511 9.546l-40.68 78.935H193.776L156.605 49.35c21.304-24.179 34.811-18.685 56.242-9.96zm-26.676 134.503c-6.029 0-10.934-4.891-10.934-10.904 0-5.91 5.007-10.904 10.934-10.904H325.81c5.926 0 10.933 4.994 10.933 10.904 0 6.013-4.904 10.904-10.933 10.904H216.057zm217.87 280.969C390.414 471.542 369.384 480 341.534 480H170.476c-67.14 0-81.233-48.314-81.233-88.844 0-40.875 15.541-90.538 40.557-129.609 25.903-40.454 57.342-63.655 86.258-63.655h79.866c64.127 0 126.834 110.674 126.834 193.281 0 26.678-6.473 48.701-18.717 63.689zM232.824 315.178c0 12.261 5.152 14.98 25.626 19.283 17.802 3.742 44.705 9.396 44.705 42.794 0 19.949-14.952 36.766-35.165 41.623v21.929h-23.999v-21.929c-20.214-4.856-35.166-21.674-35.166-41.623h23.999c0 10.499 10.393 19.04 23.167 19.04 12.773 0 23.166-8.541 23.166-19.04 0-12.28-5.155-15.002-25.642-19.308-17.796-3.74-44.689-9.393-44.689-42.77 0-19.948 14.952-36.766 35.166-41.622v-21.929h23.999v21.929c20.213 4.856 35.165 21.674 35.165 41.622h-23.999c0-10.498-10.393-19.039-23.166-19.039-12.774.001-23.167 8.542-23.167 19.04z" fill="#5e72e4" data-original="#000000" class=""></path></g></svg>