<svg xmlns="http://www.w3.org/2000/svg" version="1.1" xmlns:xlink="http://www.w3.org/1999/xlink" xmlns:svgjs="http://svgjs.com/svgjs" width="512" height="512" x="0" y="0" viewBox="0 0 24 24" style="enable-background:new 0 0 512 512" xml:space="preserve" class=""><g><g data-name="Layer 2"><path fill="#5e72e4" d="M19 20h-2a1 1 0 0 1 0-2h2a1 1 0 0 0 1-1V8a2 2 0 0 0-2-2H6a2 2 0 0 0-2 2v8a2 2 0 0 0 2 2h5a1 1 0 0 1 0 2H6a4 4 0 0 1-4-4V8a4 4 0 0 1 4-4h12a4 4 0 0 1 4 4v9a3 3 0 0 1-3 3z" data-original="#232323"></path><path fill="#5e72e4" d="M14.5 20h-1a1 1 0 0 1 0-2h1a1 1 0 0 1 0 2z" data-original="#232323"></path><path fill="#5e72e4" d="M12 13.64a4 4 0 0 1-1.79-.42l-4.66-2.33a1 1 0 1 1 .9-1.78l4.66 2.32a1.93 1.93 0 0 0 1.78 0l4.66-2.32a1 1 0 1 1 .9 1.78l-4.66 2.33a4 4 0 0 1-1.79.42z" data-original="#7fbde7" class=""></path></g></g></svg>