<?xml version="1.0" encoding="iso-8859-1"?>
<!-- Uploaded to: SVG Repo, www.svgrepo.com, Generator: SVG Repo Mixer Tools -->
<!DOCTYPE svg PUBLIC "-//W3C//DTD SVG 1.1//EN" "http://www.w3.org/Graphics/SVG/1.1/DTD/svg11.dtd">
<svg fill="#000000" version="1.1" id="Capa_1" xmlns="http://www.w3.org/2000/svg" xmlns:xlink="http://www.w3.org/1999/xlink" 
	 width="800px" height="800px" viewBox="0 0 29.722 29.722"
	 xml:space="preserve">
<g>
	<g>
		<polygon points="11.534,10.869 11.534,18.853 18.188,14.861 		"/>
		<path d="M27.468,2.841H2.254C1.011,2.841,0,3.853,0,5.095v19.531c0,1.242,1.011,2.254,2.254,2.254h25.214
			c1.243,0,2.254-1.012,2.254-2.254V5.095C29.722,3.853,28.711,2.841,27.468,2.841z M23.837,4.446c0.483,0,0.876,0.393,0.876,0.877
			c0,0.483-0.393,0.876-0.876,0.876s-0.875-0.393-0.875-0.876C22.961,4.839,23.352,4.446,23.837,4.446z M21.333,4.446
			c0.483,0,0.877,0.393,0.877,0.877c0,0.483-0.394,0.876-0.877,0.876c-0.484,0-0.876-0.393-0.876-0.876
			C20.456,4.839,20.848,4.446,21.333,4.446z M27.092,22.75c0,0.826-0.676,1.503-1.502,1.503H4.132c-0.826,0-1.502-0.677-1.502-1.503
			V6.973c0-0.826,0.676-1.503,1.502-1.503h12.067c0.826,0,1.502,0.507,1.502,1.127c0,0.621,0.677,1.127,1.502,1.127h6.386
			c0.826,0,1.502,0.677,1.502,1.503L27.092,22.75L27.092,22.75z M26.341,6.199c-0.485,0-0.877-0.393-0.877-0.876
			c0-0.484,0.392-0.877,0.877-0.877c0.483,0,0.875,0.393,0.875,0.877C27.217,5.806,26.824,6.199,26.341,6.199z"/>
		<polygon points="9.536,22.023 4.905,22.023 4.905,23.013 9.536,23.013 9.536,23.228 10.956,23.228 10.956,21.807 9.536,21.807 		
			"/>
		<polygon points="11.259,22.189 24.652,22.189 24.652,22.849 11.259,22.849 11.259,23.013 24.816,23.013 24.816,22.023 
			11.259,22.023 		"/>
	</g>
</g>
</svg>