<svg xmlns="http://www.w3.org/2000/svg" version="1.1" xmlns:xlink="http://www.w3.org/1999/xlink" xmlns:svgjs="http://svgjs.com/svgjs" width="512" height="512" x="0" y="0" viewBox="0 0 512.006 512.006" style="enable-background:new 0 0 512 512" xml:space="preserve" class=""><g><path d="M353.683 144.916H60.408c-5.522 0-10 4.478-10 10v296.279c0 .021.003.041.003.061 0 .082-.003.163-.003.244 0 5.522 4.478 10 10 10h293.275c5.522 0 10-4.478 10-10V154.916c0-5.523-4.477-10-10-10zm-283.275 20h273.275v146.073h-37.667c-44.29 0-85.005 20.893-110.778 56.362-14.067-7.728-29.811-11.771-46.078-11.771h-2.832c-30.863 0-58.363 14.655-75.92 37.367zm273.275 276.279H71.111c5.044-37.006 36.849-65.614 75.217-65.614h2.832c15.58 0 30.548 4.682 43.285 13.539a10 10 0 0 0 14.196-2.921c21.548-34.57 58.697-55.21 99.376-55.21h37.667v110.206z" fill="#5e72e4" data-original="#000000"></path><path d="M163.458 306.826c26.503 0 48.065-21.563 48.065-48.065 0-26.504-21.563-48.066-48.065-48.066-26.504 0-48.066 21.563-48.066 48.066-.001 26.503 21.562 48.065 48.066 48.065zm0-76.132c15.476 0 28.065 12.591 28.065 28.066s-12.59 28.065-28.065 28.065-28.066-12.59-28.066-28.065 12.59-28.066 28.066-28.066z" fill="#5e72e4" data-original="#000000"></path><path d="M501.638 70.729c-5.688-7.987-14.146-13.281-23.815-14.906L148.869.518c-9.671-1.629-19.394.61-27.381 6.299s-13.281 14.146-14.906 23.815L95.91 94.105H40.26c-20.242 0-36.71 16.468-36.71 36.709v344.482c0 20.241 16.468 36.709 36.71 36.709h333.57c20.242 0 36.71-16.468 36.71-36.709v-35.51s7.369 1.141 9.415 1.141c7.566 0 14.93-2.34 21.217-6.817 7.987-5.688 13.281-14.146 14.91-23.835L507.938 98.11c1.626-9.67-.611-19.394-6.3-27.381zM390.541 475.297c0 9.213-7.496 16.709-16.71 16.709H40.26c-9.214 0-16.71-7.496-16.71-16.709V130.814c0-9.213 7.496-16.709 16.71-16.709h333.57c9.214 0 16.71 7.496 16.71 16.709v344.483zm97.671-380.484-51.855 312.166a16.598 16.598 0 0 1-6.785 10.84 16.592 16.592 0 0 1-12.36 2.885l-6.67-1.287V130.814c0-20.241-16.468-36.709-36.71-36.709H116.19l10.114-60.157a16.6 16.6 0 0 1 6.785-10.84 16.606 16.606 0 0 1 12.463-2.867l328.955 55.305a16.598 16.598 0 0 1 10.84 6.785c2.59 3.636 3.608 8.061 2.865 12.482z" fill="#5e72e4" data-original="#000000"></path></g></svg>