<svg version="1.1" id="Layer_1" xmlns:x="ns_extend;" xmlns:i="ns_ai;" xmlns:graph="ns_graphs;" xmlns="http://www.w3.org/2000/svg" xmlns:xlink="http://www.w3.org/1999/xlink" x="0px" y="0px" viewBox="0 0 80.6 55.8" style="enable-background:new 0 0 80.6 55.8;" xml:space="preserve">
 <style type="text/css">
  .st0 { fill:#0A0080; }
	.st1 { fill:#2ABCFF; }
	.st2 { fill:#FFFFFF; }
 </style>
 <metadata>
  <sfw xmlns="ns_sfw;">
   <slices>
   </slices>
   <sliceSourceBounds bottomLeftOrigin="true" height="55.8" width="80.6" x="89.8" y="-227.1">
   </sliceSourceBounds>
  </sfw>
 </metadata>
 <g>
  <path class="st0" d="M80.6,26.3C80.6,11.8,62.5,0,40.3,0C18,0,0,11.8,0,26.3c0,0.4,0,1.4,0,1.5c0,15.4,15.8,27.9,40.3,27.9
		c24.7,0,40.3-12.5,40.3-27.9V26.3z">
  </path>
  <path class="st1" d="M79,26.3C79,40,61.7,51.1,40.3,51.1C18.9,51.1,1.6,40,1.6,26.3c0-13.7,17.3-24.8,38.7-24.8
		C61.7,1.6,79,12.6,79,26.3">
  </path>
  <path class="st2" d="M27.4,18.5c0,0-0.4,0.4-0.2,0.8c0.6,0.8,2.5,1.2,4.4,0.8c1.1-0.3,2.6-1.4,4-2.5c1.5-1.2,3-2.4,4.6-2.9
		c1.6-0.5,2.6-0.3,3.3-0.1c0.8,0.2,1.6,0.7,3,1.8c2.7,2,13.3,11.3,15.1,12.9c1.5-0.7,8.1-3.5,17-5.5C78,19,75.1,14.6,70.7,11
		c-6.1,2.6-13.6,3.9-21,0.3c0,0-4-1.9-7.9-1.8c-5.8,0.1-8.3,2.7-11,5.3L27.4,18.5z">
  </path>
  <path class="st2" d="M61.3,30.2c-0.1-0.1-12.5-11-15.3-13.1c-1.6-1.2-2.5-1.5-3.5-1.7c-0.5-0.1-1.2,0-1.7,0.2
		c-1.3,0.4-3,1.5-4.5,2.7c-1.6,1.3-3.1,2.4-4.4,2.7C30.2,21.5,28,21,27,20.4c-0.4-0.3-0.7-0.6-0.8-0.9c-0.4-0.8,0.3-1.5,0.4-1.6
		l3.4-3.7c0.4-0.4,0.8-0.8,1.2-1.2c-1.1,0.1-2.1,0.4-3.1,0.7c-1.2,0.3-2.4,0.7-3.6,0.7c-0.5,0-3.2-0.4-3.7-0.6
		c-3.1-0.8-5.8-1.7-9.9-3.6C6,13.8,2.8,18.3,1.9,23.3c0.7,0.2,1.8,0.5,2.3,0.6c11,2.4,14.4,5,15.1,5.5c0.7-0.7,1.6-1.2,2.7-1.2
		c1.2,0,2.3,0.6,3,1.6c0.6-0.5,1.5-0.9,2.6-0.9c0.5,0,1,0.1,1.6,0.3c1.2,0.4,1.9,1.3,2.2,2c0.4-0.2,0.9-0.3,1.5-0.3
		c0.6,0,1.2,0.1,1.8,0.4c2,0.9,2.3,2.9,2.2,4.4c0.1,0,0.3,0,0.4,0c2.4,0,4.4,2,4.4,4.4c0,0.7-0.2,1.4-0.5,2.1c0.7,0.4,2.3,1.2,3.8,1
		c1.2-0.1,1.6-0.5,1.8-0.8c0.1-0.2,0.2-0.3,0.1-0.5l-3.1-3.5c0,0-0.5-0.5-0.3-0.7c0.2-0.2,0.5,0.1,0.7,0.3c1.6,1.3,3.5,3.3,3.5,3.3
		c0,0,0.2,0.3,0.9,0.4c0.6,0.1,1.7,0,2.5-0.6c0.2-0.2,0.4-0.4,0.5-0.6c0,0,0,0,0,0c0.8-1-0.1-2-0.1-2l-3.6-4.1c0,0-0.5-0.5-0.3-0.7
		c0.2-0.2,0.5,0.1,0.7,0.3c1.1,1,2.8,2.6,4.3,4.1c0.3,0.2,1.7,1.1,3.5-0.1c1.1-0.7,1.3-1.6,1.3-2.3c-0.1-0.9-0.8-1.5-0.8-1.5l-5-5
		c0,0-0.5-0.4-0.3-0.7c0.2-0.2,0.5,0.1,0.7,0.3c1.6,1.3,5.9,5.2,5.9,5.2c0.1,0,1.5,1.1,3.4-0.1c0.7-0.4,1.1-1,1.1-1.8
		C62.2,31,61.3,30.2,61.3,30.2">
  </path>
  <path class="st2" d="M37.3,36.5c-0.8,0-1.6,0.4-1.7,0.4c-0.1,0,0-0.3,0.1-0.5c0.1-0.2,1.1-3.2-1.4-4.3c-1.9-0.8-3,0.1-3.4,0.5
		c-0.1,0.1-0.2,0.1-0.2,0c0-0.5-0.3-2-1.9-2.5c-2.3-0.7-3.8,0.9-4.2,1.5c-0.2-1.3-1.3-2.4-2.7-2.4c-1.5,0-2.7,1.2-2.7,2.7
		c0,1.5,1.2,2.7,2.7,2.7c0.7,0,1.4-0.3,1.9-0.8c0,0,0,0,0,0.1C23.7,34.6,23.5,37,26,38c1,0.4,1.9,0.1,2.6-0.4
		c0.2-0.2,0.2-0.1,0.2,0.1c-0.1,0.6,0,2,1.9,2.7c1.4,0.6,2.3,0,2.8-0.5c0.2-0.2,0.3-0.2,0.3,0.2c0.1,1.8,1.6,3.2,3.4,3.2
		c1.9,0,3.4-1.5,3.4-3.4C40.7,38.1,39.2,36.6,37.3,36.5">
  </path>
  <path class="st0" d="M61.8,28.9c-3.8-3.3-12.7-11-15-12.8c-1.4-1-2.3-1.6-3.1-1.8c-0.4-0.1-0.9-0.2-1.5-0.2c-0.6,0-1.3,0.1-1.9,0.3
		c-1.5,0.5-3.1,1.7-4.6,2.9l-0.1,0.1c-1.4,1.1-2.8,2.2-3.9,2.5c-0.5,0.1-1,0.2-1.4,0.2c-1.2,0-2.3-0.4-2.7-0.9
		c-0.1-0.1,0-0.2,0.1-0.4l0,0L31,15c2.6-2.6,5.1-5.1,10.8-5.2c0.1,0,0.2,0,0.3,0c3.6,0,7.1,1.6,7.5,1.8C53,13.2,56.4,14,59.9,14
		c3.6,0,7.3-0.9,11.3-2.7c-0.4-0.4-0.9-0.7-1.4-1.1c-3.4,1.5-6.7,2.2-9.9,2.2c-3.2,0-6.5-0.8-9.6-2.3c-0.2-0.1-4.1-1.9-8.2-1.9
		c-0.1,0-0.2,0-0.3,0c-4.8,0.1-7.5,1.8-9.3,3.3c-1.8,0-3.3,0.5-4.7,0.9c-1.2,0.3-2.3,0.6-3.3,0.6c-0.4,0-1.2,0-1.2,0
		c-1.2,0-7.1-1.5-11.8-3.3c-0.5,0.3-0.9,0.7-1.4,1.1c4.9,2,10.9,3.6,12.8,3.7c0.5,0,1.1,0.1,1.6,0.1c1.2,0,2.5-0.3,3.7-0.7
		c0.7-0.2,1.5-0.4,2.3-0.6c-0.2,0.2-0.4,0.4-0.7,0.7l-3.4,3.7c-0.3,0.3-0.9,1-0.5,1.9c0.2,0.4,0.5,0.7,0.9,1
		c0.8,0.5,2.3,0.9,3.6,0.9c0.5,0,1,0,1.4-0.2c1.4-0.3,2.9-1.5,4.5-2.8c1.3-1,3.1-2.3,4.4-2.7c0.4-0.1,0.9-0.2,1.2-0.2
		c0.1,0,0.2,0,0.3,0c0.9,0.1,1.8,0.4,3.4,1.6c2.8,2.1,15.2,13,15.3,13.1c0,0,0.8,0.7,0.7,1.8c0,0.6-0.4,1.2-1,1.6
		c-0.5,0.3-1.1,0.5-1.6,0.5c-0.8,0-1.4-0.4-1.4-0.4c0,0-4.3-3.9-5.9-5.2c-0.2-0.2-0.5-0.4-0.7-0.4c-0.1,0-0.2,0.1-0.3,0.2
		c-0.2,0.3,0,0.7,0.4,1l5,5c0,0,0.6,0.6,0.7,1.3c0,0.8-0.4,1.5-1.2,2.1c-0.6,0.4-1.2,0.6-1.8,0.6c-0.8,0-1.3-0.3-1.4-0.4l-0.7-0.7
		c-1.3-1.3-2.6-2.6-3.6-3.4c-0.2-0.2-0.5-0.4-0.7-0.4c-0.1,0-0.2,0-0.3,0.1c-0.1,0.1-0.2,0.4,0.1,0.7c0.1,0.2,0.2,0.3,0.2,0.3
		l3.6,4.1c0,0,0.7,0.9,0.1,1.7l-0.1,0.2c-0.1,0.1-0.2,0.2-0.3,0.3c-0.6,0.5-1.4,0.6-1.8,0.6c-0.2,0-0.3,0-0.5,0
		c-0.4-0.1-0.6-0.2-0.7-0.3l0,0c-0.2-0.2-2-2.1-3.5-3.3c-0.2-0.2-0.4-0.4-0.7-0.4c-0.1,0-0.2,0-0.3,0.1c-0.3,0.3,0.2,0.8,0.3,1
		l3.1,3.4c0,0,0,0.1-0.1,0.2c-0.1,0.2-0.5,0.5-1.6,0.7c-0.1,0-0.3,0-0.4,0c-1.2,0-2.4-0.6-3-0.9c0.3-0.6,0.4-1.3,0.4-2
		c0-2.5-2.1-4.6-4.6-4.6c-0.1,0-0.1,0-0.2,0c0.1-1.2-0.1-3.4-2.3-4.3c-0.6-0.3-1.3-0.4-1.9-0.4c-0.5,0-1,0.1-1.4,0.3
		c-0.5-0.9-1.2-1.6-2.3-1.9c-0.6-0.2-1.1-0.3-1.7-0.3c-0.9,0-1.8,0.3-2.6,0.8c-0.7-0.9-1.9-1.5-3-1.5c-1,0-2,0.4-2.8,1.1
		c-1-0.7-4.8-3.2-15-5.5c-0.5-0.1-1.6-0.4-2.3-0.6c-0.1,0.6-0.2,1.1-0.3,1.7c0,0,1.9,0.5,2.3,0.5c10.4,2.3,13.9,4.7,14.5,5.2
		c-0.2,0.5-0.3,1-0.3,1.5c0,2.2,1.8,3.9,3.9,3.9c0.2,0,0.5,0,0.7-0.1c0.3,1.6,1.4,2.8,2.9,3.4c0.5,0.2,0.9,0.3,1.4,0.3
		c0.3,0,0.6,0,0.9-0.1c0.3,0.7,1,1.7,2.4,2.3c0.5,0.2,1,0.3,1.5,0.3c0.4,0,0.8-0.1,1.2-0.2c0.7,1.7,2.4,2.9,4.3,2.9
		c1.2,0,2.4-0.5,3.3-1.4c0.7,0.4,2.3,1.2,3.9,1.2c0.2,0,0.4,0,0.6,0c1.6-0.2,2.3-0.8,2.6-1.3c0.1-0.1,0.1-0.2,0.2-0.3
		c0.4,0.1,0.8,0.2,1.2,0.2c0.9,0,1.7-0.3,2.5-0.9c0.8-0.6,1.4-1.4,1.5-2.2c0,0,0,0,0,0c0.3,0.1,0.6,0.1,0.8,0.1
		c0.9,0,1.8-0.3,2.6-0.8c1.6-1.1,1.9-2.4,1.9-3.3c0.3,0.1,0.6,0.1,0.9,0.1c0.8,0,1.6-0.3,2.4-0.7c1-0.6,1.6-1.6,1.7-2.7
		c0.1-0.8-0.1-1.5-0.5-2.2c2.7-1.2,8.8-3.4,16.1-5c0-0.6-0.1-1.1-0.2-1.7C70,25.4,63.5,28.2,61.8,28.9 M37.3,43.1
		c-1.7,0-3.1-1.3-3.2-3c0-0.1,0-0.5-0.3-0.5c-0.1,0-0.2,0.1-0.4,0.2c-0.4,0.3-0.9,0.7-1.5,0.7c-0.3,0-0.7-0.1-1-0.2
		c-1.8-0.7-1.8-2-1.7-2.5c0-0.1,0-0.3-0.1-0.4l-0.1-0.1h-0.1c-0.1,0-0.2,0-0.3,0.1C28,37.8,27.5,38,27,38c-0.3,0-0.6-0.1-0.9-0.2
		c-2.4-0.9-2.2-3.2-2.1-3.8c0-0.1,0-0.2-0.1-0.3l-0.2-0.1l-0.2,0.2c-0.5,0.4-1.1,0.7-1.7,0.7c-1.4,0-2.5-1.1-2.5-2.5
		c0-1.4,1.1-2.5,2.5-2.5c1.2,0,2.3,0.9,2.4,2.1l0.1,0.7l0.4-0.6c0-0.1,1-1.6,2.9-1.6c0.3,0,0.7,0.1,1.1,0.2c1.5,0.4,1.7,1.8,1.7,2.3
		c0,0.3,0.3,0.3,0.3,0.3c0.1,0,0.2-0.1,0.3-0.1c0.3-0.3,0.9-0.8,1.8-0.8c0.4,0,0.9,0.1,1.4,0.3c2.3,1,1.3,3.9,1.3,4
		c-0.2,0.5-0.2,0.7,0,0.8l0.1,0h0.1c0.1,0,0.2,0,0.4-0.1c0.3-0.1,0.8-0.3,1.2-0.3h0c1.7,0,3.2,1.4,3.2,3.2
		C40.5,41.7,39.1,43.1,37.3,43.1">
  </path>
 </g>
</svg>