<svg xmlns="http://www.w3.org/2000/svg" version="1.1" xmlns:xlink="http://www.w3.org/1999/xlink" xmlns:svgjs="http://svgjs.com/svgjs" width="512" height="512" x="0" y="0" viewBox="0 0 512 512" style="enable-background:new 0 0 512 512" xml:space="preserve" class=""><g><path d="M512 203.06v-.045c0-.427-.024-.85-.059-1.271-.01-.115-.025-.229-.037-.344a15.13 15.13 0 0 0-.139-.981c-.021-.122-.042-.244-.066-.365a14.92 14.92 0 0 0-.282-1.172l-.031-.115a15.192 15.192 0 0 0-.401-1.163c-.056-.146-.118-.289-.179-.434a14.224 14.224 0 0 0-.35-.764c-.072-.146-.141-.293-.217-.437a15.366 15.366 0 0 0-.6-1.031c-.08-.125-.168-.245-.252-.368a14.775 14.775 0 0 0-.816-1.091 14.777 14.777 0 0 0-.825-.928l-.068-.07a14.93 14.93 0 0 0-.979-.9c-.042-.036-.078-.076-.121-.111L481 170.245v-65.229c0-19.299-15.701-35-35-35h-85.776l-69.1-57.345c-20.354-16.888-49.896-16.888-70.248 0l-69.1 57.344H66c-19.299 0-35 15.701-35 35v65.229L5.421 191.472c-.042.035-.079.075-.121.111a14.93 14.93 0 0 0-.979.9l-.068.07a15.1 15.1 0 0 0-.825.928c-.101.122-.198.247-.295.372-.181.235-.354.475-.521.719-.084.123-.172.243-.252.368-.214.335-.413.679-.6 1.031-.077.144-.146.291-.217.437-.124.251-.24.506-.35.764-.061.144-.123.288-.179.434-.148.382-.285.768-.401 1.163l-.031.115a14.92 14.92 0 0 0-.487 2.518c-.012.115-.027.229-.037.344-.034.419-.058.842-.058 1.269v253.98c0 15.718 6.638 29.906 17.246 39.939.301.301.603.599.925.87 9.757 8.814 22.676 14.19 36.829 14.19h402c14.154 0 27.074-5.377 36.832-14.193.319-.27.619-.565.918-.864 10.61-10.033 17.25-24.223 17.25-39.943V203.06zM66 100.015h380c2.757 0 5 2.243 5 5v116.682l-8.488 7.044-170.546 141.533c-9.251 7.677-22.681 7.676-31.932 0L69.488 228.742 61 221.697V105.015c0-2.757 2.243-5 5-5zm-36 356.98v-222.04l6.452 5.355.012.01 146.469 121.551L31.536 465.623A24.868 24.868 0 0 1 30 456.995zm176.937-75.204 13.939 11.568c20.352 16.89 49.896 16.889 70.248 0l13.939-11.568 146.22 100.204H60.716zm122.13-19.919L475.535 240.32l.012-.01 6.452-5.355v222.04c0 3.031-.543 5.938-1.536 8.628zM240.034 35.758c9.251-7.677 22.681-7.677 31.932 0l41.281 34.258H198.753z" fill="#5e72e4" data-original="#000000" class=""></path><path d="M131.5 164.995c0 8.284 6.716 15 15 15h142c8.284 0 15-6.716 15-15s-6.716-15-15-15h-142c-8.284 0-15 6.716-15 15zM146.5 239.995h219c6.988 0 12.843-4.786 14.509-11.254.309-1.2.491-2.45.491-3.746 0-8.284-6.716-15-15-15h-219c-8.284 0-15 6.716-15 15 0 1.296.182 2.547.491 3.746 1.666 6.469 7.521 11.254 14.509 11.254z" fill="#5e72e4" data-original="#000000" class=""></path></g></svg>