<svg xmlns="http://www.w3.org/2000/svg" version="1.1" xmlns:xlink="http://www.w3.org/1999/xlink" xmlns:svgjs="http://svgjs.com/svgjs" width="512" height="512" x="0" y="0" viewBox="0 0 442 442" style="enable-background:new 0 0 512 512" xml:space="preserve" class=""><g><path d="M171 336H70c-5.523 0-10 4.477-10 10s4.477 10 10 10h101c5.523 0 10-4.477 10-10s-4.477-10-10-10zM322 336H221c-5.523 0-10 4.477-10 10s4.477 10 10 10h101c5.522 0 10-4.477 10-10s-4.478-10-10-10zM322 86H70c-5.523 0-10 4.477-10 10s4.477 10 10 10h252c5.522 0 10-4.477 10-10s-4.478-10-10-10zM322 136H221c-5.523 0-10 4.477-10 10s4.477 10 10 10h101c5.522 0 10-4.477 10-10s-4.478-10-10-10zM322 186H221c-5.523 0-10 4.477-10 10s4.477 10 10 10h101c5.522 0 10-4.477 10-10s-4.478-10-10-10zM322 236H221c-5.523 0-10 4.477-10 10s4.477 10 10 10h101c5.522 0 10-4.477 10-10s-4.478-10-10-10zM322 286H221c-5.523 0-10 4.477-10 10s4.477 10 10 10h101c5.522 0 10-4.477 10-10s-4.478-10-10-10zM171 286H70c-5.523 0-10 4.477-10 10s4.477 10 10 10h101c5.523 0 10-4.477 10-10s-4.477-10-10-10zM171 136H70c-5.523 0-10 4.477-10 10v101c0 5.523 4.477 10 10 10h101c5.523 0 10-4.477 10-10V146c0-5.523-4.477-10-10-10zm-10 101H80v-81h81v81z" fill="#5e72e4" data-original="#000000"></path><path d="M422 76h-30V46c0-11.028-8.972-20-20-20H20C8.972 26 0 34.972 0 46v320c0 27.57 22.43 50 50 50h342c27.57 0 50-22.43 50-50V96c0-11.028-8.972-20-20-20zm0 290c0 16.542-13.458 30-30 30H50c-16.542 0-30-13.458-30-30V46h352v305c0 13.785 11.215 25 25 25 5.522 0 10-4.477 10-10s-4.478-10-10-10c-2.757 0-5-2.243-5-5V96h30v270z" fill="#5e72e4" data-original="#000000"></path></g></svg>