<svg xmlns="http://www.w3.org/2000/svg" version="1.1" xmlns:xlink="http://www.w3.org/1999/xlink" xmlns:svgjs="http://svgjs.com/svgjs" width="512" height="512" x="0" y="0" viewBox="0 0 512 512" style="enable-background:new 0 0 512 512" xml:space="preserve" class=""><g><path d="M490 383.257h-71.345c-21.529 0-36.934 6.18-51.83 12.157-15.69 6.295-30.51 12.241-53.896 12.241h-59.784a43.248 43.248 0 0 0 5.721-21.531c0-12.928-5.671-24.551-14.649-32.531 8.978-7.98 14.649-19.603 14.649-32.531s-5.671-24.551-14.649-32.531c8.978-7.98 14.649-19.603 14.649-32.531 0-24.003-19.528-43.531-43.531-43.531H43.531C31.659 212.469 22 202.81 22 190.938s9.659-21.531 21.531-21.531h204.934c5.655 12.079 20.269 33.669 54.175 40.45 5.959 1.192 11.752-2.673 12.943-8.629 1.191-5.957-2.672-11.752-8.629-12.944-32.471-6.494-39.826-30.917-40.292-32.587-1.166-4.969-5.553-8.29-10.662-8.29h-56.93c-16.356 0-29.664-13.307-29.664-29.664v-13.398H312.93c20.734 0 34.928 15.186 49.955 31.264 15.53 16.616 31.59 33.798 55.771 33.798H490v-22h-71.345c-14.63 0-26.247-12.429-39.698-26.821-16.753-17.925-35.742-38.241-66.027-38.241H158.407c-6.075 0-11 4.925-11 11v24.398c0 11.034 3.488 21.262 9.403 29.664H43.531C19.528 147.406 0 166.935 0 190.938s19.528 43.531 43.531 43.531h68.933A43.248 43.248 0 0 0 106.743 256c0 12.928 5.671 24.551 14.649 32.531-8.978 7.98-14.649 19.603-14.649 32.531 0 19.721 13.186 36.41 31.201 41.742a43.26 43.26 0 0 0-6.802 23.321c0 24.003 19.528 43.531 43.531 43.531H312.93c27.635 0 45.938-7.344 62.087-13.823 14.144-5.674 26.357-10.575 43.639-10.575H490zm-274.664 24.399h-40.664c-11.873 0-21.531-9.659-21.531-21.531s9.659-21.531 21.531-21.531h40.664c11.873 0 21.531 9.659 21.531 21.531s-9.659 21.531-21.531 21.531zm0-65.062h-65.062c-11.873 0-21.531-9.659-21.531-21.531s9.659-21.531 21.531-21.531h65.062c11.873 0 21.531 9.659 21.531 21.531s-9.659 21.531-21.531 21.531zm0-65.063h-65.062c-11.873 0-21.531-9.659-21.531-21.531s9.659-21.531 21.531-21.531h65.062c11.873 0 21.531 9.659 21.531 21.531s-9.659 21.531-21.531 21.531z" fill="#5e72e4" data-original="#000000" class=""></path><path fill="#5e72e4" d="M501 423.788c-6.075 0-11-4.925-11-11V136.274c0-6.075 4.925-11 11-11s11 4.925 11 11v276.514c0 6.076-4.925 11-11 11z" data-original="#33cccc" class=""></path></g></svg>