<svg xmlns="http://www.w3.org/2000/svg" version="1.1" xmlns:xlink="http://www.w3.org/1999/xlink" xmlns:svgjs="http://svgjs.com/svgjs" width="512" height="512" x="0" y="0" viewBox="0 0 48 48" style="enable-background:new 0 0 512 512" xml:space="preserve" class=""><g><g fill-rule="nonzero" stroke-linecap="butt" stroke-linejoin="miter" clip-rule="nonzero"><path fill="#5e72e4" d="M14.732 2.002c-2.288-.067-4.707.889-6.636 2.818-4.263 4.263-6.211 10.856-6.09 17.383.12 6.528 2.312 13.057 6.695 17.19 5.154 4.859 12.95 7.298 19.574 6.441 3.312-.429 6.358-1.71 8.54-4.025 2.18-2.317 3.433-5.647 3.267-9.905-.171-4.409-1.39-7.325-3.26-9.185-1.37-1.365-3.032-2.116-4.732-2.567L45.268 6.975a2.515 2.515 0 0 0 0-3.536l-.707-.707c-.484-.484-1.126-.726-1.768-.726s-1.284.242-1.768.726L26.16 17.598c-1.251.228-2.293.64-3.142 1.177-.957-.289-1.585-.683-1.944-1.347-.406-.753-.559-2.073-.006-4.338.827-3.383.431-6.13-.82-8.06-1.251-1.932-3.332-2.964-5.516-3.028zm28.061 1.992c.126 0 .252.05.353.152l.708.708a.486.486 0 0 1 0 .707L29.469 19.945l-1.414-1.414L42.439 4.146a.498.498 0 0 1 .354-.152zm-28.12.008c1.613.047 3.01.746 3.897 2.115.887 1.37 1.29 3.494.557 6.496-.615 2.516-.566 4.371.186 5.764.473.878 1.2 1.48 2.039 1.897a6.11 6.11 0 0 0-.745 1.22c-.864 1.893-.802 3.967-.617 5.633a1 1 0 0 0 1.594.69c1.084-.813 2.409-.658 4.137-1.065.864-.203 1.806-.603 2.627-1.41.781-.769 1.44-1.871 1.988-3.436l.078-.078c1.924.356 3.669.986 4.998 2.309 1.444 1.437 2.511 3.763 2.67 7.846.15 3.836-.927 6.548-2.723 8.455s-4.375 3.028-7.34 3.412c-5.93.767-13.294-1.527-17.947-5.914-3.852-3.632-5.953-9.67-6.066-15.77-.113-6.099 1.763-12.19 5.504-15.931 1.572-1.572 3.476-2.282 5.164-2.233zm11.694 15.67 1.877 1.877c-.423 1.054-.864 1.94-1.299 2.367-.527.52-1.043.739-1.681.889-.898.211-2.095.353-3.325.767-.025-1.139.05-2.29.487-3.248.566-1.239 1.691-2.192 3.941-2.652z" data-original="#3b3b3b" class=""></path><g fill="#5095d4"><path d="M12.611 8c-2.197 0-4 1.803-4 4s1.803 4 4 4 4-1.803 4-4-1.802-4-4-4zm0 2c1.117 0 2 .884 2 2s-.883 2-2 2-2-.884-2-2 .884-2 2-2zM9.611 17c-2.197 0-4 1.803-4 4s1.803 4 4 4 4-1.803 4-4-1.802-4-4-4zm0 2c1.117 0 2 .884 2 2s-.883 2-2 2-2-.884-2-2 .884-2 2-2zM12.611 26c-2.197 0-4 1.803-4 4s1.803 4 4 4 4-1.803 4-4-1.802-4-4-4zm0 2c1.117 0 2 .884 2 2s-.883 2-2 2-2-.884-2-2 .884-2 2-2zM19.611 33c-2.197 0-4 1.803-4 4s1.803 4 4 4 4-1.803 4-4-1.802-4-4-4zm0 2c1.117 0 2 .884 2 2s-.883 2-2 2-2-.884-2-2 .884-2 2-2zM29.611 33c-2.197 0-4 1.803-4 4s1.803 4 4 4 4-1.803 4-4-1.802-4-4-4zm0 2c1.117 0 2 .884 2 2s-.883 2-2 2-2-.884-2-2 .884-2 2-2z" fill="#5095d4" data-original="#5095d4" class=""></path></g></g></g></svg>