<?xml version="1.0" standalone="no"?>
<!DOCTYPE svg PUBLIC "-//W3C//DTD SVG 20010904//EN"
 "http://www.w3.org/TR/2001/REC-SVG-20010904/DTD/svg10.dtd">
<svg version="1.0" xmlns="http://www.w3.org/2000/svg"
 width="256.000000pt" height="256.000000pt" viewBox="0 0 256.000000 256.000000"
 preserveAspectRatio="xMidYMid meet">

<g transform="translate(0.000000,256.000000) scale(0.100000,-0.100000)"
fill="#000000" stroke="none">
<path d="M889 2333 c-29 -5 -102 -62 -122 -96 -9 -16 -13 -157 -17 -552 l-5
-530 -195 -5 c-207 -5 -230 -10 -275 -57 -53 -55 -55 -68 -55 -398 0 -330 2
-346 54 -398 62 -62 62 -62 401 -62 353 0 359 1 423 84 l32 43 0 198 0 199
528 3 c424 2 532 6 552 17 47 25 80 65 100 118 19 52 20 77 20 656 -1 643 -1
638 -51 711 -50 74 -20 71 -729 72 -349 1 -647 -1 -661 -3z m1143 -280 c17
-15 18 -38 18 -314 0 -296 0 -298 -22 -313 -31 -22 -65 -20 -86 4 -14 18 -18
49 -22 210 l-5 190 -650 -651 c-357 -357 -663 -657 -678 -665 -48 -26 -97 4
-97 59 0 29 64 96 662 694 l663 663 -188 0 c-186 0 -188 0 -212 25 -14 13 -25
31 -25 40 0 20 19 57 34 67 6 4 141 8 300 8 255 0 292 -2 308 -17z"/>
</g>
</svg>
