<svg xmlns="http://www.w3.org/2000/svg" version="1.1" xmlns:xlink="http://www.w3.org/1999/xlink" xmlns:svgjs="http://svgjs.com/svgjs" width="512" height="512" x="0" y="0" viewBox="0 0 500 500" style="enable-background:new 0 0 512 512" xml:space="preserve" class=""><g><path d="M143.914 108.054a7.5 7.5 0 0 0 7.5-7.5v-32.07c0-5.565 4.527-10.091 10.09-10.091h153.133c5.564 0 10.09 4.526 10.09 10.09v81.733a7.5 7.5 0 1 0 15 0V68.483c0-13.835-11.255-25.09-25.09-25.09H161.505c-13.835 0-25.09 11.256-25.09 25.09v32.071a7.5 7.5 0 0 0 7.5 7.5z" fill="#5e72e4" data-original="#000000" class=""></path><path d="M240.79 87.17c-.27-.41-.58-.8-.93-1.14a7.525 7.525 0 0 0-5.3-2.2c-1.98 0-3.91.8-5.3 2.2a7.427 7.427 0 0 0-1.63 2.43c-.19.45-.33.93-.43 1.41a7.508 7.508 0 0 0 7.36 8.96 7.508 7.508 0 0 0 7.5-7.5 7.655 7.655 0 0 0-.58-2.87 6.94 6.94 0 0 0-.69-1.29z" fill="#5e72e4" data-original="#000000" class=""></path><path fill="#2475ff" d="M171.846 281.936c0-8.429-3.64-16.023-9.432-21.294 5.791-5.27 9.432-12.864 9.432-21.293 0-8.429-3.64-16.023-9.432-21.294 5.791-5.27 9.432-12.865 9.432-21.293 0-8.43-3.64-16.024-9.432-21.294 5.791-5.27 9.432-12.864 9.432-21.293 0-15.877-12.916-28.794-28.793-28.794h-12.15c-15.877 0-28.793 12.917-28.793 28.794 0 8.429 3.64 16.023 9.432 21.293-5.791 5.27-9.432 12.865-9.432 21.294s3.64 16.023 9.432 21.294c-5.791 5.27-9.432 12.864-9.432 21.293s3.64 16.023 9.432 21.294c-5.791 5.27-9.432 12.864-9.432 21.293 0 15.877 12.916 28.794 28.793 28.794h12.15c15.877 0 28.793-12.917 28.793-28.794zM117.11 154.175c0-7.606 6.188-13.794 13.793-13.794h12.15c7.605 0 13.793 6.188 13.793 13.794s-6.188 13.793-13.793 13.793h-12.15c-7.605 0-13.793-6.187-13.793-13.793zm0 42.587c0-7.606 6.188-13.794 13.793-13.794h12.15c7.605 0 13.793 6.188 13.793 13.794s-6.188 13.794-13.793 13.794h-12.15c-7.605 0-13.793-6.188-13.793-13.794zm0 42.587c0-7.606 6.188-13.793 13.793-13.793h12.15c7.605 0 13.793 6.187 13.793 13.793s-6.188 13.794-13.793 13.794h-12.15c-7.605 0-13.793-6.188-13.793-13.794zm0 42.587c0-7.606 6.188-13.793 13.793-13.793h12.15c7.605 0 13.793 6.187 13.793 13.793s-6.188 13.793-13.793 13.793h-12.15c-7.605 0-13.793-6.187-13.793-13.793z" data-original="#2475ff" class=""></path><path d="M373.072 391.028c19.54-27.113 27.78-60.989 23.858-98.344-2.65-25.246-9.973-44.356-12.243-49.813v-60.174a7.5 7.5 0 0 0-6.247-7.394c-13.516-2.291-25.307-.098-35.036 6.523-11.305 7.694-18.054 20.702-18.054 34.798v62.627c-22.332 11.346-37.247 31.698-43.266 59.163a118.312 118.312 0 0 0-.64 3.149h-130.03v-7.594a7.5 7.5 0 1 0-15 0v33.659c0 13.835 11.256 25.09 25.09 25.09h16.835c2.747 10.155 14.386 39.78 58.327 51.378l4.919 8.702a7.498 7.498 0 0 0 10.22 2.839 7.5 7.5 0 0 0 2.838-10.22l-6.504-11.508a7.502 7.502 0 0 0-4.812-3.61c-33.86-7.967-45.477-27.73-49.246-37.58h58.04a7.5 7.5 0 1 0 0-15h-90.616c-5.565 0-10.09-4.527-10.09-10.091v-11.066h128.092c-.901 12.815.302 21.941.376 22.479a7.494 7.494 0 0 0 8.436 6.409c4.1-.556 6.976-4.332 6.427-8.433-.022-.166-2.17-16.797 2.084-35.815 5.48-24.5 18.608-41.43 39.016-50.322a7.5 7.5 0 0 0 4.504-6.876v-67.38c0-9.127 4.297-17.5 11.494-22.398 4.969-3.382 10.949-4.98 17.844-4.772v54.957c0 1.06.228 2.117.664 3.084.089.198 8.94 20.115 11.708 47.218 3.643 35.67-4.415 66.374-23.953 91.261a7.5 7.5 0 0 0-.489 8.563l13.278 21.574a7.495 7.495 0 0 0 10.318 2.457 7.5 7.5 0 0 0 2.457-10.318z" fill="#5e72e4" data-original="#000000" class=""></path></g></svg>