<svg xmlns="http://www.w3.org/2000/svg" version="1.1" xmlns:xlink="http://www.w3.org/1999/xlink" xmlns:svgjs="http://svgjs.com/svgjs" width="512" height="512" x="0" y="0" viewBox="0 0 50 51" style="enable-background:new 0 0 512 512" xml:space="preserve" class=""><g><g fill-rule="evenodd" clip-rule="evenodd"><path fill="#5e72e4" d="M13.434 4.085h.216c1.872 0 3.433 0 4.672.166 1.308.176 2.489.563 3.438 1.512s1.335 2.13 1.511 3.438c.167 1.239.167 2.8.167 4.671v.217c0 1.872 0 3.433-.167 4.672-.176 1.308-.563 2.489-1.511 3.438s-2.13 1.335-3.438 1.511c-1.24.167-2.8.167-4.672.167h-.217c-1.871 0-3.432 0-4.671-.167-1.308-.176-2.49-.563-3.438-1.511-.949-.95-1.336-2.13-1.512-3.438-.166-1.24-.166-2.8-.166-4.672v-.217c0-1.871 0-3.432.166-4.671.176-1.308.563-2.49 1.512-3.438.949-.949 2.13-1.336 3.438-1.512 1.239-.166 2.8-.166 4.671-.166zM9.178 7.349c-.961.129-1.373.352-1.644.624-.272.271-.495.683-.624 1.644-.136 1.006-.139 2.355-.139 4.364s.003 3.357.139 4.364c.129.96.352 1.372.624 1.644.271.271.683.495 1.644.624 1.006.135 2.356.139 4.364.139s3.357-.004 4.364-.139c.961-.13 1.372-.353 1.644-.624s.495-.683.624-1.644c.135-1.007.139-2.356.139-4.364s-.004-3.358-.139-4.364c-.13-.961-.353-1.373-.624-1.644s-.683-.495-1.644-.624c-1.007-.136-2.356-.139-4.364-.139s-3.358.003-4.364.139zM36.35 27.002h.217c1.872 0 3.432 0 4.672.166 1.307.176 2.488.563 3.437 1.512s1.336 2.13 1.512 3.438c.166 1.239.166 2.8.166 4.672v.216c0 1.872 0 3.433-.166 4.672-.176 1.308-.563 2.489-1.512 3.438s-2.13 1.335-3.437 1.511c-1.24.167-2.8.167-4.672.167h-.217c-1.872 0-3.433 0-4.672-.167-1.308-.176-2.489-.562-3.438-1.511s-1.335-2.13-1.511-3.438c-.167-1.24-.167-2.8-.167-4.672v-.216c0-1.872 0-3.433.167-4.672.176-1.308.563-2.49 1.512-3.438s2.13-1.336 3.437-1.512c1.24-.166 2.8-.166 4.672-.166zm-4.255 3.264c-.962.129-1.373.352-1.645.624-.271.271-.495.683-.624 1.644-.135 1.006-.139 2.355-.139 4.364 0 2.008.004 3.357.14 4.364.128.96.352 1.372.623 1.644.272.271.683.495 1.645.624 1.006.135 2.355.139 4.363.139 2.009 0 3.358-.004 4.364-.139.961-.13 1.373-.353 1.644-.624s.495-.683.625-1.644c.135-1.007.138-2.356.138-4.364 0-2.009-.003-3.358-.138-4.364-.13-.961-.353-1.373-.625-1.644s-.683-.495-1.644-.624c-1.006-.136-2.355-.139-4.364-.139-2.008 0-3.357.003-4.363.139z" data-original="#999999"></path><g fill="#222"><path d="M13.434 27.002h.216c1.872 0 3.433 0 4.672.166 1.308.176 2.489.563 3.438 1.512s1.335 2.13 1.511 3.438c.167 1.239.167 2.8.167 4.672v.216c0 1.872 0 3.433-.167 4.672-.176 1.308-.563 2.489-1.511 3.438s-2.13 1.335-3.438 1.511c-1.24.167-2.8.167-4.672.167h-.217c-1.871 0-3.432 0-4.671-.167-1.308-.176-2.49-.562-3.438-1.511-.949-.95-1.336-2.13-1.512-3.438-.166-1.24-.166-2.8-.166-4.672v-.216c0-1.872 0-3.433.166-4.672.176-1.308.563-2.49 1.512-3.438.949-.949 2.13-1.336 3.438-1.512 1.239-.166 2.8-.166 4.671-.166zm-4.256 3.264c-.961.129-1.373.352-1.644.624-.272.271-.495.683-.624 1.644-.136 1.006-.139 2.355-.139 4.364 0 2.008.003 3.357.139 4.364.129.96.352 1.372.624 1.644.271.271.683.495 1.644.624 1.006.135 2.356.139 4.364.139s3.357-.004 4.364-.139c.961-.13 1.372-.353 1.644-.624s.495-.683.624-1.644c.135-1.007.139-2.356.139-4.364 0-2.009-.004-3.358-.139-4.364-.13-.961-.353-1.373-.624-1.644s-.683-.495-1.644-.624c-1.007-.136-2.356-.139-4.364-.139s-3.358.003-4.364.139zM36.35 4.085h.217c1.872 0 3.432 0 4.672.166 1.307.176 2.488.563 3.437 1.512s1.336 2.13 1.512 3.438c.166 1.239.166 2.8.166 4.671v.217c0 1.872 0 3.433-.166 4.672-.176 1.308-.563 2.489-1.512 3.438s-2.13 1.335-3.437 1.511c-1.24.167-2.8.167-4.672.167h-.217c-1.872 0-3.433 0-4.672-.167-1.308-.176-2.489-.563-3.438-1.511s-1.335-2.13-1.511-3.438c-.167-1.24-.167-2.8-.167-4.672v-.217c0-1.871 0-3.432.167-4.671.176-1.308.563-2.49 1.512-3.438s2.13-1.336 3.437-1.512c1.24-.166 2.8-.166 4.672-.166zm-4.255 3.264c-.962.129-1.373.352-1.645.624-.271.271-.495.683-.624 1.644-.135 1.006-.139 2.355-.139 4.364s.004 3.357.14 4.364c.128.96.352 1.372.623 1.644.272.271.683.495 1.645.624 1.006.135 2.355.139 4.363.139 2.009 0 3.358-.004 4.364-.139.961-.13 1.373-.353 1.644-.624s.495-.683.625-1.644c.135-1.007.138-2.356.138-4.364s-.003-3.358-.138-4.364c-.13-.961-.353-1.373-.625-1.644s-.683-.495-1.644-.624c-1.006-.136-2.355-.139-4.364-.139-2.008 0-3.357.003-4.363.139z" fill="#5e72e4" data-original="#222222" class=""></path></g></g></g></svg>