<svg id="Capa_1" enable-background="new 0 0 512 512" height="512" viewBox="0 0 512 512" width="512" xmlns="http://www.w3.org/2000/svg"><g><path d="m144.402 196.3c-5.359-14.43-27.539-14.173-32.564.372l-41.856 109.896c-6.901 18.37 20.98 28.974 28.035 10.678l6.745-17.709h46.542l6.667 17.666c7.11 18.389 34.896 7.72 28.068-10.592l-41.475-109.902c-.051-.137-.105-.273-.162-.409zm-28.214 73.237 11.952-31.381 11.843 31.381z"/><path d="m428 215.95c8.284 0 15-6.716 15-15s-6.716-15-15-15h-46.539c-8.284 0-15 6.716-15 15v110.449c0 8.284 6.716 15 15 15h46.539c8.284 0 15-6.716 15-15s-6.716-15-15-15h-31.539v-25.225h28.107c8.284 0 15-6.716 15-15s-6.716-15-15-15h-28.107v-25.224z"/><path d="m274.578 215.093c8.164 0 16.036 2.402 22.764 6.948 6.865 4.637 16.189 2.833 20.827-4.032 4.638-6.864 2.832-16.188-4.032-20.826-11.707-7.909-25.386-12.089-39.559-12.089-39.003 0-70.733 31.731-70.733 70.733s31.73 70.733 70.733 70.733c37.159 0 63.111-29.086 63.111-70.733 0-8.284-6.716-15-15-15h-33.345c-8.284 0-15 6.716-15 15s6.716 15 15 15h16.423c-3.72 13.801-13.167 25.733-31.189 25.733-22.461 0-40.733-18.273-40.733-40.733 0-22.461 18.272-40.734 40.733-40.734z"/><path d="m497 241c-8.284 0-15 6.716-15 15 0 60.367-23.508 117.12-66.194 159.806s-99.44 66.194-159.806 66.194-117.12-23.508-159.806-66.194-66.194-99.439-66.194-159.806 23.508-117.12 66.194-159.806 99.44-66.194 159.806-66.194c30.273 0 59.642 5.879 87.292 17.475 15.787 6.616 30.755 15.016 44.658 25.039l-19.883 2.505c-19.514 2.557-15.636 32.172 3.75 29.765l53.661-6.76c7.985-.661 14.332-8.288 13.494-16.263l-4.781-53.842c-.733-8.252-8.02-14.351-16.269-13.615-8.251.733-14.347 8.017-13.614 16.268l1.589 17.895c-15.858-11.48-32.961-21.096-51.007-28.659-31.34-13.144-64.612-19.808-98.89-19.808-68.38 0-132.667 26.629-181.019 74.981s-74.981 112.639-74.981 181.019 26.629 132.667 74.981 181.019 112.639 74.981 181.019 74.981 132.667-26.629 181.019-74.981 74.981-112.639 74.981-181.019c0-8.284-6.716-15-15-15z"/></g></svg>