<svg height="512pt" viewBox="-64 0 511 512" width="512pt" xmlns="http://www.w3.org/2000/svg"><path d="m198.941406 194.382812c-5.082031-2.539062-11.164062-1.992187-15.707031 1.417969l-60.269531 45.199219h-27.132813c-17.128906 0-31.066406 13.9375-31.066406 31.066406v40.167969c0 17.128906 13.9375 31.066406 31.066406 31.066406h27.832031l60.617188 37.886719c6.257812 3.910156 12.445312 1.9375 15.222656.398438 4.769532-2.644532 7.730469-7.667969 7.730469-13.121094v-160.664063c0-5.683593-3.210937-10.875-8.292969-13.417969zm-21.707031 147.019532-41.316406-25.824219c-2.386719-1.488281-5.140625-2.277344-7.949219-2.277344h-32.136719c-.585937 0-1.066406-.480469-1.066406-1.066406v-40.167969c0-.585937.480469-1.066406 1.066406-1.066406h32.132813c3.246094 0 6.40625-1.050781 9-3l40.269531-30.199219zm0 0"/><path d="m262.222656 180.871094c-6 5.714844-6.230468 15.207031-.519531 21.207031 45.957031 48.257813 45.957031 123.855469 0 172.109375-5.714844 6-5.480469 15.492188.519531 21.207031 2.902344 2.765625 6.625 4.136719 10.339844 4.136719 3.960938 0 7.917969-1.558594 10.867188-4.652344 57.003906-59.855468 57.003906-153.632812 0-213.488281-5.714844-6-15.210938-6.230469-21.207032-.519531zm0 0"/><path d="m252.441406 233.238281c-.15625-.210937-.320312-.417969-.488281-.617187-.003906-.003906-.003906-.003906-.007813-.007813 0 0 0-.003906-.003906-.003906-2.75-3.289063-6.886718-5.382813-11.507812-5.382813-8.285156 0-15 6.71875-15 15 0 3.3125 1.097656 6.496094 3.058594 9.078126 16.222656 21.695312 16.222656 51.957031 0 73.65625-1.960938 2.578124-3.058594 5.761718-3.058594 9.074218 0 8.285156 6.714844 15 15 15 4.644531 0 8.800781-2.109375 11.550781-5.429687.003906-.003907.003906-.003907.007813-.007813v-.003906c.15625-.183594.304687-.375.449218-.566406 11.96875-15.960938 18.296875-34.941406 18.296875-54.894532 0-19.949218-6.328125-38.933593-18.296875-54.894531zm0 0"/><path d="m336.832031 0h-224.933593c-3.976563 0-7.792969 1.582031-10.605469 4.394531l-96.398438 96.398438c-2.8125 2.8125-4.394531 6.628906-4.394531 10.605469v353.46875c0 25.988281 21.144531 47.132812 47.132812 47.132812h289.199219c25.914063 0 47.132813-20.953125 47.132813-47.132812v-417.734376c0-25.914062-20.949219-47.132812-47.132813-47.132812zm-223.867187 35.144531v60.1875c0 9.449219-7.683594 17.132813-17.132813 17.132813h-60.1875zm241 429.722657c0 9.332031-7.542969 17.132812-17.132813 17.132812h-289.199219c-9.445312 0-17.132812-7.6875-17.132812-17.132812v-322.398438h65.332031c25.988281 0 47.132813-21.144531 47.132813-47.132812v-65.335938h193.867187c9.332031 0 17.132813 7.546875 17.132813 17.132812zm0 0"/></svg>