<svg clip-rule="evenodd" fill-rule="evenodd" height="512" stroke-linejoin="round" stroke-miterlimit="2" viewBox="0 0 32 32" width="512" xmlns="http://www.w3.org/2000/svg"><g transform="translate(-74)"><g id="line"><path d="m89 10.838v1.162h-8c-.796 0-1.559.316-2.121.879-.563.562-.879 1.325-.879 2.121v13h-1c-.552 0-1 .448-1 1s.448 1 1 1h26c.552 0 1-.448 1-1s-.448-1-1-1h-1v-13c0-.796-.316-1.559-.879-2.121-.562-.563-1.325-.879-2.121-.879h-8v-1.162c1.251-.419 2.154-1.601 2.154-2.992 0-.535-.212-1.291-.544-2.078-.663-1.565-1.766-3.304-1.766-3.304-.183-.289-.502-.464-.844-.464s-.661.175-.844.464c0 0-1.103 1.739-1.766 3.304-.332.787-.544 1.543-.544 2.078 0 1.391.903 2.573 2.154 2.992zm11 11.696-5.006-3.345c-.369-.247-.857-.221-1.197.064l-2.351 1.966c-1.114.931-2.735.931-3.849 0l-2.327-1.947c-.346-.289-.843-.311-1.213-.053l-4.057 2.828v5.953h20zm0-2.405v-5.129c0-.265-.105-.52-.293-.707-.187-.188-.442-.293-.707-.293h-18c-.265 0-.52.105-.707.293-.188.187-.293.442-.293.707v4.609l2.913-2.031c1.111-.774 2.602-.708 3.64.16l2.327 1.947c.372.31.912.31 1.283-.001 0 0 2.351-1.965 2.351-1.965 1.021-.855 2.484-.933 3.591-.193zm-10-15.146c.164.302.335.63.494.962.339.706.66 1.424.66 1.901 0 .637-.517 1.154-1.154 1.154s-1.154-.517-1.154-1.154c0-.477.321-1.195.66-1.901.159-.332.33-.66.494-.962z"/></g></g></svg>