<?xml version="1.0" encoding="iso-8859-1"?>
<!-- Generator: Adobe Illustrator 19.0.0, SVG Export Plug-In . SVG Version: 6.00 Build 0)  -->
<svg version="1.1" id="Layer_1" xmlns="http://www.w3.org/2000/svg" xmlns:xlink="http://www.w3.org/1999/xlink" x="0px" y="0px"
	 viewBox="0 0 512 512" style="enable-background:new 0 0 512 512;" xml:space="preserve">
<path style="fill:#90DEA9;" d="M240.039,19.896c8.791,5.829,23.176,5.829,31.954,0l23.214-15.424
	c8.786-5.837,20.593-3.318,26.243,5.591l14.932,23.549c5.65,8.904,18.783,14.751,29.181,12.992l27.484-4.657
	c10.401-1.761,20.175,5.332,21.706,15.767l4.076,27.533c1.546,10.437,11.156,21.138,21.376,23.77l26.97,6.956
	c10.222,2.642,16.256,13.117,13.417,23.276l-7.47,26.767c-2.836,10.158,1.6,23.841,9.866,30.4l21.893,17.367
	c8.264,6.559,9.518,18.568,2.793,26.701L489.9,261.939c-6.723,8.125-8.225,22.426-3.343,31.775l12.908,24.676
	c4.884,9.354,1.16,20.844-8.289,25.533l-24.968,12.393c-9.449,4.692-16.632,17.149-15.974,27.676l1.725,27.794
	c0.668,10.522-7.424,19.51-17.969,19.96l-27.832,1.178c-10.537,0.451-22.167,8.909-25.851,18.801l-9.682,26.084
	c-3.684,9.894-14.717,14.815-24.525,10.934l-25.93-10.25c-9.802-3.884-23.869-0.896-31.252,6.643l-19.474,19.891
	c-7.386,7.534-19.461,7.534-26.852,0.01l-19.505-19.904c-7.388-7.532-21.455-10.519-31.263-6.638l-25.917,10.25
	c-9.807,3.884-20.841-1.037-24.517-10.934l-9.705-26.084c-3.679-9.889-15.309-18.35-25.851-18.801l-27.822-1.178
	c-10.545-0.451-18.627-9.439-17.969-19.96l1.741-27.794c0.655-10.524-6.538-22.984-15.985-27.676l-24.96-12.393
	c-9.446-4.69-13.181-16.177-8.294-25.533l12.908-24.676c4.884-9.349,3.382-23.649-3.351-31.767L4.327,240.466
	c-6.728-8.12-5.468-20.129,2.793-26.688l21.898-17.367c8.261-6.559,12.703-20.234,9.869-30.397l-7.488-26.778
	c-2.836-10.158,3.2-20.626,13.412-23.252l26.99-6.971c10.212-2.629,19.835-13.33,21.376-23.767l4.073-27.533
	c1.544-10.435,11.313-17.528,21.711-15.767l27.487,4.657c10.401,1.759,23.532-4.088,29.174-12.992l14.925-23.549
	c5.642-8.909,17.457-11.428,26.25-5.591L240.039,19.896z"/>
<path style="fill:#71BF8C;" d="M421.65,256.279c0,91.487-74.171,165.65-165.65,165.65c-91.474,0-165.645-74.163-165.645-165.65
	c0-91.459,74.168-165.624,165.645-165.624C347.479,90.655,421.65,164.82,421.65,256.279z"/>
<polygon style="fill:#FFFFFF;" points="228.383,333.66 162.079,267.353 184.169,245.253 228.383,289.459 327.834,189.995 
	349.924,212.103 "/>
<g>
</g>
<g>
</g>
<g>
</g>
<g>
</g>
<g>
</g>
<g>
</g>
<g>
</g>
<g>
</g>
<g>
</g>
<g>
</g>
<g>
</g>
<g>
</g>
<g>
</g>
<g>
</g>
<g>
</g>
</svg>
