<svg xmlns="http://www.w3.org/2000/svg" version="1.1" xmlns:xlink="http://www.w3.org/1999/xlink" xmlns:svgjs="http://svgjs.com/svgjs" width="512" height="512" x="0" y="0" viewBox="0 0 24 24" style="enable-background:new 0 0 512 512" xml:space="preserve" class=""><g><path fill="#5e72e4" fill-rule="evenodd" d="M6 2a1 1 0 0 1 1 1v11.8c0 .577 0 .949.024 1.232.022.272.06.372.085.422a1 1 0 0 0 .437.437c.05.025.15.063.422.085C8.25 17 8.623 17 9.2 17H15a1 1 0 1 1 0 2H9.161c-.527 0-.981 0-1.356-.03-.395-.033-.789-.104-1.167-.297a3 3 0 0 1-1.311-1.311c-.193-.378-.264-.772-.296-1.167A17.9 17.9 0 0 1 5 14.839V7H3a1 1 0 0 1 0-2h2V3a1 1 0 0 1 1-1zm10.032 5.024C15.75 7 15.377 7 14.8 7H9a1 1 0 0 1 0-2h5.838c.528 0 .983 0 1.357.03.395.033.789.104 1.167.297a3 3 0 0 1 1.311 1.311c.193.378.264.772.296 1.167.031.375.031.83.031 1.356V17h2a1 1 0 1 1 0 2h-2v2a1 1 0 1 1-2 0V9.2c0-.577 0-.949-.024-1.232-.022-.272-.06-.373-.085-.422a1 1 0 0 0-.437-.437c-.05-.025-.15-.063-.422-.085z" clip-rule="evenodd" data-original="#000000" class=""></path></g></svg>