<svg xmlns="http://www.w3.org/2000/svg" version="1.1" xmlns:xlink="http://www.w3.org/1999/xlink" xmlns:svgjs="http://svgjs.com/svgjs" width="512" height="512" x="0" y="0" viewBox="0 0 32 32" style="enable-background:new 0 0 512 512" xml:space="preserve" class=""><g><g data-name="Layer 2"><path fill="#5e72e4" d="M16.473 29.75h-.946a2.74 2.74 0 0 1-2.712-2.297l-.152-.912a1.134 1.134 0 0 0-1.757-.728l-.752.537a2.74 2.74 0 0 1-3.543-.293l-.668-.668a2.742 2.742 0 0 1-.293-3.543l.536-.751a1.1 1.1 0 0 0 .12-1.064 1.114 1.114 0 0 0-.848-.695l-.91-.15a2.742 2.742 0 0 1-2.298-2.713v-.946a2.74 2.74 0 0 1 2.297-2.712l.912-.152a1.134 1.134 0 0 0 .728-1.757l-.537-.752a2.742 2.742 0 0 1 .293-3.543l.668-.668a2.74 2.74 0 0 1 3.543-.293l.751.536a1.135 1.135 0 0 0 1.76-.728l.15-.91a2.742 2.742 0 0 1 2.712-2.298h.946a2.74 2.74 0 0 1 2.712 2.297l.152.912a1.134 1.134 0 0 0 1.757.728l.752-.537a2.74 2.74 0 0 1 3.543.293l.668.668a2.742 2.742 0 0 1 .293 3.543l-.536.751a1.1 1.1 0 0 0-.12 1.064 1.114 1.114 0 0 0 .848.695l.91.15a2.742 2.742 0 0 1 2.298 2.713v.946a2.74 2.74 0 0 1-2.297 2.712l-.912.152a1.134 1.134 0 0 0-.728 1.757l.537.752a2.742 2.742 0 0 1-.293 3.543l-.668.668a2.74 2.74 0 0 1-3.543.293l-.751-.536a1.135 1.135 0 0 0-1.76.728l-.15.91a2.742 2.742 0 0 1-2.712 2.298zm-4.934-5.642a2.654 2.654 0 0 1 2.604 2.186l.152.912a1.246 1.246 0 0 0 1.232 1.044h.946a1.247 1.247 0 0 0 1.233-1.045l.15-.91a2.635 2.635 0 0 1 4.11-1.702l.75.536a1.248 1.248 0 0 0 1.612-.133l.668-.668a1.248 1.248 0 0 0 .133-1.611l-.536-.751a2.634 2.634 0 0 1 1.701-4.109l.912-.152a1.246 1.246 0 0 0 1.044-1.232v-.946a1.247 1.247 0 0 0-1.045-1.233l-.91-.15a2.635 2.635 0 0 1-1.702-4.11l.536-.75a1.248 1.248 0 0 0-.133-1.612l-.668-.668a1.248 1.248 0 0 0-1.611-.133l-.751.536a2.634 2.634 0 0 1-4.109-1.7l-.152-.913a1.246 1.246 0 0 0-1.232-1.044h-.946a1.247 1.247 0 0 0-1.233 1.045l-.15.91a2.635 2.635 0 0 1-4.11 1.702l-.75-.536a1.248 1.248 0 0 0-1.612.133l-.668.668a1.248 1.248 0 0 0-.133 1.611l.536.751a2.634 2.634 0 0 1-1.7 4.109l-.913.152a1.246 1.246 0 0 0-1.044 1.232v.946a1.247 1.247 0 0 0 1.045 1.233l.91.15a2.635 2.635 0 0 1 1.702 4.11l-.536.75a1.248 1.248 0 0 0 .133 1.612l.668.668a1.248 1.248 0 0 0 1.611.133l.751-.536a2.58 2.58 0 0 1 1.505-.485z" data-original="#232323" class=""></path><path fill="#7fbde7" d="M16 22.75a6.746 6.746 0 1 1 3.376-.903.75.75 0 0 1-.752-1.3A5.25 5.25 0 1 0 16 21.25a.75.75 0 0 1 0 1.5z" data-original="#7fbde7"></path></g></g></svg>