<svg xmlns="http://www.w3.org/2000/svg" version="1.1" xmlns:xlink="http://www.w3.org/1999/xlink" xmlns:svgjs="http://svgjs.com/svgjs" width="512" height="512" x="0" y="0" viewBox="0 0 24 24" style="enable-background:new 0 0 512 512" xml:space="preserve" class=""><g><g fill="#aaa"><path d="M12 14.75H7c-.41 0-.75-.34-.75-.75s.34-.75.75-.75h5c.41 0 .75.34.75.75s-.34.75-.75.75zM7 6.71c-.19 0-.38-.07-.53-.22L2.72 2.74c-.29-.29-.29-.77 0-1.06s.77-.29 1.06 0l3.75 3.75c.29.29.29.77 0 1.06-.15.14-.34.22-.53.22z" fill="#5e72e4" data-original="#aaaaaa"></path><path d="M3.21 6.75c-.19 0-.38-.07-.53-.22a.754.754 0 0 1 0-1.06l3.75-3.75c.29-.29.77-.29 1.06 0s.29.77 0 1.06L3.74 6.53c-.14.15-.34.22-.53.22zM15 10.75H7c-.41 0-.75-.34-.75-.75s.34-.75.75-.75h8c.41 0 .75.34.75.75s-.34.75-.75.75z" fill="#5e72e4" data-original="#aaaaaa"></path></g><path fill="#5e72e4" d="M21 16.75c-.41 0-.75-.34-.75-.75V7.99c0-4.23-1.44-5.09-4.29-5.24H10c-.41 0-.75-.34-.75-.75s.34-.75.75-.75h6c4.1.22 5.75 2.17 5.75 6.74V16c0 .41-.34.75-.75.75zM15 22.75H9c-5.62 0-6.75-2.59-6.75-6.77V9.01c0-.41.34-.75.75-.75s.75.34.75.75v6.97c0 3.72.73 5.27 5.25 5.27h6c.41 0 .75.34.75.75s-.34.75-.75.75z" data-original="#000000" class=""></path><path fill="#5e72e4" d="M15 22.75a.753.753 0 0 1-.75-.75v-3c0-2.42 1.33-3.75 3.75-3.75h3c.3 0 .58.18.69.46s.05.6-.16.82l-6 6c-.14.14-.34.22-.53.22zm3-6c-1.58 0-2.25.67-2.25 2.25v1.19l3.44-3.44z" data-original="#000000" class=""></path></g></svg>