<svg xmlns="http://www.w3.org/2000/svg" version="1.1" xmlns:xlink="http://www.w3.org/1999/xlink" xmlns:svgjs="http://svgjs.com/svgjs" width="512" height="512" x="0" y="0" viewBox="0 0 25 25" style="enable-background:new 0 0 512 512" xml:space="preserve" class=""><g><path d="M19.5 2h-12A1.5 1.5 0 0 0 6 3.5V4h-.5A1.5 1.5 0 0 0 4 5.5v16A1.5 1.5 0 0 0 5.5 23h12a1.5 1.5 0 0 0 1.5-1.5V21h.5a1.5 1.5 0 0 0 1.5-1.5v-16A1.5 1.5 0 0 0 19.5 2zM18 21.5a.5.5 0 0 1-.5.5h-12a.5.5 0 0 1-.5-.5v-16a.5.5 0 0 1 .5-.5h12a.5.5 0 0 1 .5.5zm2-2a.5.5 0 0 1-.5.5H19V5.5A1.5 1.5 0 0 0 17.5 4H7v-.5a.5.5 0 0 1 .5-.5h12a.5.5 0 0 1 .5.5zm-4-12a.5.5 0 0 1-.5.5h-8a.5.5 0 0 1 0-1h8a.5.5 0 0 1 .5.5zm0 3a.5.5 0 0 1-.5.5h-8a.5.5 0 0 1 0-1h8a.5.5 0 0 1 .5.5zm0 3a.5.5 0 0 1-.5.5h-8a.5.5 0 0 1 0-1h8a.5.5 0 0 1 .5.5zm0 3a.5.5 0 0 1-.5.5h-8a.5.5 0 0 1 0-1h8a.5.5 0 0 1 .5.5zm0 3a.5.5 0 0 1-.5.5h-8a.5.5 0 0 1 0-1h8a.5.5 0 0 1 .5.5z" data-name="Layer 19" fill="#5e72e4" data-original="#000000"></path></g></svg>