<svg xmlns="http://www.w3.org/2000/svg" version="1.1" xmlns:xlink="http://www.w3.org/1999/xlink" xmlns:svgjs="http://svgjs.com/svgjs" width="512" height="512" x="0" y="0" viewBox="0 0 512 512" style="enable-background:new 0 0 512 512" xml:space="preserve" class=""><g><path d="M234.071 471.132H60.391c-6.453 0-12.333-2.991-16.135-8.207-3.803-5.218-4.85-11.736-2.874-17.883 19.732-61.346 79.908-104.191 146.336-104.191 30.909 0 60.591 9.308 85.838 26.916 9.043 6.307 21.485 4.09 27.795-4.953 6.306-9.043 4.089-21.486-4.954-27.794a189.706 189.706 0 0 0-39.817-21.257c18.583-16.896 30.911-40.555 33.053-67.048 28.177-27.448 65.111-42.488 104.704-42.488 30.909 0 60.591 9.308 85.838 26.916 9.043 6.307 21.486 4.09 27.795-4.953 6.306-9.043 4.089-21.486-4.954-27.794a189.706 189.706 0 0 0-39.817-21.257c20.499-18.638 33.386-45.506 33.386-75.328C496.586 45.673 450.913 0 394.774 0c-56.14 0-101.812 45.673-101.812 101.813 0 29.701 12.784 56.473 33.139 75.102a190.37 190.37 0 0 0-8.295 3.42 189.534 189.534 0 0 0-35.162 20.183c-15.068-37.415-51.746-63.893-94.49-63.893-56.14 0-101.812 45.673-101.812 101.813 0 29.614 12.71 56.316 32.96 74.938-54.148 20.292-98.053 63.87-115.927 119.444-5.928 18.431-2.788 37.976 8.616 53.623 11.402 15.645 29.042 24.618 48.401 24.618h173.68c11.026 0 19.963-8.938 19.963-19.963s-8.939-19.966-19.964-19.966zM394.775 39.926c34.124 0 61.886 27.762 61.886 61.886s-27.762 61.886-61.886 61.886-61.886-27.762-61.886-61.886 27.762-61.886 61.886-61.886zM188.155 176.55c34.124 0 61.886 27.762 61.886 61.886s-27.762 61.886-61.886 61.886-61.886-27.762-61.886-61.886 27.762-61.886 61.886-61.886z" fill="#5e72e4" data-original="#000000" class=""></path><path d="M503.217 326.082c-8.965-6.418-21.436-4.354-27.853 4.612l-98.4 137.447c-2.687 3.116-6.055 3.789-7.859 3.909-1.857.127-5.463-.114-8.555-3.057l-63.703-61.168c-7.954-7.638-20.593-7.379-28.226.573-7.637 7.952-7.38 20.59.572 28.226l63.767 61.228c9.55 9.091 22.298 14.149 35.414 14.149a50.48 50.48 0 0 0 3.387-.113c14.288-.952 27.628-7.9 36.599-19.062.233-.289.455-.584.672-.885l98.799-138.006c6.416-8.965 4.352-21.435-4.614-27.853z" fill="#5e72e4" data-original="#000000" class=""></path></g></svg>