<svg xmlns="http://www.w3.org/2000/svg" version="1.1" xmlns:xlink="http://www.w3.org/1999/xlink" xmlns:svgjs="http://svgjs.com/svgjs" width="512" height="512" x="0" y="0" viewBox="0 0 50 50" style="enable-background:new 0 0 512 512" xml:space="preserve" class=""><g><g fill="#26d701"><path fill-rule="evenodd" d="M24.892 2.604h.217c1.871 0 3.432 0 4.671.167 1.308.176 2.49.562 3.438 1.511.949.95 1.336 2.13 1.512 3.438.166 1.24.166 2.8.166 4.672v.108h-3.125c0-2.008-.003-3.357-.139-4.364-.129-.961-.352-1.373-.624-1.644-.271-.272-.682-.495-1.644-.624-1.006-.135-2.355-.139-4.364-.139-2.008 0-3.357.004-4.363.139-.962.13-1.373.352-1.645.624-.271.271-.495.683-.624 1.644-.135 1.007-.138 2.356-.138 4.364h-3.125v-.108c0-1.872 0-3.433.166-4.672.176-1.308.563-2.489 1.512-3.438.948-.949 2.13-1.335 3.437-1.511 1.24-.167 2.8-.167 4.672-.167z" clip-rule="evenodd" fill="#5e72e4" data-original="#26d701"></path><path d="M35.417 18.75a2.083 2.083 0 1 1-4.167 0 2.083 2.083 0 0 1 4.167 0zM18.75 18.75a2.083 2.083 0 1 1-4.167 0 2.083 2.083 0 0 1 4.167 0z" fill="#5e72e4" data-original="#26d701"></path></g><path fill="#5e72e4" fill-rule="evenodd" d="M20.716 10.938h8.569c3.828 0 6.86 0 9.234.318 2.443.329 4.42 1.02 5.979 2.58s2.25 3.536 2.58 5.979c.318 2.373.318 5.406.318 9.234v.235c0 3.829 0 6.861-.319 9.235-.328 2.442-1.02 4.42-2.58 5.978s-3.535 2.251-5.978 2.58c-2.373.319-5.406.319-9.234.319h-8.569c-3.829 0-6.861 0-9.235-.32-2.442-.328-4.419-1.02-5.978-2.579s-2.251-3.536-2.58-5.978c-.319-2.374-.319-5.406-.319-9.235v-.235c0-3.829 0-6.861.32-9.235.328-2.442 1.02-4.419 2.579-5.978s3.536-2.251 5.979-2.58c2.373-.319 5.406-.319 9.234-.319zm-8.818 3.416c-2.096.282-3.304.81-4.185 1.692-.882.881-1.41 2.089-1.692 4.185-.288 2.14-.292 4.963-.292 8.936 0 3.972.004 6.794.292 8.935.281 2.096.81 3.304 1.692 4.186.881.881 2.089 1.41 4.185 1.692 2.14.288 4.963.29 8.936.29h8.333c3.973 0 6.795-.003 8.936-.29 2.096-.282 3.303-.81 4.185-1.692s1.41-2.09 1.692-4.186c.288-2.14.291-4.963.291-8.935 0-3.973-.003-6.795-.291-8.936-.282-2.096-.81-3.304-1.692-4.185s-2.09-1.41-4.185-1.692c-2.141-.288-4.964-.291-8.936-.291h-8.333c-3.973 0-6.795.003-8.936.29z" clip-rule="evenodd" data-original="#00ab08" class=""></path></g></svg>