<svg xmlns="http://www.w3.org/2000/svg" version="1.1" xmlns:xlink="http://www.w3.org/1999/xlink" xmlns:svgjs="http://svgjs.com/svgjs" width="512" height="512" x="0" y="0" viewBox="0 0 100 100" style="enable-background:new 0 0 512 512" xml:space="preserve" class=""><g><g fill="#005eb0"><path d="M75.775 97.5h-51.55c-7.049 0-12.782-5.734-12.782-12.782V54.559c0-7.049 5.733-12.783 12.782-12.783h51.55c7.049 0 12.782 5.734 12.782 12.783v30.159c0 7.048-5.733 12.782-12.782 12.782zm-51.55-51.2c-4.554 0-8.259 3.705-8.259 8.26v30.158c0 4.553 3.705 8.258 8.259 8.258h51.55c4.554 0 8.259-3.705 8.259-8.258V54.559c0-4.554-3.705-8.26-8.259-8.26z" fill="#5e72e4" data-original="#005eb0" class=""></path><path d="M76.02 44.038h-4.524V28.521c0-11.854-9.643-21.497-21.496-21.497S28.504 16.667 28.504 28.52v15.517H23.98V28.521C23.98 14.173 35.653 2.5 50 2.5s26.02 11.673 26.02 26.02z" fill="#5e72e4" data-original="#005eb0" class=""></path><path d="M65.5 44.038h-4.524V28.521c0-6.053-4.924-10.977-10.976-10.977s-10.976 4.924-10.976 10.977v15.517H34.5V28.521c0-8.547 6.953-15.5 15.5-15.5s15.5 6.953 15.5 15.5zM50 87.065a7.077 7.077 0 0 1-7.07-7.07V72.6a11.312 11.312 0 0 1-4.355-8.963c0-6.3 5.125-11.425 11.425-11.425s11.425 5.125 11.425 11.425c0 3.55-1.606 6.813-4.355 8.963v7.397a7.077 7.077 0 0 1-7.07 7.07zm0-30.33a6.91 6.91 0 0 0-6.902 6.901 6.831 6.831 0 0 0 3.278 5.858 2.263 2.263 0 0 1 1.078 1.927v8.575c0 1.404 1.142 2.545 2.546 2.545s2.546-1.141 2.546-2.545V71.42c0-.785.408-1.515 1.078-1.927a6.831 6.831 0 0 0 3.278-5.858A6.91 6.91 0 0 0 50 56.735z" fill="#5e72e4" data-original="#005eb0" class=""></path></g></g></svg>