<svg version="1.1" id="Layer_1" xmlns="http://www.w3.org/2000/svg" xmlns:xlink="http://www.w3.org/1999/xlink" x="0px" y="0px"
	 width="100%" viewBox="0 0 128 128" enable-background="new 0 0 128 128" xml:space="preserve">
<path fill="#142744" opacity="1.000000" stroke="none" 
	d="
M79.000000,129.000000 
	C52.666668,129.000000 26.833334,129.000000 1.000000,129.000000 
	C1.000000,86.333336 1.000000,43.666668 1.000000,1.000000 
	C43.666668,1.000000 86.333336,1.000000 129.000000,1.000000 
	C129.000000,43.666668 129.000000,86.333336 129.000000,129.000000 
	C112.500000,129.000000 96.000000,129.000000 79.000000,129.000000 
M24.000210,67.002419 
	C24.000210,67.002419 24.093569,66.995872 23.922060,66.468506 
	C23.615612,66.279785 23.309164,66.091064 23.018761,65.987724 
	C23.018761,65.987724 23.104118,65.971573 22.877832,65.360535 
	C22.321026,64.705078 21.764217,64.049622 20.733883,62.857090 
	C19.889936,60.942329 19.045990,59.027565 17.754406,57.503307 
	C17.546587,58.050236 17.338768,58.597160 17.096628,59.126221 
	C17.096628,59.126221 17.141607,59.142731 16.540564,59.566483 
	C16.326292,63.401115 16.112022,67.235748 15.543644,71.666084 
	C15.083142,77.839447 19.928402,83.536507 28.365683,86.528755 
	C32.657280,88.346443 36.948879,90.164124 40.993946,92.625717 
	C39.500156,97.453300 43.446762,99.268883 46.427990,102.411026 
	C50.648445,104.902641 54.622734,108.366219 60.749691,106.204689 
	C61.033237,108.731544 61.316780,111.258400 61.614925,113.915382 
	C63.949734,113.196068 66.115273,112.528908 68.746635,111.965759 
	C69.074661,111.993980 69.388420,111.939606 70.285004,111.835785 
	C70.569954,111.574799 70.854904,111.313812 71.499626,110.471443 
	C72.995476,109.060844 74.382393,107.506020 76.013222,106.274109 
	C78.343674,104.513718 80.852631,102.989639 83.866592,101.152443 
	C84.666000,100.530350 85.465408,99.908257 86.720970,98.999619 
	C87.136108,98.655762 87.551247,98.311897 88.314209,97.648499 
	C88.539078,97.427299 88.747719,97.191734 89.318100,96.544388 
	C89.625938,96.092903 89.933777,95.641418 90.546715,94.731850 
	C90.798935,94.245010 91.051155,93.758163 91.673828,92.986961 
	C91.874237,92.100311 92.074646,91.213654 92.848503,90.117485 
	C93.590179,89.772118 94.331848,89.426758 95.621597,88.931007 
	C96.135612,88.686386 96.649628,88.441772 97.834770,88.110947 
	C98.988869,87.509399 100.142967,86.907845 102.018394,86.180756 
	C104.440323,84.537560 106.862259,82.894356 109.913322,80.985023 
	C117.150238,77.343544 115.629517,70.988205 114.931450,64.069801 
	C114.680931,56.821060 112.195847,53.746719 108.656242,54.477833 
	C108.406174,58.538097 108.177475,62.251560 107.330338,66.264671 
	C105.052567,67.579971 102.837952,69.023964 100.482056,70.180054 
	C97.052345,71.863075 94.157875,72.048149 91.901840,67.891060 
	C90.754333,65.776619 88.209061,64.420746 85.919708,62.153011 
	C81.743584,60.512989 77.567451,58.872971 72.800621,57.258770 
	C72.224258,57.127274 71.647903,56.995777 71.067184,55.948769 
	C71.011505,51.325012 70.955826,46.701260 71.099792,41.416988 
	C71.387741,40.578438 71.675697,39.739887 72.442459,39.090748 
	C72.603767,39.148491 72.765068,39.206238 72.832474,40.033756 
	C73.813454,43.551182 73.974648,48.117558 78.616943,48.557907 
	C83.586945,49.029346 89.344902,50.319496 92.284561,43.365932 
	C92.219360,42.953506 92.154160,42.541080 92.236404,41.748600 
	C92.128975,41.243641 92.021538,40.738682 91.613007,39.654564 
	C91.052521,38.737965 90.492027,37.821369 90.047211,36.193184 
	C86.628273,32.829182 83.757904,27.986357 79.655586,26.464575 
	C74.167168,24.428610 70.064087,22.678366 69.264549,15.847528 
	C67.804718,15.965589 66.344887,16.083649 64.294777,16.473148 
	C63.168411,19.239058 62.042042,22.004967 60.397697,24.866467 
	C60.244179,24.951660 60.090660,25.036854 59.199245,25.094805 
	C56.775692,26.100357 54.352142,27.105909 51.410980,28.228857 
	C51.160042,28.473650 50.909103,28.718445 50.263935,29.051218 
	C50.263935,29.051218 49.988068,29.346266 49.388393,29.562706 
	C46.826603,32.703934 44.264812,35.845158 41.203590,39.494026 
	C39.589752,47.631321 36.878212,55.904293 44.379330,63.555866 
	C47.272556,65.316055 50.165783,67.076241 53.646591,69.251221 
	C54.683704,69.690826 55.683350,70.337730 56.764599,70.533157 
	C60.845364,71.270737 61.891514,73.446098 59.258713,77.128464 
	C50.200993,75.300247 41.143269,73.472038 32.108337,71.812042 
	C32.108337,71.812042 32.276405,71.788170 31.862812,71.279709 
	C31.239521,71.105049 30.616230,70.930382 30.072607,70.917969 
	C30.072607,70.917969 30.234625,70.837837 29.834780,70.328430 
	C29.222715,70.162590 28.610651,69.996758 28.079107,69.949310 
	C28.079107,69.949310 28.197323,69.868523 27.889824,69.291992 
	C27.288734,69.067879 26.687645,68.843773 26.043232,68.850182 
	C26.043232,68.850182 26.273861,68.892906 26.117584,68.285439 
	C25.745815,68.118568 25.374044,67.951691 25.021767,67.978020 
	C25.021767,67.978020 25.214952,67.958374 24.995537,67.423080 
	C24.661568,67.251740 24.327599,67.080406 24.000210,67.002419 
z"/>
<path fill="#3B352C" opacity="1.000000" stroke="none" 
	d="
M86.295654,62.721966 
	C88.209061,64.420746 90.754333,65.776619 91.901840,67.891060 
	C94.157875,72.048149 97.052345,71.863075 100.482056,70.180054 
	C102.837952,69.023964 105.052567,67.579971 107.649284,66.439934 
	C108.781502,67.261986 110.012741,68.624748 110.337685,68.435051 
	C111.989006,67.471039 113.405495,66.104759 114.904228,64.879364 
	C115.629517,70.988205 117.150238,77.343544 109.487015,81.025192 
	C109.060707,81.065353 108.837357,80.879395 108.679810,80.547165 
	C103.844444,81.392792 99.166618,82.570663 94.315659,83.792122 
	C93.943703,82.506012 93.593079,81.293633 93.534775,79.931801 
	C95.576630,78.973549 97.326149,78.164757 99.453827,77.321701 
	C102.619217,76.240196 105.268509,75.089401 104.597725,70.684875 
	C101.786781,71.640076 99.358322,72.465294 96.553543,73.295074 
	C94.480324,73.563820 92.224167,75.921631 91.734680,71.749001 
	C90.918129,69.899155 89.990044,68.383476 88.940674,66.581635 
	C87.845665,65.235313 86.871941,64.175156 85.997414,63.016571 
	C86.096611,62.918148 86.295654,62.721966 86.295654,62.721966 
z"/>
<path fill="#AE6C0C" opacity="1.000000" stroke="none" 
	d="
M49.988068,29.346266 
	C49.988068,29.346266 50.263935,29.051218 50.681084,28.874859 
	C51.375023,28.502821 51.651806,28.307140 51.928589,28.111462 
	C54.352142,27.105909 56.775692,26.100357 59.492222,25.356136 
	C60.195164,26.405931 60.605125,27.194397 61.343269,27.987984 
	C62.109016,28.000053 62.546585,28.007000 63.121468,28.309008 
	C64.508415,29.396639 65.758057,30.189209 67.251266,30.992229 
	C67.494827,31.002680 67.982010,31.021938 68.109711,31.284784 
	C68.828949,32.023663 69.420494,32.499695 70.319504,33.050476 
	C71.417923,33.416615 72.208885,33.708008 72.908325,34.270214 
	C72.532417,35.994465 72.248032,37.447899 71.963646,38.901337 
	C71.675697,39.739887 71.387741,40.578438 70.818092,41.775810 
	C70.536392,42.134632 70.174660,42.203484 69.819611,42.103630 
	C67.303085,42.023792 65.141617,42.043812 62.737782,42.075241 
	C62.495422,42.086647 62.032455,42.232029 61.999313,41.842995 
	C61.951443,40.676884 61.936710,39.899807 62.145355,38.901146 
	C63.012260,37.842381 63.655792,37.005199 64.439636,35.985485 
	C51.821232,33.834255 51.821232,33.834255 49.988068,29.346266 
z"/>
<path fill="#C78B2C" opacity="1.000000" stroke="none" 
	d="
M70.092590,16.183674 
	C70.064087,22.678366 74.167168,24.428610 79.655586,26.464575 
	C83.757904,27.986357 86.628273,32.829182 89.630722,36.491859 
	C81.838577,33.219666 74.379250,29.804428 67.167824,25.928020 
	C65.934807,25.265226 65.760971,22.631994 65.437630,20.942852 
	C70.064339,21.943550 70.054123,19.041695 70.092590,16.183674 
z"/>
<path fill="#DBB866" opacity="1.000000" stroke="none" 
	d="
M71.071541,56.864285 
	C71.647903,56.995777 72.224258,57.127274 73.231873,57.527611 
	C73.829872,58.176334 73.996620,58.556217 73.878860,59.065914 
	C73.058525,59.808674 72.522705,60.421619 71.704628,61.176197 
	C67.613045,59.889492 63.803722,58.461155 59.657776,56.929523 
	C53.696938,54.240864 48.072727,51.655499 42.368507,48.740875 
	C42.349545,46.820686 42.410587,45.229755 42.904015,43.718636 
	C47.557766,44.843845 51.779129,45.889252 56.128853,47.267159 
	C58.106537,49.696224 59.955872,51.792789 61.984787,54.196167 
	C65.133423,55.290077 68.102478,56.077179 71.071541,56.864285 
z"/>
<path fill="#BB7815" opacity="1.000000" stroke="none" 
	d="
M65.097832,20.909033 
	C65.760971,22.631994 65.934807,25.265226 67.167824,25.928020 
	C74.379250,29.804428 81.838577,33.219666 89.572891,36.847656 
	C90.492027,37.821369 91.052521,38.737965 91.694649,40.130486 
	C91.776291,40.606411 91.663048,40.988022 91.293556,40.982727 
	C87.604118,39.665432 84.284172,38.353428 80.637482,37.033676 
	C79.874283,37.019100 79.437828,37.012280 78.782814,36.748207 
	C76.709450,35.660439 74.854645,34.829918 72.999847,33.999401 
	C72.208885,33.708008 71.417923,33.416615 70.191650,32.788139 
	C69.164902,31.974686 68.573456,31.498312 67.982010,31.021938 
	C67.982010,31.021938 67.494827,31.002680 67.115067,30.697514 
	C65.484924,29.599548 64.234543,28.806749 62.984158,28.013947 
	C62.546585,28.007000 62.109016,28.000053 61.332886,27.586781 
	C60.968113,26.377260 60.941895,25.574068 60.915676,24.770876 
	C62.042042,22.004967 63.168411,19.239058 64.638168,16.726013 
	C65.020309,18.288929 65.059074,19.598980 65.097832,20.909033 
z"/>
<path fill="#3C2C21" opacity="1.000000" stroke="none" 
	d="
M15.897752,71.070381 
	C16.112022,67.235748 16.326292,63.401115 16.824112,59.775795 
	C16.041046,64.908051 17.728460,69.033386 21.642399,71.776581 
	C25.371441,74.390182 29.641495,76.231888 33.719582,78.388962 
	C33.765461,78.364967 33.743946,78.262367 33.980629,78.533615 
	C35.145519,78.990356 36.073730,79.175850 37.057915,79.250015 
	C37.113888,79.138687 36.891380,79.026443 36.907417,79.308189 
	C37.262356,79.710403 37.601254,79.830864 38.172550,80.097153 
	C38.862335,80.541252 39.319721,80.839539 39.668228,81.414764 
	C39.295284,82.423233 39.031208,83.154755 38.392021,83.876869 
	C31.678625,81.588112 25.340340,79.308762 18.820217,76.828171 
	C17.724840,74.774750 16.811296,72.922562 15.897752,71.070381 
z"/>
<path fill="#D6953C" opacity="1.000000" stroke="none" 
	d="
M33.673698,78.412949 
	C29.641495,76.231888 25.371441,74.390182 21.642399,71.776581 
	C17.728460,69.033386 16.041046,64.908051 17.124634,59.563919 
	C17.141607,59.142731 17.096628,59.126221 17.341042,58.943260 
	C17.790985,58.211136 17.996515,57.661968 18.202045,57.112804 
	C19.045990,59.027565 19.889936,60.942329 21.029861,63.460930 
	C21.918600,64.700371 22.511358,65.335976 23.104118,65.971573 
	C23.104118,65.971573 23.018761,65.987724 23.164625,66.154144 
	C23.571516,66.545662 23.832542,66.770767 24.093569,66.995872 
	C24.093569,66.995872 24.000210,67.002419 24.176556,67.156906 
	C24.640251,67.527046 24.927601,67.742714 25.214952,67.958374 
	C25.214952,67.958374 25.021767,67.978020 25.211710,68.081207 
	C25.692390,68.420563 25.983126,68.656731 26.273861,68.892906 
	C26.273861,68.892906 26.043232,68.850182 26.288988,68.955002 
	C27.088938,69.329391 27.643129,69.598961 28.197323,69.868523 
	C28.197323,69.868523 28.079107,69.949310 28.282104,70.083755 
	C29.068275,70.424751 29.651449,70.631294 30.234623,70.837837 
	C30.234625,70.837837 30.072607,70.917969 30.281693,71.038696 
	C31.085985,71.369011 31.681196,71.578590 32.276405,71.788170 
	C32.276405,71.788170 32.108337,71.812042 32.257824,71.991707 
	C32.967098,72.761162 33.526886,73.350945 34.051338,74.388367 
	C33.901901,76.028305 33.787804,77.220627 33.673698,78.412949 
z"/>
<path fill="#C79A4E" opacity="1.000000" stroke="none" 
	d="
M34.086678,73.940735 
	C33.526886,73.350945 32.967098,72.761162 32.246429,71.907593 
	C41.143269,73.472038 50.200993,75.300247 60.118340,77.189316 
	C62.098652,77.116318 63.219334,76.982460 64.688881,76.850220 
	C66.866867,76.209190 68.695984,75.566544 70.755424,75.189560 
	C73.197235,77.752991 75.066071,76.263535 77.231354,75.055542 
	C78.279373,75.540108 79.043770,75.884911 79.793716,76.470917 
	C79.769646,77.034599 79.779221,77.356506 79.365631,77.724854 
	C76.291283,77.900658 73.655586,78.181938 71.028328,78.117790 
	C68.069595,78.045547 67.158096,79.349152 67.545303,82.219315 
	C66.538910,82.572014 65.779404,82.774765 64.691383,82.967705 
	C63.925396,82.955055 63.487926,82.952217 63.024940,82.562103 
	C61.931782,81.131256 60.998989,79.418045 59.771008,79.170784 
	C56.212925,78.454315 52.536263,78.326729 48.565014,77.818756 
	C44.128727,76.490089 40.033566,75.310692 35.629768,74.096199 
	C34.909645,74.020981 34.498161,73.980858 34.086678,73.940735 
z"/>
<path fill="#B47D25" opacity="1.000000" stroke="none" 
	d="
M49.688232,29.454487 
	C51.821232,33.834255 51.821232,33.834255 64.439636,35.985485 
	C63.655792,37.005199 63.012260,37.842381 61.881065,38.774849 
	C59.962521,39.234367 58.531635,39.598591 56.699947,39.945175 
	C54.247211,39.459713 52.211758,38.721756 50.139000,38.595310 
	C47.770096,38.450802 45.368011,38.850269 42.661003,39.006943 
	C42.128784,38.995808 41.915901,38.991093 41.703018,38.986382 
	C44.264812,35.845158 46.826603,32.703934 49.688232,29.454487 
z"/>
<path fill="#8D530B" opacity="1.000000" stroke="none" 
	d="
M92.256157,43.995335 
	C89.344902,50.319496 83.586945,49.029346 78.616943,48.557907 
	C73.974648,48.117558 73.813454,43.551182 73.127777,39.548515 
	C74.568634,39.743038 75.714188,40.422806 77.001526,41.169250 
	C77.143303,41.235924 77.598427,41.267990 77.598427,41.267990 
	C77.598427,41.267990 78.018875,41.089615 78.025917,41.131630 
	C78.032959,41.173649 78.099831,41.226452 78.235115,41.487255 
	C80.190308,47.416531 84.780479,43.803135 88.424637,44.642189 
	C89.566948,44.637074 90.328468,44.624977 91.217140,44.560360 
	C91.505257,44.412663 91.632919,44.284344 91.855148,44.072960 
	C91.983017,44.023041 92.256157,43.995335 92.256157,43.995335 
z"/>
<path fill="#D3AA53" opacity="1.000000" stroke="none" 
	d="
M71.069366,56.406525 
	C68.102478,56.077179 65.133423,55.290077 62.021904,53.819443 
	C61.930447,49.501282 61.981449,45.866657 62.032455,42.232029 
	C62.032455,42.232029 62.495422,42.086647 62.916855,42.383301 
	C63.608036,43.096561 63.880634,43.511349 64.147049,43.930080 
	C65.521667,46.090599 66.894707,48.252132 68.268295,50.413315 
	C68.903748,47.676704 69.539207,44.940094 70.174660,42.203484 
	C70.174660,42.203484 70.536392,42.134632 70.718262,42.106068 
	C70.955826,46.701260 71.011505,51.325012 71.069366,56.406525 
z"/>
<path fill="#85580E" opacity="1.000000" stroke="none" 
	d="
M41.453304,39.240204 
	C41.915901,38.991093 42.128784,38.995808 42.600700,39.308586 
	C42.730362,40.957378 42.600994,42.298103 42.471630,43.638828 
	C42.410587,45.229755 42.349545,46.820686 42.332634,49.157043 
	C44.050034,53.717216 45.723297,57.531960 47.123245,61.601929 
	C45.934174,62.221165 45.018410,62.585175 44.102646,62.949181 
	C36.878212,55.904293 39.589752,47.631321 41.453304,39.240204 
z"/>
<path fill="#A16916" opacity="1.000000" stroke="none" 
	d="
M114.917839,64.474579 
	C113.405495,66.104759 111.989006,67.471039 110.337685,68.435051 
	C110.012741,68.624748 108.781502,67.261986 107.958496,66.290108 
	C108.177475,62.251560 108.406174,58.538097 108.656242,54.477833 
	C112.195847,53.746719 114.680931,56.821060 114.917839,64.474579 
z"/>
<path fill="#6A3C10" opacity="1.000000" stroke="none" 
	d="
M64.340019,76.848602 
	C63.219334,76.982460 62.098652,77.116318 60.562134,77.183136 
	C61.891514,73.446098 60.845364,71.270737 56.764599,70.533157 
	C55.683350,70.337730 54.683704,69.690826 53.401501,68.710358 
	C53.556828,67.375824 53.957249,66.582153 54.734612,65.828629 
	C64.204391,68.981323 64.204391,68.981323 64.340019,76.848602 
z"/>
<path fill="#C07C14" opacity="1.000000" stroke="none" 
	d="
M46.079685,101.811768 
	C43.446762,99.268883 39.500156,97.453300 41.452564,92.307358 
	C42.584869,92.011063 43.258556,92.033127 44.011200,92.219986 
	C44.191513,92.602837 44.328773,92.795235 44.672729,93.269791 
	C46.616394,95.634651 48.389271,97.691704 49.892578,99.941696 
	C48.441906,100.693687 47.260796,101.252731 46.079685,101.811768 
z"/>
<path fill="#663610" opacity="1.000000" stroke="none" 
	d="
M46.253838,102.111397 
	C47.260796,101.252731 48.441906,100.693687 50.201530,100.102615 
	C53.864388,101.690887 56.948719,103.311180 60.057236,105.166885 
	C60.081425,105.402306 60.105175,105.875023 60.105175,105.875023 
	C54.622734,108.366219 50.648445,104.902641 46.253838,102.111397 
z"/>
<path fill="#D18D2E" opacity="1.000000" stroke="none" 
	d="
M60.427433,106.039856 
	C60.105175,105.875023 60.081425,105.402306 60.173538,104.881775 
	C61.914112,104.603355 63.562580,104.845467 65.178032,105.478241 
	C64.711983,108.640053 65.300087,110.876869 68.280815,111.861740 
	C66.115273,112.528908 63.949734,113.196068 61.614925,113.915382 
	C61.316780,111.258400 61.033237,108.731544 60.427433,106.039856 
z"/>
<path fill="#683F18" opacity="1.000000" stroke="none" 
	d="
M43.932243,92.055183 
	C43.258556,92.033127 42.584869,92.011063 41.575829,91.985413 
	C36.948879,90.164124 32.657280,88.346443 28.282696,86.146790 
	C28.441214,85.531181 28.682718,85.297546 29.302816,85.089722 
	C34.399910,86.434975 39.118412,87.754425 43.883644,89.258804 
	C43.930370,89.443748 44.018959,89.814819 44.004005,90.143539 
	C43.973873,90.910378 43.958694,91.348488 43.964375,91.854736 
	C43.985237,91.922874 43.932243,92.055183 43.932243,92.055183 
z"/>
<path fill="#361E14" opacity="1.000000" stroke="none" 
	d="
M28.924225,85.063911 
	C28.682718,85.297546 28.441214,85.531181 28.006550,85.928841 
	C19.928402,83.536507 15.083142,77.839447 15.720698,71.368233 
	C16.811296,72.922562 17.724840,74.774750 18.883322,77.161850 
	C22.393581,80.152481 25.658903,82.608200 28.924225,85.063911 
z"/>
<path fill="#3B352C" opacity="1.000000" stroke="none" 
	d="
M83.285362,101.364647 
	C80.852631,102.989639 78.343674,104.513718 76.013222,106.274109 
	C74.382393,107.506020 72.995476,109.060844 71.240585,110.339668 
	C71.080254,108.222107 71.178947,106.236313 71.455299,104.233589 
	C71.632957,104.216652 71.943871,104.044441 72.338974,104.108292 
	C75.591255,103.162086 78.448433,102.152039 81.571800,101.106407 
	C82.189217,100.996765 82.540443,100.922699 82.990494,100.977333 
	C83.089317,101.106033 83.285362,101.364647 83.285362,101.364647 
z"/>
<path fill="#5D300F" opacity="1.000000" stroke="none" 
	d="
M54.357674,65.788490 
	C53.957249,66.582153 53.556828,67.375824 53.107712,68.502960 
	C50.165783,67.076241 47.272556,65.316055 44.240990,63.252525 
	C45.018410,62.585175 45.934174,62.221165 47.330856,61.743202 
	C47.928741,61.751186 48.045708,61.873127 48.158920,62.236404 
	C48.155167,62.477741 48.515247,62.800507 48.515247,62.800507 
	C48.515247,62.800507 48.988400,62.699856 49.317722,62.815010 
	C51.217255,63.882935 52.787464,64.835716 54.357674,65.788490 
z"/>
<path fill="#B6740F" opacity="1.000000" stroke="none" 
	d="
M91.089996,44.612881 
	C90.328468,44.624977 89.566948,44.637074 88.259369,44.380131 
	C85.463623,41.754536 83.213928,39.397980 80.964226,37.041428 
	C84.284172,38.353428 87.604118,39.665432 91.385269,41.273407 
	C91.927292,41.755798 92.008118,41.942226 92.088959,42.128658 
	C92.154160,42.541080 92.219360,42.953506 92.270355,43.680634 
	C92.256157,43.995335 91.983017,44.023041 91.746994,44.150093 
	C91.367004,44.384487 91.226677,44.496399 91.089996,44.612881 
z"/>
<path fill="#B6740F" opacity="1.000000" stroke="none" 
	d="
M76.859741,41.102573 
	C75.714188,40.422806 74.568634,39.743038 73.174728,39.163628 
	C72.765068,39.206238 72.603767,39.148491 72.203049,38.996040 
	C72.248032,37.447899 72.532417,35.994465 72.908325,34.270214 
	C74.854645,34.829918 76.709450,35.660439 78.607040,37.061897 
	C78.466499,38.830704 78.283165,40.028580 78.099831,41.226452 
	C78.099831,41.226452 78.032959,41.173649 77.736282,41.130188 
	C77.246330,41.092010 77.053040,41.097290 76.859741,41.102573 
z"/>
<path fill="#F2AB4C" opacity="1.000000" stroke="none" 
	d="
M68.513725,111.913750 
	C65.300087,110.876869 64.711983,108.640053 65.505913,105.542358 
	C67.185364,105.503052 68.503929,105.790283 69.844818,106.485428 
	C69.807411,108.529770 69.747665,110.166199 69.687920,111.802628 
	C69.388420,111.939606 69.074661,111.993980 68.513725,111.913750 
z"/>
<path fill="#DE9F3A" opacity="1.000000" stroke="none" 
	d="
M65.437630,20.942852 
	C65.059074,19.598980 65.020309,18.288929 64.933304,16.590294 
	C66.344887,16.083649 67.804718,15.965589 69.678574,16.015602 
	C70.054123,19.041695 70.064339,21.943550 65.437630,20.942852 
z"/>
<path fill="#3B352C" opacity="1.000000" stroke="none" 
	d="
M74.163368,58.936104 
	C73.996620,58.556217 73.829872,58.176334 73.527222,57.514702 
	C77.567451,58.872971 81.743584,60.512989 86.107681,62.437489 
	C86.295654,62.721966 86.096611,62.918148 85.641769,62.946327 
	C81.512413,61.628368 77.837891,60.282234 74.163368,58.936104 
z"/>
<path fill="#3B352C" opacity="1.000000" stroke="none" 
	d="
M109.172447,81.158249 
	C106.862259,82.894356 104.440323,84.537560 101.518814,86.077560 
	C101.019226,85.974365 100.741417,85.642403 100.997818,85.425751 
	C103.781937,83.765869 106.309647,82.322632 108.837357,80.879395 
	C108.837357,80.879395 109.060707,81.065353 109.172447,81.158249 
z"/>
<path fill="#D18D2E" opacity="1.000000" stroke="none" 
	d="
M69.986465,111.819206 
	C69.747665,110.166199 69.807411,108.529770 69.875755,106.141273 
	C69.906837,104.930183 69.929321,104.471169 70.285843,104.058609 
	C70.839142,104.153564 71.058395,104.202042 71.277641,104.250526 
	C71.178947,106.236313 71.080254,108.222107 71.060699,110.630356 
	C70.854904,111.313812 70.569954,111.574799 69.986465,111.819206 
z"/>
<path fill="#3B352C" opacity="1.000000" stroke="none" 
	d="
M101.158142,86.140327 
	C100.142967,86.907845 98.988869,87.509399 97.404991,88.051437 
	C96.975212,87.991936 96.786034,87.787407 96.861908,87.533737 
	C96.969627,87.106232 97.001472,86.932388 97.141464,86.728836 
	C97.249619,86.699127 97.460266,86.776253 97.772713,86.733932 
	C98.450180,86.489288 98.815201,86.286980 99.428925,85.971802 
	C100.032219,85.786758 100.386818,85.714577 100.741417,85.642403 
	C100.741417,85.642403 101.019226,85.974365 101.158142,86.140327 
z"/>
<path fill="#B6740F" opacity="1.000000" stroke="none" 
	d="
M60.656685,24.818672 
	C60.941895,25.574068 60.968113,26.377260 61.004711,27.581657 
	C60.605125,27.194397 60.195164,26.405931 59.861168,25.369759 
	C60.090660,25.036854 60.244179,24.951660 60.656685,24.818672 
z"/>
<path fill="#3B352C" opacity="1.000000" stroke="none" 
	d="
M86.264816,99.286171 
	C85.465408,99.908257 84.666000,100.530350 83.575974,101.258545 
	C83.285362,101.364647 83.089317,101.106033 83.179367,100.743324 
	C84.123253,99.863800 84.977089,99.346985 85.939514,98.944054 
	C86.048103,99.057938 86.264816,99.286171 86.264816,99.286171 
z"/>
<path fill="#3B352C" opacity="1.000000" stroke="none" 
	d="
M92.275055,90.327003 
	C92.074646,91.213654 91.874237,92.100311 91.381248,93.033264 
	C91.088669,93.079567 90.874458,92.887245 90.936554,92.538605 
	C91.016388,91.954559 91.034134,91.719147 91.148582,91.275017 
	C91.453476,90.662079 91.661667,90.257858 91.971588,89.971611 
	C92.073311,90.089584 92.275047,90.327003 92.275055,90.327003 
z"/>
<path fill="#C79A4E" opacity="1.000000" stroke="none" 
	d="
M22.990974,65.666054 
	C22.511358,65.335976 21.918600,64.700371 21.266624,63.729469 
	C21.764217,64.049622 22.321026,64.705078 22.990974,65.666054 
z"/>
<path fill="#3B352C" opacity="1.000000" stroke="none" 
	d="
M95.073524,89.081390 
	C94.331848,89.426758 93.590179,89.772118 92.561775,90.222244 
	C92.275047,90.327003 92.073311,90.089584 92.219269,89.775970 
	C93.139359,89.153542 93.913483,88.844719 94.783699,88.672554 
	C94.879784,88.809204 95.073524,89.081390 95.073524,89.081390 
z"/>
<path fill="#C79A4E" opacity="1.000000" stroke="none" 
	d="
M32.069611,71.533936 
	C31.681196,71.578590 31.085985,71.369011 30.241858,70.957581 
	C30.616230,70.930382 31.239521,71.105049 32.069611,71.533936 
z"/>
<path fill="#3B352C" opacity="1.000000" stroke="none" 
	d="
M90.241615,95.189926 
	C89.933777,95.641418 89.625938,96.092903 88.970741,96.617729 
	C88.623383,96.691071 88.307251,96.439537 88.433105,96.189056 
	C88.960884,95.559113 89.362801,95.179649 89.883911,94.897659 
	C90.003105,94.995125 90.241615,95.189926 90.241615,95.189926 
z"/>
<path fill="#C79A4E" opacity="1.000000" stroke="none" 
	d="
M30.034702,70.583130 
	C29.651449,70.631294 29.068275,70.424751 28.241844,70.024567 
	C28.610651,69.996758 29.222715,70.162590 30.034702,70.583130 
z"/>
<path fill="#3B352C" opacity="1.000000" stroke="none" 
	d="
M91.196030,93.175446 
	C91.051155,93.758163 90.798935,94.245010 90.394165,94.960892 
	C90.241615,95.189926 90.003105,94.995125 89.937019,94.609924 
	C90.205444,93.778900 90.539955,93.333069 90.874458,92.887245 
	C90.874458,92.887245 91.088669,93.079567 91.196030,93.175446 
z"/>
<path fill="#3B352C" opacity="1.000000" stroke="none" 
	d="
M97.069427,88.094543 
	C96.649628,88.441772 96.135612,88.686386 95.347565,89.006195 
	C95.073524,89.081390 94.879784,88.809204 95.039780,88.559616 
	C95.728539,88.135818 96.257286,87.961617 96.786034,87.787415 
	C96.786034,87.787407 96.975212,87.991936 97.069427,88.094543 
z"/>
<path fill="#3B352C" opacity="1.000000" stroke="none" 
	d="
M87.966385,97.968033 
	C87.551247,98.311897 87.136108,98.655762 86.492889,99.142899 
	C86.264816,99.286171 86.048103,99.057938 85.994751,98.728294 
	C85.941406,98.398651 86.024689,97.961075 86.263870,97.882019 
	C86.805000,97.655495 87.106941,97.508018 87.548325,97.512360 
	C87.687759,97.664177 87.966377,97.968033 87.966385,97.968033 
z"/>
<path fill="#C79A4E" opacity="1.000000" stroke="none" 
	d="
M28.043571,69.580261 
	C27.643129,69.598961 27.088938,69.329391 26.310650,68.839745 
	C26.687645,68.843773 27.288734,69.067879 28.043571,69.580261 
z"/>
<path fill="#3C2C21" opacity="1.000000" stroke="none" 
	d="
M17.978226,57.308056 
	C17.996515,57.661968 17.790985,58.211136 17.358204,58.952194 
	C17.338768,58.597160 17.546587,58.050236 17.978226,57.308056 
z"/>
<path fill="#8D530B" opacity="1.000000" stroke="none" 
	d="
M92.162674,41.938629 
	C92.008118,41.942226 91.927292,41.755798 91.754761,41.278698 
	C91.663048,40.988022 91.776291,40.606411 91.845200,40.420067 
	C92.021538,40.738682 92.128975,41.243641 92.162674,41.938629 
z"/>
<path fill="#3B352C" opacity="1.000000" stroke="none" 
	d="
M88.781769,96.816437 
	C88.747719,97.191734 88.539078,97.427299 88.140289,97.808266 
	C87.966377,97.968033 87.687759,97.664177 87.655289,97.320709 
	C87.803612,96.737732 88.031754,96.558502 88.307251,96.439537 
	C88.307251,96.439537 88.623383,96.691071 88.781769,96.816437 
z"/>
<path fill="#B47D25" opacity="1.000000" stroke="none" 
	d="
M51.669785,28.170158 
	C51.651806,28.307140 51.375023,28.502821 50.878201,28.830868 
	C50.909103,28.718445 51.160042,28.473650 51.669785,28.170158 
z"/>
<path fill="#C79A4E" opacity="1.000000" stroke="none" 
	d="
M26.195723,68.589172 
	C25.983126,68.656731 25.692390,68.420563 25.201963,67.984604 
	C25.374044,67.951691 25.745815,68.118568 26.195723,68.589172 
z"/>
<path fill="#C79A4E" opacity="1.000000" stroke="none" 
	d="
M24.007814,66.732193 
	C23.832542,66.770767 23.571516,66.545662 23.156603,66.111450 
	C23.309164,66.091064 23.615612,66.279785 24.007814,66.732193 
z"/>
<path fill="#C79A4E" opacity="1.000000" stroke="none" 
	d="
M25.105244,67.690727 
	C24.927601,67.742714 24.640251,67.527046 24.173265,67.110229 
	C24.327599,67.080406 24.661568,67.251740 25.105244,67.690727 
z"/>
<path fill="#E4C376" opacity="1.000000" stroke="none" 
	d="
M79.807999,77.677849 
	C79.779221,77.356506 79.769646,77.034599 80.048561,76.237701 
	C82.280357,74.993027 84.242874,74.222786 86.406937,73.373436 
	C85.134361,71.752663 84.064972,70.390671 83.375641,69.038322 
	C86.378197,70.059700 89.000679,71.071434 91.623161,72.083160 
	C92.224167,75.921631 94.480324,73.563820 96.666519,73.601845 
	C97.795761,75.054688 98.435715,76.205322 99.075668,77.355957 
	C97.326149,78.164757 95.576630,78.973549 93.229248,79.885750 
	C90.032310,80.664696 87.433228,81.340240 84.552521,81.808899 
	C82.866089,81.585281 81.461288,81.568535 80.037064,81.069839 
	C79.947754,79.617874 79.877876,78.647865 79.807999,77.677849 
z"/>
<path fill="#E1B969" opacity="1.000000" stroke="none" 
	d="
M84.834152,82.015793 
	C87.433228,81.340240 90.032310,80.664696 92.936920,80.035202 
	C93.593079,81.293633 93.943703,82.506012 94.315659,83.792122 
	C99.166618,82.570663 103.844444,81.392792 108.679810,80.547165 
	C106.309647,82.322632 103.781937,83.765869 100.997818,85.425751 
	C100.386818,85.714577 100.032219,85.786758 99.107025,85.987473 
	C98.177711,86.336090 97.818985,86.556168 97.460266,86.776253 
	C97.460266,86.776253 97.249619,86.699127 96.711182,86.754547 
	C93.535652,87.410080 90.898567,88.010193 88.058807,88.292892 
	C86.241280,86.310768 84.626427,84.646057 83.253281,82.885918 
	C83.941376,82.532249 84.387764,82.274017 84.834152,82.015793 
z"/>
<path fill="#DBB866" opacity="1.000000" stroke="none" 
	d="
M91.734680,71.749001 
	C89.000679,71.071434 86.378197,70.059700 83.051178,69.020905 
	C81.913719,68.979126 81.480812,68.964417 80.897888,68.650055 
	C78.479500,65.928650 76.211121,63.506893 74.311813,61.110535 
	C76.944962,62.131359 79.183128,63.192017 81.480118,64.104599 
	C83.978905,65.097366 86.532349,65.952591 89.061958,66.867790 
	C89.990044,68.383476 90.918129,69.899155 91.734680,71.749001 
z"/>
<path fill="#D3AA53" opacity="1.000000" stroke="none" 
	d="
M88.940674,66.581635 
	C86.532349,65.952591 83.978905,65.097366 81.480118,64.104599 
	C79.183128,63.192017 76.944962,62.131359 73.986679,61.096909 
	C72.857269,61.050106 72.422081,61.042336 71.986885,61.034561 
	C72.522705,60.421619 73.058525,59.808674 73.878860,59.065914 
	C77.837891,60.282234 81.512413,61.628368 85.542572,63.044746 
	C86.871941,64.175156 87.845665,65.235313 88.940674,66.581635 
z"/>
<path fill="#D3AA57" opacity="1.000000" stroke="none" 
	d="
M99.453827,77.321701 
	C98.435715,76.205322 97.795761,75.054688 97.042831,73.597290 
	C99.358322,72.465294 101.786781,71.640076 104.597725,70.684875 
	C105.268509,75.089401 102.619217,76.240196 99.453827,77.321701 
z"/>
<path fill="#242D39" opacity="1.000000" stroke="none" 
	d="
M61.999313,41.842995 
	C61.981449,45.866657 61.930447,49.501282 61.842323,53.512634 
	C59.955872,51.792789 58.106537,49.696224 56.226696,46.890621 
	C56.497707,44.108662 56.799229,42.035736 57.100750,39.962814 
	C58.531635,39.598591 59.962521,39.234367 61.657692,38.996437 
	C61.936710,39.899807 61.951443,40.676884 61.999313,41.842995 
z"/>
<path fill="#C0882B" opacity="1.000000" stroke="none" 
	d="
M69.819611,42.103630 
	C69.539207,44.940094 68.903748,47.676704 68.268295,50.413315 
	C66.894707,48.252132 65.521667,46.090599 64.147049,43.930080 
	C63.880634,43.511349 63.608036,43.096561 63.159214,42.371895 
	C65.141617,42.043812 67.303085,42.023792 69.819611,42.103630 
z"/>
<path fill="#B6740F" opacity="1.000000" stroke="none" 
	d="
M63.121468,28.309010 
	C64.234543,28.806749 65.484924,29.599548 66.871506,30.687063 
	C65.758057,30.189209 64.508415,29.396639 63.121468,28.309010 
z"/>
<path fill="#B6740F" opacity="1.000000" stroke="none" 
	d="
M68.109711,31.284784 
	C68.573456,31.498312 69.164902,31.974686 69.884193,32.713394 
	C69.420494,32.499695 68.828949,32.023663 68.109711,31.284784 
z"/>
<path fill="#EACC7C" opacity="1.000000" stroke="none" 
	d="
M81.047897,68.949707 
	C81.480812,68.964417 81.913719,68.979126 82.671104,69.011261 
	C84.064972,70.390671 85.134361,71.752663 86.406937,73.373436 
	C84.242874,74.222786 82.280357,74.993027 80.063004,75.996490 
	C79.043770,75.884911 78.279373,75.540108 77.221405,74.709030 
	C75.272057,72.765327 73.616302,71.307892 71.109497,69.101349 
	C70.811966,72.065788 70.668541,73.494843 70.525108,74.923904 
	C68.695984,75.566544 66.866867,76.209190 64.688881,76.850220 
	C64.204391,68.981323 64.204391,68.981323 54.734612,65.828629 
	C52.787464,64.835716 51.217255,63.882935 49.198841,62.676170 
	C48.577675,62.248112 48.381683,62.105740 48.162670,61.995064 
	C48.045708,61.873127 47.928741,61.751186 47.604172,61.487976 
	C45.723297,57.531960 44.050034,53.717216 42.412640,49.486305 
	C48.072727,51.655499 53.696938,54.240864 59.771370,57.251823 
	C67.163696,61.434849 74.105797,65.192276 81.047897,68.949707 
z"/>
<path fill="#C99943" opacity="1.000000" stroke="none" 
	d="
M56.699947,39.945171 
	C56.799229,42.035736 56.497707,44.108662 56.098343,46.558121 
	C51.779129,45.889252 47.557766,44.843845 42.904015,43.718636 
	C42.600994,42.298103 42.730362,40.957378 42.920036,39.315006 
	C45.368011,38.850269 47.770096,38.450802 50.139000,38.595310 
	C52.211758,38.721756 54.247211,39.459713 56.699947,39.945171 
z"/>
<path fill="#E4C376" opacity="1.000000" stroke="none" 
	d="
M80.897888,68.650055 
	C74.105797,65.192276 67.163696,61.434849 60.107994,57.355118 
	C63.803722,58.461155 67.613045,59.889492 71.704628,61.176193 
	C72.422081,61.042336 72.857269,61.050106 73.617599,61.071507 
	C76.211121,63.506893 78.479500,65.928650 80.897888,68.650055 
z"/>
<path fill="#AE6B07" opacity="1.000000" stroke="none" 
	d="
M78.235115,41.487255 
	C78.283165,40.028580 78.466499,38.830704 78.825607,37.319145 
	C79.437828,37.012280 79.874283,37.019100 80.637482,37.033676 
	C83.213928,39.397980 85.463623,41.754536 87.878593,44.373146 
	C84.780479,43.803135 80.190308,47.416531 78.235115,41.487255 
z"/>
<path fill="#D6953C" opacity="1.000000" stroke="none" 
	d="
M44.018959,89.814819 
	C44.018959,89.814819 43.930370,89.443748 44.078186,89.138733 
	C42.406380,87.184570 40.586758,85.535431 38.767136,83.886284 
	C39.031208,83.154755 39.295284,82.423233 39.873226,81.422005 
	C39.789730,79.967781 39.591236,78.658150 38.944702,77.630363 
	C38.134907,76.343033 36.957268,75.287102 35.938404,74.131287 
	C40.033566,75.310692 44.128727,76.490089 48.731056,78.108261 
	C50.492702,80.028038 51.747177,81.509026 53.005737,83.103027 
	C53.333302,83.149490 53.656780,83.082954 54.313919,82.881950 
	C57.474892,81.442986 59.497406,82.431068 60.936253,85.321869 
	C60.254902,87.421066 59.613155,89.167381 58.552940,90.950142 
	C56.735931,90.887123 55.337391,90.787659 53.840210,90.636108 
	C53.522121,90.512566 53.305721,90.522141 52.668842,90.629295 
	C49.503197,90.368828 46.761078,90.091820 44.018959,89.814819 
M48.675461,84.274452 
	C49.111736,83.862648 49.548008,83.450844 49.984283,83.039040 
	C48.847019,82.447029 47.709751,81.855019 46.572487,81.263016 
	C46.399673,81.614433 46.226860,81.965851 46.054050,82.317268 
	C46.762814,82.890556 47.471577,83.463852 48.675461,84.274452 
z"/>
<path fill="#E1A249" opacity="1.000000" stroke="none" 
	d="
M38.392021,83.876869 
	C40.586758,85.535431 42.406380,87.184570 44.031456,88.953796 
	C39.118412,87.754425 34.399910,86.434975 29.302818,85.089722 
	C25.658903,82.608200 22.393581,80.152481 19.065159,77.363098 
	C25.340340,79.308762 31.678625,81.588112 38.392021,83.876869 
z"/>
<path fill="#D48D33" opacity="1.000000" stroke="none" 
	d="
M35.629768,74.096199 
	C36.957268,75.287102 38.134907,76.343033 38.944702,77.630363 
	C39.591236,78.658150 39.789730,79.967781 39.982101,81.145065 
	C39.319721,80.839539 38.862335,80.541252 37.995056,79.944824 
	C37.338909,79.456688 37.107651,79.249947 36.891380,79.026443 
	C36.891380,79.026443 37.113888,79.138687 36.775894,79.031746 
	C35.539913,78.703995 34.641930,78.483177 33.743946,78.262367 
	C33.743946,78.262367 33.765461,78.364967 33.719582,78.388954 
	C33.787804,77.220627 33.901901,76.028305 34.051338,74.388367 
	C34.498161,73.980858 34.909645,74.020981 35.629768,74.096199 
z"/>
<path fill="#D6953C" opacity="1.000000" stroke="none" 
	d="
M33.980629,78.533615 
	C34.641930,78.483177 35.539913,78.703995 36.719917,79.143066 
	C36.073730,79.175850 35.145519,78.990356 33.980629,78.533615 
z"/>
<path fill="#D6953C" opacity="1.000000" stroke="none" 
	d="
M36.907417,79.308189 
	C37.107651,79.249947 37.338909,79.456688 37.762653,79.798996 
	C37.601254,79.830864 37.262356,79.710403 36.907417,79.308189 
z"/>
<path fill="#E19F43" opacity="1.000000" stroke="none" 
	d="
M60.975853,84.968994 
	C59.497406,82.431068 57.474892,81.442986 54.069405,82.874977 
	C53.491230,83.002464 53.001656,82.990021 53.001656,82.990021 
	C51.747177,81.509026 50.492702,80.028038 49.072182,78.257538 
	C52.536263,78.326729 56.212925,78.454315 59.771008,79.170784 
	C60.998989,79.418045 61.931782,81.131256 62.852829,82.801041 
	C62.129444,83.941162 61.552650,84.455078 60.975853,84.968994 
z"/>
<path fill="#E8B962" opacity="1.000000" stroke="none" 
	d="
M79.365631,77.724854 
	C79.877876,78.647865 79.947754,79.617874 79.666489,81.172592 
	C76.227837,82.215363 73.140335,82.673447 69.800232,82.946571 
	C68.962486,82.530861 68.377342,82.300110 67.792191,82.069359 
	C67.158096,79.349152 68.069595,78.045547 71.028328,78.117790 
	C73.655586,78.181938 76.291283,77.900658 79.365631,77.724854 
z"/>
<path fill="#D48D33" opacity="1.000000" stroke="none" 
	d="
M60.936256,85.321869 
	C61.552650,84.455078 62.129444,83.941162 62.878349,83.188309 
	C63.487926,82.952217 63.925396,82.955055 64.718460,83.306900 
	C65.097153,84.108383 65.120247,84.560844 65.134338,85.386375 
	C65.439178,87.447021 65.753029,89.134598 65.705612,90.921173 
	C64.863556,91.150368 64.382759,91.280579 63.490936,91.370499 
	C61.710415,91.191360 60.340912,91.052528 58.971413,90.913696 
	C59.613155,89.167381 60.254902,87.421066 60.936256,85.321869 
z"/>
<path fill="#905F14" opacity="1.000000" stroke="none" 
	d="
M70.755424,75.189560 
	C70.668541,73.494843 70.811966,72.065788 71.109497,69.101349 
	C73.616302,71.307892 75.272057,72.765327 76.937775,74.569275 
	C75.066071,76.263535 73.197235,77.752991 70.755424,75.189560 
z"/>
<path fill="#E19F43" opacity="1.000000" stroke="none" 
	d="
M65.143341,85.013313 
	C65.120247,84.560844 65.097153,84.108383 65.046982,83.316711 
	C65.779404,82.774765 66.538910,82.572014 67.545303,82.219315 
	C68.377342,82.300110 68.962486,82.530861 69.812103,83.161972 
	C70.076561,83.562325 70.072838,83.994415 69.899353,84.153427 
	C69.504341,84.531937 69.294807,84.762360 68.700058,85.002884 
	C67.249672,85.005821 66.196503,85.009567 65.143341,85.013313 
z"/>
<path fill="#AE6B07" opacity="1.000000" stroke="none" 
	d="
M91.217140,44.560360 
	C91.226677,44.496399 91.367004,44.384487 91.619125,44.200012 
	C91.632919,44.284344 91.505257,44.412663 91.217140,44.560360 
z"/>
<path fill="#AE6B07" opacity="1.000000" stroke="none" 
	d="
M77.001526,41.169250 
	C77.053040,41.097290 77.246330,41.092010 77.729248,41.088173 
	C78.018875,41.089615 77.598427,41.267990 77.598427,41.267990 
	C77.598427,41.267990 77.143303,41.235924 77.001526,41.169250 
z"/>
<path fill="#E7A043" opacity="1.000000" stroke="none" 
	d="
M69.951805,104.012146 
	C69.929321,104.471169 69.906837,104.930183 69.853424,105.733360 
	C68.503929,105.790283 67.185364,105.503052 65.538925,105.151688 
	C63.562580,104.845467 61.914112,104.603355 60.149349,104.646362 
	C56.948719,103.311180 53.864388,101.690887 50.471100,99.909676 
	C48.389271,97.691704 46.616394,95.634651 45.128029,93.288078 
	C46.587505,93.002281 47.762482,93.005997 49.285393,93.031769 
	C50.094486,93.105110 50.555645,93.156403 51.170113,93.361160 
	C51.539856,93.708481 51.769119,93.885742 52.182724,94.333183 
	C58.220085,97.750694 64.085945,100.881416 69.951805,104.012146 
z"/>
<path fill="#D5953C" opacity="1.000000" stroke="none" 
	d="
M48.937454,93.009705 
	C47.762482,93.005997 46.587505,93.002281 44.957237,92.980270 
	C44.328773,92.795235 44.191513,92.602837 44.011200,92.219986 
	C43.932243,92.055183 43.985237,91.922874 44.337261,91.919266 
	C46.105343,92.280342 47.521400,92.645027 48.937454,93.009705 
z"/>
<path fill="#673405" opacity="1.000000" stroke="none" 
	d="
M49.285393,93.031761 
	C47.521400,92.645027 46.105343,92.280342 44.316399,91.851128 
	C43.958694,91.348488 43.973873,90.910378 44.004005,90.143539 
	C46.761078,90.091820 49.503197,90.368828 52.876537,90.689713 
	C53.507759,90.733597 53.938847,90.688194 53.938847,90.688194 
	C55.337391,90.787659 56.735931,90.887123 58.552944,90.950142 
	C60.340912,91.052528 61.710415,91.191360 63.498199,91.685074 
	C63.932156,92.669380 63.947823,93.298798 63.550579,93.949623 
	C61.763592,94.059227 60.389523,94.147423 58.664505,94.181374 
	C57.841110,94.096123 57.368656,94.065117 56.811485,93.901733 
	C56.554874,93.587318 56.363396,93.563568 55.765533,93.598167 
	C54.581512,93.457863 53.784294,93.417496 52.667194,93.279221 
	C51.903812,93.190117 51.460304,93.198906 51.016800,93.207695 
	C50.555645,93.156403 50.094486,93.105110 49.285393,93.031761 
z"/>
<path fill="#D18D2E" opacity="1.000000" stroke="none" 
	d="
M81.305611,101.141983 
	C78.448433,102.152039 75.591255,103.162086 72.298950,103.754089 
	C69.817741,101.609756 67.822197,99.818298 65.708412,98.179329 
	C64.209572,97.017166 62.550995,96.060997 61.431313,95.011475 
	C63.724659,95.008156 65.579773,94.799706 67.369110,95.054008 
	C69.889709,95.412239 72.520950,95.753677 74.810043,96.767792 
	C77.159973,97.808861 79.155167,99.650635 81.305611,101.141983 
z"/>
<path fill="#E89D38" opacity="1.000000" stroke="none" 
	d="
M60.963718,95.012886 
	C62.550995,96.060997 64.209572,97.017166 65.708412,98.179329 
	C67.822197,99.818298 69.817741,101.609756 71.903854,103.690231 
	C71.943871,104.044441 71.632957,104.216652 71.455299,104.233589 
	C71.058395,104.202042 70.839142,104.153564 70.285843,104.058609 
	C64.085945,100.881416 58.220085,97.750694 52.354847,94.235321 
	C52.585583,93.718941 52.796116,93.561089 52.987072,93.377121 
	C53.784294,93.417496 54.581512,93.457863 55.880180,93.671997 
	C56.543419,93.935120 56.714943,93.997910 56.896202,94.034119 
	C57.368656,94.065117 57.841110,94.096123 58.891235,94.318283 
	C59.967178,94.677269 60.465450,94.845078 60.963718,95.012886 
z"/>
<path fill="#D5953C" opacity="1.000000" stroke="none" 
	d="
M61.431313,95.011475 
	C60.465450,94.845078 59.967178,94.677269 59.242180,94.372543 
	C60.389523,94.147423 61.763592,94.059227 63.933586,94.022461 
	C65.504166,94.029091 66.278831,93.984283 67.468842,93.960297 
	C69.544815,93.938080 71.205429,93.895050 73.289528,93.884186 
	C75.408409,93.865929 77.103813,93.815506 79.003601,94.058197 
	C81.480225,95.554573 83.752457,96.757820 86.024689,97.961075 
	C86.024689,97.961075 85.941406,98.398651 85.886169,98.614410 
	C84.977089,99.346985 84.123253,99.863800 83.080544,100.614624 
	C82.540443,100.922699 82.189217,100.996765 81.571800,101.106407 
	C79.155167,99.650635 77.159973,97.808861 74.810043,96.767792 
	C72.520950,95.753677 69.889709,95.412239 67.369110,95.054008 
	C65.579773,94.799706 63.724659,95.008156 61.431313,95.011475 
z"/>
<path fill="#E4BF6F" opacity="1.000000" stroke="none" 
	d="
M48.158920,62.236404 
	C48.381683,62.105740 48.577675,62.248112 48.869518,62.561020 
	C48.988400,62.699856 48.515247,62.800507 48.515247,62.800507 
	C48.515247,62.800507 48.155167,62.477741 48.158920,62.236404 
z"/>
<path fill="#845816" opacity="1.000000" stroke="none" 
	d="
M78.799217,93.765083 
	C77.103813,93.815506 75.408409,93.865929 72.990654,93.723000 
	C70.530029,93.666260 68.791763,93.802872 67.053490,93.939484 
	C66.278831,93.984283 65.504166,94.029091 64.346497,94.001053 
	C63.947823,93.298798 63.932156,92.669380 63.909222,91.725372 
	C64.382759,91.280579 64.863556,91.150368 66.153481,90.958176 
	C69.676941,90.797363 72.391281,90.698540 75.393875,90.646957 
	C76.242073,90.530243 76.802017,90.366280 77.663216,90.225952 
	C78.356514,90.159439 78.748550,90.069290 79.434914,90.001823 
	C80.120354,89.985802 80.511475,89.947098 81.187485,89.878876 
	C81.740036,89.584869 82.007690,89.320374 82.655266,89.059776 
	C84.777283,88.912552 86.519379,88.761421 88.261475,88.610306 
	C90.898567,88.010193 93.535652,87.410080 96.603027,86.784256 
	C97.001472,86.932388 96.969627,87.106232 96.861908,87.533745 
	C96.257286,87.961617 95.728539,88.135818 94.943695,88.422966 
	C93.913483,88.844719 93.139359,89.153542 92.117546,89.657997 
	C91.661667,90.257858 91.453476,90.662079 90.713272,91.291634 
	C86.387245,92.266335 82.593231,93.015709 78.799217,93.765083 
z"/>
<path fill="#845816" opacity="1.000000" stroke="none" 
	d="
M97.772713,86.733932 
	C97.818985,86.556168 98.177711,86.336090 98.858330,86.100342 
	C98.815201,86.286980 98.450180,86.489288 97.772713,86.733932 
z"/>
<path fill="#DCA54F" opacity="1.000000" stroke="none" 
	d="
M79.003601,94.058197 
	C82.593231,93.015709 86.387245,92.266335 90.616570,91.500351 
	C91.034134,91.719147 91.016388,91.954559 90.936554,92.538605 
	C90.539955,93.333069 90.205444,93.778900 89.817825,94.512451 
	C89.362801,95.179649 88.960884,95.559113 88.433105,96.189056 
	C88.031754,96.558502 87.803612,96.737732 87.515854,97.168884 
	C87.106941,97.508018 86.805000,97.655495 86.263870,97.882019 
	C83.752457,96.757820 81.480225,95.554573 79.003601,94.058197 
z"/>
<path fill="#B17E2E" opacity="1.000000" stroke="none" 
	d="
M70.072838,83.994415 
	C70.072838,83.994415 70.076561,83.562325 70.064697,83.346924 
	C73.140335,82.673447 76.227837,82.215363 79.685913,81.654541 
	C81.461288,81.568535 82.866089,81.585281 84.552521,81.808907 
	C84.387764,82.274017 83.941376,82.532249 82.910980,82.919525 
	C81.255402,84.397888 80.183846,85.747208 78.715378,87.149178 
	C75.550117,87.119621 72.781754,87.037415 70.030258,86.586052 
	C70.055687,85.476067 70.064262,84.735237 70.072838,83.994415 
z"/>
<path fill="#E7B35C" opacity="1.000000" stroke="none" 
	d="
M79.112282,87.096535 
	C80.183846,85.747208 81.255402,84.397888 82.669266,83.014954 
	C84.626427,84.646057 86.241280,86.310768 88.058807,88.292885 
	C86.519379,88.761421 84.777283,88.912552 82.410538,89.175911 
	C81.491455,89.494896 81.197021,89.701645 80.902588,89.908401 
	C80.511475,89.947098 80.120354,89.985802 79.402771,89.642288 
	C79.088295,88.538895 79.100288,87.817711 79.112282,87.096535 
z"/>
<path fill="#D48D33" opacity="1.000000" stroke="none" 
	d="
M48.427902,84.155792 
	C47.471577,83.463852 46.762814,82.890556 46.054050,82.317268 
	C46.226860,81.965851 46.399673,81.614433 46.572487,81.263016 
	C47.709751,81.855019 48.847019,82.447029 49.984283,83.039040 
	C49.548008,83.450844 49.111736,83.862648 48.427902,84.155792 
z"/>
<path fill="#D48D33" opacity="1.000000" stroke="none" 
	d="
M53.005737,83.103027 
	C53.001656,82.990021 53.491230,83.002464 53.735744,83.009438 
	C53.656780,83.082954 53.333302,83.149490 53.005737,83.103027 
z"/>
<path fill="#D48D33" opacity="1.000000" stroke="none" 
	d="
M53.840210,90.636108 
	C53.938847,90.688194 53.507759,90.733597 53.300064,90.673180 
	C53.305721,90.522141 53.522121,90.512566 53.840210,90.636108 
z"/>
<path fill="#E4A040" opacity="1.000000" stroke="none" 
	d="
M78.715378,87.149178 
	C79.100288,87.817711 79.088295,88.538895 79.108444,89.619606 
	C78.748550,90.069290 78.356514,90.159439 77.367889,90.217773 
	C76.216064,90.323875 75.660843,90.461792 75.105614,90.599716 
	C72.391281,90.698540 69.676941,90.797363 66.514740,90.859184 
	C65.753029,89.134598 65.439178,87.447021 65.134338,85.386375 
	C66.196503,85.009567 67.249672,85.005821 68.773155,85.263847 
	C69.500114,86.002159 69.756760,86.478683 70.013397,86.955215 
	C72.781754,87.037415 75.550117,87.119621 78.715378,87.149178 
z"/>
<path fill="#C79A4E" opacity="1.000000" stroke="none" 
	d="
M70.030258,86.586052 
	C69.756760,86.478683 69.500114,86.002159 69.170380,85.264664 
	C69.294807,84.762360 69.504341,84.531937 69.899353,84.153427 
	C70.064262,84.735237 70.055687,85.476067 70.030258,86.586052 
z"/>
<path fill="#D5953C" opacity="1.000000" stroke="none" 
	d="
M52.667194,93.279221 
	C52.796116,93.561089 52.585583,93.718941 52.183342,93.948540 
	C51.769119,93.885742 51.539856,93.708481 51.170113,93.361160 
	C51.460304,93.198906 51.903812,93.190117 52.667194,93.279221 
z"/>
<path fill="#D5953C" opacity="1.000000" stroke="none" 
	d="
M56.811485,93.901733 
	C56.714943,93.997910 56.543419,93.935120 56.266983,93.771927 
	C56.363396,93.563568 56.554874,93.587318 56.811485,93.901733 
z"/>
<path fill="#673405" opacity="1.000000" stroke="none" 
	d="
M67.468842,93.960297 
	C68.791763,93.802872 70.530029,93.666260 72.567177,93.690834 
	C71.205429,93.895050 69.544815,93.938080 67.468842,93.960297 
z"/>
<path fill="#D48D33" opacity="1.000000" stroke="none" 
	d="
M75.393875,90.646957 
	C75.660843,90.461792 76.216064,90.323875 77.066620,90.194138 
	C76.802017,90.366280 76.242073,90.530243 75.393875,90.646957 
z"/>
<path fill="#E4A040" opacity="1.000000" stroke="none" 
	d="
M81.187485,89.878883 
	C81.197021,89.701645 81.491455,89.494896 82.030617,89.172012 
	C82.007690,89.320374 81.740036,89.584869 81.187485,89.878883 
z"/>
</svg>