<svg version="1.1" id="Layer_1" xmlns="http://www.w3.org/2000/svg" xmlns:xlink="http://www.w3.org/1999/xlink" x="0px" y="0px"
	 width="100%" viewBox="0 0 700 700" enable-background="new 0 0 700 700" xml:space="preserve">
<path fill="#FDFFFE" opacity="1.000000" stroke="none" 
	d="
M1.000000,230.000000 
	C1.000000,153.333328 1.000000,77.166664 1.000000,1.000000 
	C234.333328,1.000000 467.666656,1.000000 701.000000,1.000000 
	C701.000000,234.333328 701.000000,467.666656 701.000000,701.000000 
	C467.666656,701.000000 234.333328,701.000000 1.000000,701.000000 
	C1.000000,544.166687 1.000000,387.333344 1.000000,230.000000 
M678.011780,310.500000 
	C678.011780,215.109116 678.011780,119.718224 678.011780,24.318634 
	C459.586548,24.318634 242.041077,24.318634 24.419205,24.318634 
	C24.419205,242.332230 24.419205,459.995575 24.419205,677.668335 
	C242.415207,677.668335 459.958008,677.668335 678.011780,677.668335 
	C678.011780,555.372620 678.011780,433.436310 678.011780,310.500000 
z"/>
<path fill="#49B2E3" opacity="1.000000" stroke="none" 
	d="
M678.011780,311.000000 
	C678.011780,433.436310 678.011780,555.372620 678.011780,677.668335 
	C459.958008,677.668335 242.415207,677.668335 24.419205,677.668335 
	C24.419205,459.995575 24.419205,242.332230 24.419205,24.318634 
	C242.041077,24.318634 459.586548,24.318634 678.011780,24.318634 
	C678.011780,119.718224 678.011780,215.109116 678.011780,311.000000 
M605.039124,144.789719 
	C607.893433,136.443161 605.931519,133.643188 597.369080,134.055496 
	C594.234741,134.206436 591.115112,134.941574 587.988708,134.942474 
	C431.709320,134.987762 275.429932,134.990707 119.150566,134.945206 
	C113.931198,134.943680 108.711151,134.410233 103.492950,134.099091 
	C99.014069,133.832031 97.095909,135.613342 96.962486,140.282700 
	C96.639862,151.574356 96.203651,162.865585 96.122841,174.159210 
	C96.104195,176.764771 97.328087,179.379211 98.647644,182.052200 
	C99.084023,182.144989 99.520409,182.237793 100.224396,183.053558 
	C102.118980,183.363739 104.013489,183.945053 105.908142,183.945541 
	C267.550598,183.987030 429.193054,183.983566 590.835510,183.983368 
	C593.501770,183.983353 596.181641,184.140366 598.827759,183.909943 
	C599.929199,183.814011 600.958740,182.892975 602.679932,182.166016 
	C603.130676,182.099319 603.581421,182.032639 604.727295,181.930176 
	C605.279053,181.246338 606.306274,180.562790 606.306641,179.878616 
	C606.309570,174.780014 606.208618,169.675278 605.900940,164.586914 
	C605.826050,163.347885 604.862244,162.162598 604.153442,160.037659 
	C604.210938,155.041855 604.268433,150.046036 605.039124,144.789719 
M97.833946,259.506165 
	C99.597626,259.676178 101.361275,259.994781 103.124977,259.995087 
	C261.645050,260.022461 420.165100,260.015137 578.685181,260.068634 
	C584.806702,260.070709 590.927185,260.814392 597.050110,260.847931 
	C599.017334,260.858734 600.990906,259.695343 603.637268,258.531158 
	C603.787354,244.398270 603.947876,230.265488 604.063660,216.132309 
	C604.071289,215.197495 603.737305,214.259888 603.549683,213.256592 
	C434.989990,213.256592 266.701080,213.256592 98.121208,213.256592 
	C98.121208,228.747391 98.121208,243.857834 97.833946,259.506165 
M383.500000,105.728081 
	C454.986603,105.733536 526.473389,105.674026 597.959412,105.876839 
	C603.257568,105.891869 604.351746,104.250061 604.211975,99.389046 
	C603.886414,88.067329 604.129822,76.729645 604.104126,65.398514 
	C604.099731,63.464901 603.903992,61.531727 603.792908,59.529507 
	C434.933624,59.529507 266.584473,59.529507 97.865273,59.529507 
	C97.865273,72.955032 97.881851,85.939171 97.858513,98.923241 
	C97.846252,105.742790 97.814697,105.742729 104.552322,105.742371 
	C197.201553,105.737442 289.850769,105.732521 383.500000,105.728081 
M394.500000,335.893921 
	C422.100189,335.893921 449.700378,335.893921 477.515472,335.893921 
	C477.515472,320.078644 477.515472,304.882660 477.515472,289.555542 
	C350.914062,289.555542 224.714691,289.555542 98.271416,289.555542 
	C98.271416,305.059875 98.271416,320.245361 98.271416,335.893768 
	C196.977020,335.893768 295.238525,335.893768 394.500000,335.893921 
M335.500000,366.122284 
	C256.411621,366.122284 177.323212,366.122284 97.844345,366.122284 
	C97.844345,380.284790 97.998756,393.605804 97.757019,406.919617 
	C97.677025,411.325012 98.735168,412.861542 103.510384,412.856323 
	C226.008957,412.722290 348.507721,412.756348 471.006439,412.761078 
	C473.118134,412.761169 475.229828,412.761078 477.428955,412.761078 
	C477.428955,396.848785 477.428955,381.653992 477.428955,366.122498 
	C430.137787,366.122498 383.318909,366.122498 335.500000,366.122284 
M97.874359,617.500122 
	C97.874359,625.777222 97.874359,634.054321 97.874359,642.578735 
	C182.465118,642.578735 266.360229,642.578735 350.476685,642.578735 
	C350.476685,627.061768 350.476685,611.873474 350.476685,596.662903 
	C266.154938,596.662903 182.256241,596.662903 97.874168,596.662903 
	C97.874168,603.546387 97.874168,610.023315 97.874359,617.500122 
M332.499298,443.030823 
	C254.418655,443.030823 176.337997,443.030823 98.250320,443.030823 
	C98.250320,458.770142 98.250320,473.672150 98.250320,488.749329 
	C182.536362,488.749329 266.424103,488.749329 350.598358,488.749329 
	C350.598358,473.479492 350.598358,458.578186 350.598358,443.030884 
	C344.724579,443.030884 339.111572,443.030884 332.499298,443.030823 
M234.500000,519.872803 
	C206.834564,519.872864 179.169113,519.872375 151.503677,519.872986 
	C135.504410,519.873352 119.501511,520.065430 103.508087,519.760376 
	C98.727478,519.669250 97.657097,521.257202 97.768188,525.715881 
	C98.058701,537.374878 97.861725,549.045776 97.888832,560.711914 
	C97.892555,562.314026 98.065407,563.915771 98.167778,565.650391 
	C182.506393,565.650391 266.407532,565.650391 350.590698,565.650391 
	C350.590698,550.407532 350.590698,535.509277 350.590698,519.872620 
	C312.037842,519.872620 273.768921,519.872620 234.500000,519.872803 
z"/>
<path fill="#FAFEFE" opacity="1.000000" stroke="none" 
	d="
M383.000000,105.727844 
	C289.850769,105.732521 197.201553,105.737442 104.552322,105.742371 
	C97.814697,105.742729 97.846252,105.742790 97.858513,98.923241 
	C97.881851,85.939171 97.865273,72.955032 97.865273,59.529507 
	C266.584473,59.529507 434.933624,59.529507 603.792908,59.529507 
	C603.903992,61.531727 604.099731,63.464901 604.104126,65.398514 
	C604.129822,76.729645 603.886414,88.067329 604.211975,99.389046 
	C604.351746,104.250061 603.257568,105.891869 597.959412,105.876839 
	C526.473389,105.674026 454.986603,105.733536 383.000000,105.727844 
z"/>
<path fill="#FDFFFF" opacity="1.000000" stroke="none" 
	d="
M98.121208,258.968262 
	C98.121208,243.857834 98.121208,228.747391 98.121208,213.256592 
	C266.701080,213.256592 434.989990,213.256592 603.549683,213.256592 
	C603.737305,214.259888 604.071289,215.197495 604.063660,216.132309 
	C603.947876,230.265488 603.787354,244.398270 602.837158,258.746613 
	C434.065155,258.964142 266.093170,258.966217 98.121208,258.968262 
z"/>
<path fill="#FDFFFF" opacity="1.000000" stroke="none" 
	d="
M604.032166,181.965942 
	C603.581421,182.032639 603.130676,182.099319 601.894287,182.133209 
	C599.776733,182.074432 598.444946,182.025711 597.113098,182.025711 
	C433.049530,182.024796 268.985962,182.026596 104.922409,182.042435 
	C103.267197,182.042587 101.611992,182.230392 99.956787,182.330597 
	C99.520409,182.237793 99.084023,182.144989 98.316948,181.553589 
	C97.979156,168.057678 98.192741,155.054550 97.851822,142.066010 
	C97.722954,137.156601 99.282425,135.981674 104.041824,135.985336 
	C267.342621,136.110626 430.643524,136.097443 593.944397,136.103775 
	C603.386719,136.104141 603.386719,136.102737 604.325867,145.050232 
	C604.268433,150.046036 604.210938,155.041855 604.118225,160.956650 
	C604.066040,168.572418 604.049133,175.269180 604.032166,181.965942 
z"/>
<path fill="#F9FDFD" opacity="1.000000" stroke="none" 
	d="
M394.000000,335.893860 
	C295.238525,335.893768 196.977020,335.893768 98.271416,335.893768 
	C98.271416,320.245361 98.271416,305.059875 98.271416,289.555542 
	C224.714691,289.555542 350.914062,289.555542 477.515472,289.555542 
	C477.515472,304.882660 477.515472,320.078644 477.515472,335.893921 
	C449.700378,335.893921 422.100189,335.893921 394.000000,335.893860 
z"/>
<path fill="#FAFEFE" opacity="1.000000" stroke="none" 
	d="
M336.000000,366.122375 
	C383.318909,366.122498 430.137787,366.122498 477.428955,366.122498 
	C477.428955,381.653992 477.428955,396.848785 477.428955,412.761078 
	C475.229828,412.761078 473.118134,412.761169 471.006439,412.761078 
	C348.507721,412.756348 226.008957,412.722290 103.510384,412.856323 
	C98.735168,412.861542 97.677025,411.325012 97.757019,406.919617 
	C97.998756,393.605804 97.844345,380.284790 97.844345,366.122284 
	C177.323212,366.122284 256.411621,366.122284 336.000000,366.122375 
z"/>
<path fill="#FAFEFE" opacity="1.000000" stroke="none" 
	d="
M97.874268,617.000183 
	C97.874168,610.023315 97.874168,603.546387 97.874168,596.662903 
	C182.256241,596.662903 266.154938,596.662903 350.476685,596.662903 
	C350.476685,611.873474 350.476685,627.061768 350.476685,642.578735 
	C266.360229,642.578735 182.465118,642.578735 97.874359,642.578735 
	C97.874359,634.054321 97.874359,625.777222 97.874268,617.000183 
z"/>
<path fill="#FCFFFE" opacity="1.000000" stroke="none" 
	d="
M332.998962,443.030853 
	C339.111572,443.030884 344.724579,443.030884 350.598358,443.030884 
	C350.598358,458.578186 350.598358,473.479492 350.598358,488.749329 
	C266.424103,488.749329 182.536362,488.749329 98.250320,488.749329 
	C98.250320,473.672150 98.250320,458.770142 98.250320,443.030823 
	C176.337997,443.030823 254.418655,443.030823 332.998962,443.030853 
z"/>
<path fill="#FDFFFF" opacity="1.000000" stroke="none" 
	d="
M235.000000,519.872681 
	C273.768921,519.872620 312.037842,519.872620 350.590698,519.872620 
	C350.590698,535.509277 350.590698,550.407532 350.590698,565.650391 
	C266.407532,565.650391 182.506393,565.650391 98.167778,565.650391 
	C98.065407,563.915771 97.892555,562.314026 97.888832,560.711914 
	C97.861725,549.045776 98.058701,537.374878 97.768188,525.715881 
	C97.657097,521.257202 98.727478,519.669250 103.508087,519.760376 
	C119.501511,520.065430 135.504410,519.873352 151.503677,519.872986 
	C179.169113,519.872375 206.834564,519.872864 235.000000,519.872681 
z"/>
<path fill="#71B1CE" opacity="1.000000" stroke="none" 
	d="
M100.090591,182.692078 
	C101.611992,182.230392 103.267197,182.042587 104.922409,182.042435 
	C268.985962,182.026596 433.049530,182.024796 597.113098,182.025711 
	C598.444946,182.025711 599.776733,182.074432 601.564819,182.223770 
	C600.958740,182.892975 599.929199,183.814011 598.827759,183.909943 
	C596.181641,184.140366 593.501770,183.983353 590.835510,183.983368 
	C429.193054,183.983566 267.550598,183.987030 105.908142,183.945541 
	C104.013489,183.945053 102.118980,183.363739 100.090591,182.692078 
z"/>
<path fill="#71B1CE" opacity="1.000000" stroke="none" 
	d="
M604.682495,144.919983 
	C603.386719,136.102737 603.386719,136.104141 593.944397,136.103775 
	C430.643524,136.097443 267.342621,136.110626 104.041824,135.985336 
	C99.282425,135.981674 97.722954,137.156601 97.851822,142.066010 
	C98.192741,155.054550 97.979156,168.057678 97.983223,181.522278 
	C97.328087,179.379211 96.104195,176.764771 96.122841,174.159210 
	C96.203651,162.865585 96.639862,151.574356 96.962486,140.282700 
	C97.095909,135.613342 99.014069,133.832031 103.492950,134.099091 
	C108.711151,134.410233 113.931198,134.943680 119.150566,134.945206 
	C275.429932,134.990707 431.709320,134.987762 587.988708,134.942474 
	C591.115112,134.941574 594.234741,134.206436 597.369080,134.055496 
	C605.931519,133.643188 607.893433,136.443161 604.682495,144.919983 
z"/>
<path fill="#66A2BD" opacity="1.000000" stroke="none" 
	d="
M97.977577,259.237213 
	C266.093170,258.966217 434.065155,258.964142 602.499390,259.015625 
	C600.990906,259.695343 599.017334,260.858734 597.050110,260.847931 
	C590.927185,260.814392 584.806702,260.070709 578.685181,260.068634 
	C420.165100,260.015137 261.645050,260.022461 103.124977,259.995087 
	C101.361275,259.994781 99.597626,259.676178 97.977577,259.237213 
z"/>
<path fill="#71B1CE" opacity="1.000000" stroke="none" 
	d="
M604.379761,181.948059 
	C604.049133,175.269180 604.066040,168.572418 604.195068,161.414124 
	C604.862244,162.162598 605.826050,163.347885 605.900940,164.586914 
	C606.208618,169.675278 606.309570,174.780014 606.306641,179.878616 
	C606.306274,180.562790 605.279053,181.246338 604.379761,181.948059 
z"/>
</svg>