<svg xmlns="http://www.w3.org/2000/svg" version="1.1" xmlns:xlink="http://www.w3.org/1999/xlink" xmlns:svgjs="http://svgjs.com/svgjs" width="512" height="512" x="0" y="0" viewBox="0 0 99.221 77.788" style="enable-background:new 0 0 512 512" xml:space="preserve"><g><path d="M69.754 59.012H29.498a2 2 0 0 1-2-2V30.07c0-10.934 8.895-19.829 19.829-19.829h4.598c10.934 0 19.829 8.895 19.829 19.829v26.942a2 2 0 0 1-2 2zm-38.256-4h36.256V30.07c0-8.728-7.101-15.829-15.829-15.829h-4.598c-8.728 0-15.829 7.101-15.829 15.829z" fill="#5e72e4" data-original="#000000"></path><path d="M73.495 69.464H25.757a2.002 2.002 0 0 1-1.883-2.674l3.742-10.451a2 2 0 0 1 1.883-1.326h40.256c.845 0 1.599.53 1.883 1.326l3.741 10.451a2.002 2.002 0 0 1-1.884 2.674zm-44.898-4h42.059l-2.31-6.451H30.907zM44.412 14.241c-2.372-.169-3.18-3.801-3.233-5.782 0-4.664 3.789-8.458 8.447-8.458 6.76-.134 10.923 8.05 6.828 13.423-1.594 2.092-4.742-.221-3.224-2.366 2.145-2.79-.072-7.16-3.604-7.056a4.457 4.457 0 0 0-4.447 4.457c0 .949.292 1.848.843 2.598.99 1.26-.032 3.232-1.61 3.184zM18.864 55.708a2 2 0 0 1-1.73-.993c-6.685-11.258-6.219-26.221 1.172-37.037 1.494-2.153 4.751.005 3.325 2.224-6.545 9.576-6.959 22.833-1.041 32.8.796 1.279-.234 3.046-1.726 3.006z" fill="#5e72e4" data-original="#000000"></path><path d="M7.8 61.409a1.999 1.999 0 0 1-1.745-1.02C-3.007 44.59-1.821 23.753 9.097 9.164c1.582-2.084 4.748.2 3.228 2.361-9.994 13.354-11.08 32.44-2.783 46.903.768 1.281-.262 3.02-1.742 2.981zM80.388 55.708c-1.492.034-2.522-1.722-1.727-3.007 5.92-9.967 5.505-23.224-1.04-32.8-1.424-2.195 1.823-4.393 3.324-2.224 7.392 10.816 7.859 25.778 1.173 37.037a1.999 1.999 0 0 1-1.73.994z" fill="#5e72e4" data-original="#000000"></path><path d="M91.452 61.409c-1.48.031-2.511-1.693-1.741-2.98 8.298-14.464 7.211-33.548-2.783-46.903-1.515-2.126 1.635-4.468 3.229-2.361 10.917 14.587 12.104 35.427 3.041 51.225a2.004 2.004 0 0 1-1.746 1.019zM49.626 77.79c-5.442 0-9.869-4.428-9.869-9.869a2 2 0 0 1 4 0 5.876 5.876 0 0 0 5.869 5.869 5.876 5.876 0 0 0 5.868-5.869 2 2 0 0 1 4 0c.001 5.441-4.426 9.869-9.868 9.869z" fill="#5e72e4" data-original="#000000"></path></g></svg>