<svg xmlns="http://www.w3.org/2000/svg" version="1.1" xmlns:xlink="http://www.w3.org/1999/xlink" xmlns:svgjs="http://svgjs.com/svgjs" width="512" height="512" x="0" y="0" viewBox="0 0 512.001 512.001" style="enable-background:new 0 0 512 512" xml:space="preserve" class=""><g><path d="m506.143 165.858-160-160a19.998 19.998 0 0 0-28.284 0c-9.259 9.259-13.754 25.759-20.558 50.735-7.977 29.283-18.901 69.388-38.11 88.597-12.397 12.397-39.128 13.456-67.429 14.577-36.565 1.448-78.008 3.089-105.903 30.984-7.811 7.811-7.811 20.474 0 28.284l90.35 90.35L5.937 477.78c-7.854 7.767-7.924 20.43-.157 28.284A19.943 19.943 0 0 0 20.001 512a19.938 19.938 0 0 0 14.063-5.78l170.429-168.551 88.473 88.473A19.937 19.937 0 0 0 307.108 432a19.937 19.937 0 0 0 14.142-5.858c25.027-25.027 28.81-60.683 30.39-92.139.554-11.032-7.939-20.424-18.971-20.978-11.024-.562-20.424 7.94-20.978 18.971-.974 19.373-2.902 35.706-7.838 48.464L131.561 208.169c17.202-6.669 39.761-7.562 61.784-8.434 34.743-1.376 70.667-2.798 94.13-26.261 26.725-26.725 39.264-72.757 48.42-106.368.995-3.653 2.097-7.7 3.229-11.699l117.47 117.47c-4 1.132-8.046 2.234-11.699 3.229-33.611 9.156-79.643 21.695-106.368 48.42-7.811 7.811-7.811 20.474 0 28.284 7.811 7.81 20.474 7.811 28.284 0 19.209-19.209 59.313-30.133 88.597-38.11 24.976-6.804 41.476-11.298 50.735-20.558a19.998 19.998 0 0 0 0-28.284z" fill="#5e72e4" data-original="#000000"></path></g></svg>