<svg xmlns="http://www.w3.org/2000/svg" version="1.1" xmlns:xlink="http://www.w3.org/1999/xlink" xmlns:svgjs="http://svgjs.com/svgjs" width="512" height="512" x="0" y="0" viewBox="0 0 50 50" style="enable-background:new 0 0 512 512" xml:space="preserve" class=""><g><g fill-rule="evenodd" clip-rule="evenodd"><path fill="#5e72e4" d="M24.88 2.604h.24c4.318 0 7.72 0 10.377.361 2.73.371 4.907 1.149 6.618 2.878 1.709 1.728 2.475 3.922 2.84 6.672.358 2.684.357 6.12.357 10.487v10.621c0 3.14 0 5.627-.2 7.5-.197 1.85-.621 3.519-1.833 4.635a6.227 6.227 0 0 1-3.512 1.61c-1.64.188-3.172-.596-4.68-1.665-1.528-1.081-3.38-2.72-5.717-4.787l-.076-.067c-1.084-.958-1.817-1.605-2.43-2.052-.59-.433-.952-.59-1.257-.65a3.075 3.075 0 0 0-1.215 0c-.304.06-.665.217-1.257.65-.612.447-1.345 1.094-2.429 2.052l-.076.067c-2.337 2.067-4.19 3.706-5.716 4.787-1.509 1.07-3.04 1.853-4.681 1.665a6.227 6.227 0 0 1-3.513-1.61c-1.21-1.116-1.635-2.785-1.832-4.636-.2-1.872-.2-4.358-.2-7.5v-10.62c0-4.367 0-7.803.356-10.487.366-2.75 1.132-4.944 2.841-6.672 1.711-1.73 3.888-2.507 6.618-2.878 2.658-.36 6.06-.36 10.377-.36zm-9.957 3.458c-2.376.323-3.781.933-4.816 1.98-1.038 1.048-1.644 2.475-1.965 4.885-.326 2.454-.33 5.682-.33 10.193v10.403c0 3.263.003 5.581.183 7.267.184 1.728.525 2.377.843 2.67.487.449 1.1.729 1.75.803.416.048 1.113-.113 2.52-1.11 1.372-.971 3.098-2.495 5.528-4.645l.054-.048c1.016-.898 1.858-1.642 2.6-2.186.778-.568 1.562-1.005 2.485-1.191a6.198 6.198 0 0 1 2.45 0c.923.186 1.707.623 2.484 1.191.744.544 1.585 1.288 2.6 2.186l.055.048c2.43 2.15 4.156 3.674 5.528 4.646 1.407.996 2.104 1.157 2.52 1.11a3.102 3.102 0 0 0 1.75-.804c.318-.293.659-.942.843-2.67.18-1.685.182-4.004.182-7.267V23.12c0-4.511-.003-7.739-.33-10.193-.32-2.41-.926-3.837-1.964-4.886-1.035-1.046-2.44-1.656-4.816-1.98C32.653 5.734 29.464 5.73 25 5.73s-7.653.004-10.076.333z" data-original="#222222" class=""></path><path fill="#999999" d="M17.188 12.5c0-.863.7-1.563 1.562-1.563h12.5a1.563 1.563 0 0 1 0 3.126h-12.5c-.863 0-1.563-.7-1.563-1.563z" data-original="#999999"></path></g></g></svg>