<svg id="regular" enable-background="new 0 0 24 24" height="512" viewBox="0 0 24 24" width="512" xmlns="http://www.w3.org/2000/svg"><path d="m2.149 18.169c-.264 0-.52-.139-.657-.386-.975-1.76-1.492-3.76-1.492-5.783 0-6.617 5.383-12 12-12 1.929 0 3.842.47 5.533 1.358.367.193.508.646.315 1.013-.191.367-.644.509-1.013.315-1.477-.776-3.148-1.186-4.835-1.186-5.79 0-10.5 4.71-10.5 10.5 0 1.769.451 3.517 1.305 5.056.2.362.069.819-.292 1.02-.116.063-.241.093-.364.093z"/><path d="m12 24c-2.223 0-4.392-.614-6.272-1.775-.353-.217-.462-.68-.245-1.032.218-.351.681-.462 1.032-.244 1.644 1.014 3.541 1.551 5.485 1.551 5.79 0 10.5-4.71 10.5-10.5 0-1.947-.536-3.84-1.551-5.474-.218-.352-.109-.814.242-1.033.352-.22.814-.11 1.032.242 1.163 1.871 1.777 4.038 1.777 6.265 0 6.617-5.383 12-12 12z"/><path d="m9.25 11.25c-.414 0-.75-.336-.75-.75 0-.551-.448-1-1-1s-1 .449-1 1c0 .414-.336.75-.75.75s-.75-.336-.75-.75c0-1.378 1.121-2.5 2.5-2.5s2.5 1.122 2.5 2.5c0 .414-.336.75-.75.75z"/><path d="m18.25 11.25c-.414 0-.75-.336-.75-.75 0-.551-.448-1-1-1s-1 .449-1 1c0 .414-.336.75-.75.75s-.75-.336-.75-.75c0-1.378 1.121-2.5 2.5-2.5s2.5 1.122 2.5 2.5c0 .414-.336.75-.75.75z"/><path d="m12 18c-2.184 0-4.236-.85-5.78-2.395-.293-.293-.293-.768 0-1.061s.768-.293 1.061 0c1.26 1.262 2.936 1.956 4.719 1.956s3.459-.694 4.72-1.955c.293-.293.768-.293 1.061 0s.293.768 0 1.061c-1.545 1.544-3.597 2.394-5.781 2.394z"/><path d="m20 8.036c-.15 0-.3-.045-.43-.135-.595-.417-3.57-2.594-3.57-4.601 0-1.288 1.097-2.335 2.445-2.335.579 0 1.125.195 1.555.531.43-.336.976-.531 1.555-.531 1.348-.001 2.445 1.047 2.445 2.335 0 2.007-2.975 4.185-3.57 4.601-.13.09-.28.135-.43.135zm-1.555-5.572c-.521 0-.945.375-.945.835 0 .8 1.367 2.177 2.5 3.055 1.153-.89 2.5-2.246 2.5-3.055 0-.46-.424-.835-.945-.835-.386 0-.729.203-.874.517-.246.53-1.115.53-1.361 0-.146-.314-.489-.517-.875-.517z"/><path d="m4 24.036c-.15 0-.3-.045-.43-.135-.595-.417-3.57-2.594-3.57-4.601 0-1.288 1.097-2.335 2.445-2.335.579 0 1.125.195 1.555.531.43-.336.976-.531 1.555-.531 1.348-.001 2.445 1.047 2.445 2.335 0 2.007-2.975 4.185-3.57 4.601-.13.09-.28.135-.43.135zm-1.555-5.572c-.521 0-.945.375-.945.835 0 .8 1.367 2.177 2.5 3.055 1.153-.89 2.5-2.246 2.5-3.055 0-.46-.424-.835-.945-.835-.386 0-.729.203-.874.517-.246.53-1.115.53-1.361 0-.146-.314-.489-.517-.875-.517z"/></svg>