<svg xmlns="http://www.w3.org/2000/svg" version="1.1" xmlns:xlink="http://www.w3.org/1999/xlink" xmlns:svgjs="http://svgjs.com/svgjs" width="512" height="512" x="0" y="0" viewBox="0 0 512 512" style="enable-background:new 0 0 512 512" xml:space="preserve" class=""><g><path fill="#5e72e4" d="M171.098 176.104H11.282c-5.522 0-10-4.477-10-10v-59.931c0-5.523 4.478-10 10-10h159.815c5.522 0 10 4.477 10 10v59.931c.001 5.522-4.477 10-9.999 10zm-149.816-20h139.815v-39.931H21.282z" data-original="#7878c8" class=""></path><path fill="#5e72e4" d="M340.902 176.104H171.098c-5.522 0-10-4.477-10-10v-59.931c0-5.523 4.478-10 10-10h169.805c5.522 0 10 4.477 10 10v59.931c-.001 5.522-4.478 10-10.001 10zm-159.804-20h149.805v-39.931H181.098z" data-original="#7878c8" class=""></path><path fill="#5e72e4" d="M360.879 236.035H251.006c-5.522 0-10-4.477-10-10v-59.931c0-5.523 4.478-10 10-10h109.873c5.522 0 10 4.477 10 10v59.931c0 5.523-4.478 10-10 10zm-99.873-20h89.873v-39.931h-89.873z" data-original="#fb7949" class=""></path><path fill="#5e72e4" d="M360.879 236.035H251.006c-5.522 0-10-4.477-10-10v-59.931c0-5.523 4.478-10 10-10h109.873c5.522 0 10 4.477 10 10v59.931c0 5.523-4.478 10-10 10zm-99.873-20h89.873v-39.931h-89.873z" data-original="#fb7949" class=""></path><path fill="#5e72e4" d="M251.006 236.035H141.133c-5.522 0-10-4.477-10-10v-59.931c0-5.523 4.478-10 10-10h109.873c5.522 0 10 4.477 10 10v59.931c0 5.523-4.478 10-10 10zm-99.873-20h89.873v-39.931h-89.873z" data-original="#fb7949" class=""></path><path fill="#5e72e4" d="M141.133 236.035H31.259c-5.522 0-10-4.477-10-10v-59.931c0-5.523 4.478-10 10-10h109.874c5.522 0 10 4.477 10 10v59.931c0 5.523-4.478 10-10 10zm-99.874-20h89.874v-39.931H41.259z" data-original="#fb7949" class=""></path><path fill="#5e72e4" d="M171.098 415.827H11.282c-5.522 0-10-4.478-10-10v-59.931c0-5.522 4.478-10 10-10h159.815c5.522 0 10 4.478 10 10v59.931c.001 5.523-4.477 10-9.999 10zm-149.816-20h139.815v-39.931H21.282z" data-original="#7878c8" class=""></path><path fill="#5e72e4" d="M340.902 415.827H171.098c-5.522 0-10-4.478-10-10v-59.931c0-5.522 4.478-10 10-10h169.805c5.522 0 10 4.478 10 10v59.931c-.001 5.523-4.478 10-10.001 10zm-159.804-20h149.805v-39.931H181.098z" data-original="#7878c8" class=""></path><path fill="#5e72e4" d="M500.718 415.827H340.902c-5.522 0-10-4.478-10-10v-59.931c0-5.522 4.478-10 10-10h159.815c5.522 0 10 4.478 10 10v59.931c.001 5.523-4.477 10-9.999 10zm-149.816-20h139.815v-39.931H350.902zM141.133 355.896H31.259c-5.522 0-10-4.478-10-10v-59.931c0-5.522 4.478-10 10-10h109.874c5.522 0 10 4.478 10 10v59.931c0 5.523-4.478 10-10 10zm-99.874-20h89.874v-39.931H41.259z" data-original="#7878c8" class=""></path><path fill="#5e72e4" d="M251.006 355.896H141.133c-5.522 0-10-4.478-10-10v-59.931c0-5.522 4.478-10 10-10h109.873c5.522 0 10 4.478 10 10v59.931c0 5.523-4.478 10-10 10zm-99.873-20h89.873v-39.931h-89.873z" data-original="#7878c8" class=""></path><path fill="#5e72e4" d="M251.006 355.896H141.133c-5.522 0-10-4.478-10-10v-59.931c0-5.522 4.478-10 10-10h109.873c5.522 0 10 4.478 10 10v59.931c0 5.523-4.478 10-10 10zm-99.873-20h89.873v-39.931h-89.873z" data-original="#7878c8" class=""></path><path fill="#5e72e4" d="M360.879 355.896H251.006c-5.522 0-10-4.478-10-10v-59.931c0-5.522 4.478-10 10-10h109.873c5.522 0 10 4.478 10 10v59.931c0 5.523-4.478 10-10 10zm-99.873-20h89.873v-39.931h-89.873z" data-original="#7878c8" class=""></path><path fill="#5e72e4" d="M360.879 355.896H251.006c-5.522 0-10-4.478-10-10v-59.931c0-5.522 4.478-10 10-10h109.873c5.522 0 10 4.478 10 10v59.931c0 5.523-4.478 10-10 10zm-99.873-20h89.873v-39.931h-89.873z" data-original="#7878c8" class=""></path><path fill="#5e72e4" d="M470.752 355.896H360.879c-5.522 0-10-4.478-10-10v-59.931c0-5.522 4.478-10 10-10h109.873c5.522 0 10 4.478 10 10v59.931c0 5.523-4.478 10-10 10zm-99.873-20h89.873v-39.931h-89.873z" data-original="#7878c8" class=""></path><path fill="#5e72e4" d="M251.006 236.035H141.133c-5.522 0-10-4.477-10-10v-59.931c0-5.523 4.478-10 10-10h109.873c5.522 0 10 4.477 10 10v59.931c0 5.523-4.478 10-10 10zm-99.873-20h89.873v-39.931h-89.873zM470.752 236.035H360.879c-5.522 0-10-4.477-10-10v-59.931c0-5.523 4.478-10 10-10h109.873c5.522 0 10 4.477 10 10v59.931c0 5.523-4.478 10-10 10zm-99.873-20h89.873v-39.931h-89.873z" data-original="#fb7949" class=""></path><path fill="#5e72e4" d="M171.098 295.966H11.282c-5.522 0-10-4.478-10-10v-59.931c0-5.523 4.478-10 10-10h159.815c5.522 0 10 4.477 10 10v59.931c.001 5.522-4.477 10-9.999 10zm-149.816-20h139.815v-39.931H21.282zM500.718 295.966H340.902c-5.522 0-10-4.478-10-10v-59.931c0-5.523 4.478-10 10-10h159.815c5.522 0 10 4.477 10 10v59.931c.001 5.522-4.477 10-9.999 10zm-149.816-20h139.815v-39.931H350.902z" data-original="#7878c8" class=""></path><path fill="#5e72e4" d="M340.902 295.966H171.098c-5.522 0-10-4.478-10-10v-59.931c0-5.523 4.478-10 10-10h169.805c5.522 0 10 4.477 10 10v59.931c-.001 5.522-4.478 10-10.001 10zm-159.804-20h149.805v-39.931H181.098z" data-original="#7878c8" class=""></path></g></svg>