<svg xmlns="http://www.w3.org/2000/svg" version="1.1" xmlns:xlink="http://www.w3.org/1999/xlink" xmlns:svgjs="http://svgjs.com/svgjs" width="512" height="512" x="0" y="0" viewBox="0 0 32 32" style="enable-background:new 0 0 512 512" xml:space="preserve" class=""><g><path fill="#5e72e4" d="M29 13.184V11c0-1.654-1.346-3-3-3h-3V7c0-1.654-1.346-3-3-3H7C4.243 4 2 6.243 2 9v16c0 1.654 1.346 3 3 3h21c1.654 0 3-1.346 3-3v-2.184A2.996 2.996 0 0 0 31 20v-4a2.996 2.996 0 0 0-2-2.816zM7 6h13c.552 0 1 .449 1 1v1H4.184A2.996 2.996 0 0 1 7 6zm19 20H5c-.552 0-1-.449-1-1V10h22c.552 0 1 .449 1 1v2h-4c-1.654 0-3 1.346-3 3v4c0 1.654 1.346 3 3 3h4v2c0 .551-.448 1-1 1zm3-6c0 .551-.448 1-1 1h-5c-.552 0-1-.449-1-1v-4c0-.551.448-1 1-1h5c.552 0 1 .449 1 1z" data-original="#06474d"></path><path fill="#5e72e4" d="M26 18a1 1 0 0 1-1 1h-1a1 1 0 1 1 0-2h1a1 1 0 0 1 1 1z" data-original="#3cacb6" class=""></path></g></svg>