<svg xmlns="http://www.w3.org/2000/svg" width="1520" height="1521" viewBox="0 0 1520 1521" version="1.1"><path d="" stroke="none" fill="#109cfc" fill-rule="evenodd"/><path d="M 1510.500 1.148 C 1507.200 1.646, 1498.425 2.975, 1491 4.100 C 1430.594 13.258, 1380.895 32.849, 1332.423 66.613 C 1300.699 88.710, 1274.276 114.742, 1246.393 151.367 L 1234.602 166.855 1228.551 162.068 C 1192.135 133.253, 1147.107 104.783, 1102 82.052 C 1010.509 35.946, 914.353 9.628, 811 2.406 C 781.558 0.348, 719.823 0.903, 693.500 3.462 C 622.031 10.408, 554.880 25.747, 492 49.489 C 293.184 124.557, 134.784 279.335, 55.511 476 C 15.715 574.726, -3.387 683.595, 0.811 787.756 C 3.953 865.745, 16.267 933.243, 40.351 1004.500 C 78.034 1115.991, 138.604 1213.336, 223 1298.042 C 347.634 1423.134, 513.011 1500.855, 690 1517.514 C 745.219 1522.711, 810.247 1521.375, 863 1513.959 C 993.658 1495.592, 1108.685 1448.222, 1214.853 1369.060 L 1234.861 1354.142 1246.611 1369.821 C 1262.240 1390.675, 1271.862 1401.699, 1289.118 1418.520 C 1316.470 1445.184, 1345.079 1465.513, 1379.560 1482.788 C 1400.858 1493.458, 1429.069 1503.834, 1453.500 1509.983 C 1469.366 1513.976, 1518.318 1522.015, 1519.510 1520.823 C 1519.908 1520.426, 1520.154 1000.927, 1520.056 367.750 C 1520.003 18.153, 1519.914 0.006, 1518.250 0.121 C 1517.287 0.187, 1513.800 0.649, 1510.500 1.148 M 731.575 342.995 C 616.583 352.018, 515.428 402.840, 441.934 488.514 C 398.276 539.408, 368.358 598.160, 352.573 664 C 332.120 749.305, 339.319 840.712, 372.732 920 C 413.186 1015.993, 481.618 1089.404, 573.326 1135.190 C 617.173 1157.081, 662.837 1170.697, 712 1176.540 C 730.203 1178.704, 772.706 1179.541, 791 1178.096 C 872.310 1171.675, 947.093 1143.343, 1012.500 1094.179 C 1064.182 1055.331, 1108.910 1000.507, 1137.062 941.500 C 1168.594 875.409, 1182.287 803.002, 1176.964 730.500 C 1171.492 655.971, 1146.408 584.411, 1104.230 523 C 1080.067 487.818, 1044.607 451.066, 1009.500 424.816 C 974.281 398.484, 929.205 375.256, 887.859 362.137 C 864.003 354.567, 829.975 347.402, 804 344.479 C 787.736 342.648, 746.705 341.808, 731.575 342.995 M 0.430 759 C 0.430 771.925, 0.573 777.212, 0.747 770.750 C 0.921 764.288, 0.921 753.712, 0.747 747.250 C 0.573 740.788, 0.430 746.075, 0.430 759" stroke="none" fill="#0c9cfc" fill-rule="evenodd"/></svg>