<svg xmlns="http://www.w3.org/2000/svg" version="1.1" xmlns:xlink="http://www.w3.org/1999/xlink" xmlns:svgjs="http://svgjs.com/svgjs" width="512" height="512" x="0" y="0" viewBox="0 0 173.397 173.397" style="enable-background:new 0 0 512 512" xml:space="preserve" class=""><g><path fill="#5e72e4" d="M140.75 135.795H32.646c-5.188 0-9.41-4.22-9.41-9.408V62.169c0-5.188 4.222-9.407 9.41-9.407l33.111-.001a1.672 1.672 0 0 1 0 3.342H32.646a6.075 6.075 0 0 0-6.068 6.067v64.217a6.074 6.074 0 0 0 6.068 6.066H140.75a6.074 6.074 0 0 0 6.068-6.066V62.169a6.074 6.074 0 0 0-6.068-6.066h-33.112a1.671 1.671 0 0 1 0-3.341l33.112-.001c5.187 0 9.41 4.22 9.41 9.409v64.217c0 5.187-4.223 9.408-9.41 9.408z" data-original="#db4437"></path><path fill="#5e72e4" d="M77.247 152.514a1.671 1.671 0 0 1-1.671-1.67v-16.72a1.67 1.67 0 1 1 3.342 0v16.719a1.67 1.67 0 0 1-1.671 1.671zm18.9 0a1.671 1.671 0 0 1-1.671-1.67v-16.72a1.67 1.67 0 0 1 3.342 0v16.719a1.67 1.67 0 0 1-1.67 1.671z" data-original="#db4437"></path><path fill="#5e72e4" d="M55.659 159.896h62.08v-3.691a3.693 3.693 0 0 0-3.69-3.69h-54.7a3.693 3.693 0 0 0-3.69 3.69zm63.751 3.341H53.988a1.671 1.671 0 0 1-1.672-1.67v-5.362a7.04 7.04 0 0 1 7.033-7.032h54.7c3.878 0 7.032 3.154 7.032 7.032v5.362a1.67 1.67 0 0 1-1.671 1.67zM148.49 123.709H24.908a1.671 1.671 0 0 1 0-3.342H148.49a1.671 1.671 0 0 1 0 3.342z" data-original="#db4437"></path><g fill="#1865c1"><path d="M64.129 73.687h45.14a59.073 59.073 0 0 1-3.294-20.532c0-.89.02-1.835.038-2.75.063-3.029.13-6.159-.487-8.948-1.94-8.774-9.856-15.142-18.827-15.142-8.972 0-16.892 6.368-18.828 15.142-.616 2.789-.55 5.92-.487 8.948.017.914.038 1.861.038 2.779a59.002 59.002 0 0 1-3.293 20.503zm47.542 3.342H61.724a1.67 1.67 0 0 1-1.553-2.285 55.772 55.772 0 0 0 3.909-21.532c0-.912-.017-1.799-.038-2.738-.066-3.225-.136-6.558.564-9.737 2.273-10.294 11.565-17.764 22.093-17.764s19.82 7.47 22.089 17.764c.703 3.178.633 6.513.567 9.737-.02.94-.038 1.826-.038 2.71a55.822 55.822 0 0 0 3.91 21.56 1.67 1.67 0 0 1-.174 1.554c-.31.458-.829.731-1.382.731z" fill="#1865c1" data-original="#1865c1" class=""></path><path d="M73.591 45.692a1.673 1.673 0 0 1-1.636-2.031c1.692-7.65 8.592-13.203 16.415-13.203a1.671 1.671 0 0 1 0 3.343c-6.267 0-11.795 4.45-13.15 10.58a1.672 1.672 0 0 1-1.629 1.311zM61.724 77.03a1.82 1.82 0 0 0-1.818 1.818 1.82 1.82 0 0 0 1.817 1.818h49.948c1.002 0 1.82-.816 1.82-1.818a1.822 1.822 0 0 0-1.82-1.819zm49.947 6.978H61.723a5.166 5.166 0 0 1-5.16-5.16 5.166 5.166 0 0 1 5.16-5.16l49.948-.001a5.167 5.167 0 0 1 5.162 5.16 5.166 5.166 0 0 1-5.162 5.16z" fill="#1865c1" data-original="#1865c1" class=""></path><path d="M86.698 93.605c-6.213 0-11.269-5.055-11.269-11.268a1.672 1.672 0 0 1 3.342 0c0 4.37 3.558 7.926 7.927 7.926 4.37 0 7.924-3.556 7.924-7.926a1.672 1.672 0 0 1 3.342 0c0 6.212-5.051 11.268-11.266 11.268zM92.958 27.28a1.671 1.671 0 0 1-1.671-1.671v-7.286a4.593 4.593 0 0 0-4.589-4.588 4.593 4.593 0 0 0-4.588 4.589v7.285a1.672 1.672 0 0 1-3.342 0v-7.286c0-4.372 3.558-7.93 7.93-7.93 4.373 0 7.931 3.558 7.931 7.93v7.286a1.67 1.67 0 0 1-1.67 1.67zM111.824 33.875a1.67 1.67 0 0 1-.84-3.118l12.485-7.207a1.67 1.67 0 0 1 1.67 2.895l-12.483 7.206c-.261.152-.55.224-.832.224zM129.123 44.653H114.71a1.672 1.672 0 0 1 0-3.342h14.413a1.671 1.671 0 0 1 0 3.342zM103.931 25.984a1.672 1.672 0 0 1-1.448-2.506l7.206-12.482a1.671 1.671 0 0 1 2.897 1.671l-7.207 12.481c-.31.537-.874.837-1.448.836zM61.574 33.875c-.283 0-.571-.072-.836-.224l-12.48-7.207a1.67 1.67 0 0 1 1.67-2.894l12.481 7.207a1.67 1.67 0 0 1-.836 3.118zM58.687 44.653H44.274a1.672 1.672 0 0 1 0-3.342h14.413a1.671 1.671 0 0 1 0 3.342zM69.466 25.984a1.67 1.67 0 0 1-1.448-.835L60.81 12.667a1.67 1.67 0 1 1 2.896-1.67l7.207 12.48a1.675 1.675 0 0 1-1.448 2.507z" fill="#1865c1" data-original="#1865c1" class=""></path></g></g></svg>