<svg xmlns="http://www.w3.org/2000/svg" version="1.1" xmlns:xlink="http://www.w3.org/1999/xlink" xmlns:svgjs="http://svgjs.com/svgjs" width="512" height="512" x="0" y="0" viewBox="0 0 24 24" style="enable-background:new 0 0 512 512" xml:space="preserve" class=""><g><g fill="#292d32" fill-rule="evenodd" clip-rule="evenodd"><path d="M6.79 6.75a5.327 5.327 0 0 0-.686.037c-1.209.104-2.01.5-2.521 1.101-.52.611-.833 1.543-.833 2.902v4c0 1.935.394 2.851.942 3.33.574.5 1.515.71 3.098.71h.4c.263 0 .508.084.692.177.185.093.391.238.544.437l.004.006 1.201 1.601c.146.196.284.232.359.232.075 0 .213-.036.359-.232l.001-.001 1.2-1.6c.292-.389.754-.62 1.24-.62h.4c1.36 0 2.292-.311 2.902-.83.6-.509.997-1.31 1.1-2.524l.004-.029c.025-.198.034-.415.034-.657v-4c0-1.479-.37-2.452-.98-3.06s-1.581-.98-3.06-.98zm-.828-1.456c.277-.034.555-.044.828-.044h6.4c1.711 0 3.133.43 4.122 1.418.988.99 1.418 2.41 1.418 4.122v4c0 .273-.01.551-.044.828-.129 1.48-.642 2.693-1.623 3.526-.975.828-2.303 1.186-3.873 1.186h-.4a.05.05 0 0 0-.022.006.052.052 0 0 0-.018.014l-1.199 1.599c-.384.514-.942.834-1.561.834-.62 0-1.177-.32-1.56-.834l-1.185-1.58a.27.27 0 0 0-.077-.039H6.79c-1.607 0-3.06-.186-4.085-1.08-1.049-.916-1.455-2.395-1.455-4.46v-4c0-1.571.362-2.899 1.19-3.873.834-.981 2.047-1.494 3.522-1.623z" fill="#5e72e4" data-original="#292d32" class=""></path><path d="M6.923 5.25h6.266c1.711 0 3.133.43 4.122 1.418.988.99 1.418 2.41 1.418 4.122v3.867c.749-.184 1.289-.517 1.668-.962.518-.609.832-1.54.832-2.905v-4c0-1.479-.37-2.452-.979-3.06s-1.582-.98-3.06-.98h-6.4c-1.36 0-2.292.313-2.903.833-.446.38-.78.92-.964 1.667zm-.007-2.81c.974-.828 2.302-1.19 3.873-1.19h6.4c1.711 0 3.133.43 4.122 1.418.988.99 1.418 2.41 1.418 4.122v4c0 1.576-.361 2.904-1.19 3.878-.837.983-2.056 1.493-3.536 1.62a.75.75 0 0 1-.808-.841c.025-.198.034-.415.034-.657v-4c0-1.479-.37-2.452-.979-3.06s-1.582-.98-3.06-.98h-6.4c-.243 0-.46.01-.658.034a.75.75 0 0 1-.84-.808c.126-1.481.64-2.7 1.624-3.536z" opacity=".4" fill="#5e72e4" data-original="#292d32" class=""></path><path d="M12.496 13.25a1 1 0 0 1 1-1h.01a1 1 0 1 1 0 2h-.01a1 1 0 0 1-1-1zM8.996 13.25a1 1 0 0 1 1-1h.01a1 1 0 1 1 0 2h-.01a1 1 0 0 1-1-1zM5.496 13.25a1 1 0 0 1 1-1h.01a1 1 0 1 1 0 2h-.01a1 1 0 0 1-1-1z" opacity=".4" fill="#5e72e4" data-original="#292d32" class=""></path></g></g></svg>