<svg xmlns="http://www.w3.org/2000/svg" version="1.1" xmlns:xlink="http://www.w3.org/1999/xlink" xmlns:svgjs="http://svgjs.com/svgjs" width="512" height="512" x="0" y="0" viewBox="0 0 514.139 514.139" style="enable-background:new 0 0 512 512" xml:space="preserve" class=""><g><path d="M434.092 28.995h-70.884c-4.142 0-7.5 3.357-7.5 7.5s3.358 7.5 7.5 7.5h70.884c35.867 0 65.046 29.18 65.046 65.046v246.54c0 35.866-29.18 65.045-65.046 65.045h-28.101a7.5 7.5 0 0 0-5.762 2.698l-37.792 45.352a4.03 4.03 0 0 1-3.137 1.469c-.714 0-2.072-.19-3.137-1.47l-37.792-45.351a7.5 7.5 0 0 0-5.762-2.698h-81.057c-4.142 0-7.5 3.357-7.5 7.5s3.358 7.5 7.5 7.5h77.544l35.542 42.651a19.032 19.032 0 0 0 14.661 6.867c5.68 0 11.024-2.503 14.66-6.866l35.542-42.652h24.588c44.138 0 80.046-35.908 80.046-80.045v-246.54c.004-44.138-35.905-80.046-80.043-80.046zM199.557 420.625H80.046C44.18 420.625 15 391.447 15 355.581v-246.54c0-35.866 29.18-65.046 65.046-65.046h251.166c4.142 0 7.5-3.357 7.5-7.5s-3.358-7.5-7.5-7.5H80.046C35.909 28.995 0 64.903 0 109.041v246.54c0 44.137 35.909 80.045 80.046 80.045h119.511a7.5 7.5 0 0 0 0-15.001z" fill="#5e72e4" data-original="#000000" class=""></path><path d="m262.627 340.679 32.99 12.211a31.344 31.344 0 0 0 10.893 1.958c12.798 0 24.857-7.866 29.552-20.552a31.439 31.439 0 0 0-3.939-29.268l-4.306-6.005 10.696-28.897a91.483 91.483 0 0 0 4.486-46.482 7.5 7.5 0 0 0-14.802 2.427 76.46 76.46 0 0 1-3.751 38.848l-12.079 32.634a7.501 7.501 0 0 0 .938 6.974l6.628 9.243a16.455 16.455 0 0 1 2.062 15.319c-3.153 8.521-12.653 12.884-21.171 9.733l-150.012-55.524a16.36 16.36 0 0 1-9.25-8.569 16.37 16.37 0 0 1-.482-12.602 16.458 16.458 0 0 1 11.54-10.286l11.047-2.7a7.5 7.5 0 0 0 5.253-4.682l12.079-32.634c7.091-19.158 21.218-34.408 39.779-42.94 18.56-8.532 39.333-9.327 58.491-2.235 16.366 6.057 29.794 17.149 38.832 32.078a7.5 7.5 0 0 0 12.832-7.768c-5.906-9.755-13.388-18.129-22.144-24.912l5.785-15.63c2.547-6.883 2.262-14.346-.803-21.014-3.066-6.668-8.545-11.743-15.427-14.29-6.884-2.551-14.347-2.264-21.014.803-6.668 3.065-11.744 8.544-14.291 15.427l-5.787 15.634c-14.538-.738-29.136 2.024-42.74 8.278-22.201 10.206-39.099 28.447-47.581 51.362l-10.696 28.897-7.178 1.755a31.439 31.439 0 0 0-22.045 19.649c-2.918 7.886-2.591 16.435.92 24.074s9.789 13.454 17.673 16.371l32.987 12.209c-7.166 22.649 4.691 47.247 27.203 55.58a44.624 44.624 0 0 0 15.525 2.792c17.549.002 34.116-10.378 41.307-27.266zm14.478-204.128a12.392 12.392 0 0 1 6.489-7.005c3.029-1.393 6.417-1.52 9.542-.364s5.612 3.461 7.004 6.488 1.521 6.416.365 9.541l-4.625 12.496a93.128 93.128 0 0 0-11.406-5.125 92.704 92.704 0 0 0-11.998-3.526zm-66.103 214.537c-14.754-5.461-22.634-21.418-18.321-36.298l27.93 10.337 27.93 10.337c-6.414 14.104-22.787 21.082-37.539 15.624zM380.893 314.516a7.5 7.5 0 0 0 6.265 13.628c18.035-8.291 31.762-23.109 38.652-41.725 6.89-18.614 6.118-38.798-2.173-56.834a7.5 7.5 0 0 0-13.629 6.265c6.618 14.395 7.233 30.505 1.734 45.361-5.499 14.861-16.455 26.688-30.849 33.305z" fill="#5e72e4" data-original="#000000" class=""></path><path d="M368.362 287.258a7.5 7.5 0 0 0 3.137 14.316 7.46 7.46 0 0 0 3.127-.688c10.754-4.943 18.94-13.779 23.048-24.88 4.109-11.101 3.648-23.136-1.295-33.891a7.5 7.5 0 1 0-13.629 6.265c3.271 7.114 3.575 15.076.857 22.419-2.717 7.345-8.131 13.189-15.245 16.459zM134.978 134.055a7.5 7.5 0 0 0-6.265-13.629c-18.035 8.291-31.761 23.109-38.651 41.725-6.89 18.614-6.119 38.799 2.172 56.834a7.5 7.5 0 0 0 6.819 4.369 7.5 7.5 0 0 0 6.81-10.635c-6.617-14.395-7.233-30.504-1.734-45.361 5.499-14.858 16.454-26.686 30.849-33.303z" fill="#5e72e4" data-original="#000000" class=""></path><path d="M147.509 161.313a7.5 7.5 0 0 0-6.265-13.629c-22.2 10.206-31.958 36.57-21.752 58.771a7.5 7.5 0 0 0 6.819 4.369 7.5 7.5 0 0 0 6.81-10.635c-6.752-14.685-.297-32.125 14.388-38.876z" fill="#5e72e4" data-original="#000000" class=""></path></g></svg>