<svg id="Layer_1" enable-background="new 0 0 512 512" height="512" viewBox="0 0 512 512" width="512" xmlns="http://www.w3.org/2000/svg"><g><g><path d="m256 471c-57.4 0-111.4-22.4-152-63s-63-94.6-63-152 22.4-111.4 63-152 94.6-63 152-63 111.4 22.4 152 63 63 94.6 63 152-22.4 111.4-63 152-94.6 63-152 63zm0-420.2c-113.2 0-205.2 92-205.2 205.2s92.1 205.2 205.2 205.2c113.2 0 205.2-92.1 205.2-205.2 0-113.2-92-205.2-205.2-205.2z" fill="#ec407a"/></g><g><path d="m256 427.3c-94.5 0-171.3-76.9-171.3-171.3 0-94.5 76.9-171.3 171.3-171.3 94.5 0 171.3 76.9 171.3 171.3 0 94.5-76.8 171.3-171.3 171.3zm0-332.8c-89.1 0-161.5 72.5-161.5 161.5s72.4 161.5 161.5 161.5 161.5-72.4 161.5-161.5-72.4-161.5-161.5-161.5z" fill="#ec407a"/></g><g><path d="m184.8 354c-7.2 0-13.9-2.8-19-7.9-5.1-5-7.9-11.7-7.9-18.8 0-7.2 2.8-14 7.9-19.1l52.2-52.2-52.2-52.2c-5.1-5-7.9-11.7-7.9-18.8 0-7.2 2.8-14 7.9-19.1 5-5.1 11.7-7.9 18.8-7.9 7.2 0 14 2.8 19.1 7.9l52.2 52.2 52.2-52.2c5-5.1 11.7-7.9 18.8-7.9h.1c7.2 0 13.9 2.8 19 7.9 5.1 5 7.9 11.7 7.9 18.8 0 7.2-2.8 14-7.9 19.1l-52.1 52.2 52.2 52.2c5.1 5 7.9 11.7 7.9 18.8 0 7.2-2.8 14-7.9 19.1-5 5.1-11.7 7.9-18.8 7.9h-.1c-7.2 0-13.9-2.8-19-7.9l-52.2-52.2-52.2 52.2c-5 5.1-11.7 7.9-19 7.9.1 0 .1 0 0 0zm0-186.2c-4.6 0-8.8 1.8-12 5-3.3 3.3-5.1 7.6-5 12.1 0 4.5 1.8 8.8 5 11.9l55.7 55.7c1.9 1.9 1.9 5 0 6.9l-55.7 55.7c-3.2 3.2-5 7.6-5 12.1s1.8 8.8 5 11.9c3.3 3.3 7.6 5 12.1 5s8.8-1.8 11.9-5l55.7-55.7c1.9-1.9 5-1.9 6.9 0l55.7 55.7c3.2 3.2 7.5 5 12.1 5 4.5 0 8.8-1.8 11.9-5 3.3-3.3 5.1-7.6 5-12.1 0-4.5-1.8-8.8-5-11.9l-55.7-55.7c-1.9-1.9-1.9-5 0-6.9l55.7-55.7c3.2-3.2 5-7.6 5-12.1s-1.8-8.8-5-11.9c-3.2-3.2-7.5-5-12.1-5-4.5 0-8.8 1.8-11.9 5l-55.7 55.7c-1.9 1.9-5 1.9-6.9 0l-55.7-55.7c-3.2-3.3-7.5-5-12-5z" fill="#ec407a"/></g></g></svg>