<?xml version="1.0" encoding="UTF-8"?>
<svg xmlns="http://www.w3.org/2000/svg" id="Layer_1" data-name="Layer 1" viewBox="0 0 64 64" width="512" height="512"><path d="M18,61H4a1,1,0,0,1-1-1V52a1,1,0,0,1,1-1H18a1,1,0,0,1,1,1v8A1,1,0,0,1,18,61ZM5,59H17V53H5Z"/><path d="M32,61H18a1,1,0,0,1-1-1V52a1,1,0,0,1,1-1H32a1,1,0,0,1,1,1v8A1,1,0,0,1,32,61ZM19,59H31V53H19Z"/><path d="M46,61H32a1,1,0,0,1-1-1V52a1,1,0,0,1,1-1H46a1,1,0,0,1,1,1v8A1,1,0,0,1,46,61ZM33,59H45V53H33Z"/><path d="M60,61H46a1,1,0,0,1-1-1V52a1,1,0,0,1,1-1H60a1,1,0,0,1,1,1v8A1,1,0,0,1,60,61ZM47,59H59V53H47Z"/><path d="M18,45H4a1,1,0,0,1-1-1V36a1,1,0,0,1,1-1H8a1,1,0,0,1,0,2H5v6H17V37H11a1,1,0,0,1,0-2h7a1,1,0,0,1,1,1v8A1,1,0,0,1,18,45Z"/><path d="M22,45H18a1,1,0,0,1-1-1V36a1,1,0,0,1,2,0v7h3a1,1,0,0,1,0,2Z"/><path d="M46,45H43a1,1,0,0,1,0-2h2V36a1,1,0,0,1,2,0v8A1,1,0,0,1,46,45Z"/><path d="M60,45H56a1,1,0,0,1,0-2h3V37H47v6h6a1,1,0,0,1,0,2H46a1,1,0,0,1-1-1V36a1,1,0,0,1,1-1H60a1,1,0,0,1,1,1v8A1,1,0,0,1,60,45Z"/><path d="M25,53H11a1,1,0,0,1-1-1V44a1,1,0,0,1,2,0v7H24V47a1,1,0,0,1,2,0v5A1,1,0,0,1,25,53Z"/><path d="M39,53H25a1,1,0,0,1,0-2H38V47a1,1,0,0,1,2,0v5A1,1,0,0,1,39,53Z"/><path d="M53,53H39a1,1,0,0,1-1-1V47a1,1,0,0,1,2,0v4H52V45H43a1,1,0,0,1,0-2H53a1,1,0,0,1,1,1v8A1,1,0,0,1,53,53Z"/><path d="M17,29H4a1,1,0,0,1-1-1V20a1,1,0,0,1,1-1H20a1,1,0,0,1,0,2H5v6H17a1,1,0,0,1,0,2Z"/><path d="M60,29H47a1,1,0,0,1,0-2H59V21H56a1,1,0,0,1,0-2h4a1,1,0,0,1,1,1v8A1,1,0,0,1,60,29Z"/><path d="M53,21H46a1,1,0,0,1,0-2h7a1,1,0,0,1,0,2Z"/><path d="M18,37H11a1,1,0,0,1-1-1V28a1,1,0,0,1,1-1h6a1,1,0,0,1,0,2H12v6h6a1,1,0,0,1,0,2Z"/><path d="M53,37H47a1,1,0,0,1,0-2h5V29H47a1,1,0,0,1,0-2h6a1,1,0,0,1,1,1v8A1,1,0,0,1,53,37Z"/><path d="M18,13H11a1,1,0,0,1,0-2h6V5H5v6H8a1,1,0,0,1,0,2H4a1,1,0,0,1-1-1V4A1,1,0,0,1,4,3H18a1,1,0,0,1,1,1v8A1,1,0,0,1,18,13Z"/><path d="M32,13H18a1,1,0,0,1-1-1V4a1,1,0,0,1,1-1H32a1,1,0,0,1,1,1v8A1,1,0,0,1,32,13ZM19,11H31V5H19Z"/><path d="M46,13H32a1,1,0,0,1-1-1V4a1,1,0,0,1,1-1H46a1,1,0,0,1,1,1v8A1,1,0,0,1,46,13ZM33,11H45V5H33Z"/><path d="M60,13H46a1,1,0,0,1-1-1V4a1,1,0,0,1,1-1H60a1,1,0,0,1,1,1v8A1,1,0,0,1,60,13ZM47,11H59V5H47Z"/><path d="M11,21a1,1,0,0,1-1-1V12a1,1,0,0,1,1-1H25a1,1,0,0,1,1,1v5a1,1,0,0,1-2,0V13H12v7A1,1,0,0,1,11,21Z"/><path d="M39,19a1,1,0,0,1-1-1V13H26v4a1,1,0,0,1-2,0V12a1,1,0,0,1,1-1H39a1,1,0,0,1,1,1v6A1,1,0,0,1,39,19Z"/><path d="M53,21a1,1,0,0,1-1-1V13H40v5a1,1,0,0,1-2,0V12a1,1,0,0,1,1-1H53a1,1,0,0,1,1,1v8A1,1,0,0,1,53,21Z"/><path d="M32,48a1,1,0,0,1-.316-.051A18.755,18.755,0,0,1,19.007,33.121.971.971,0,0,1,19,33V23a1,1,0,0,1,1-1c6.573,0,11.177-5.573,11.223-5.629a1.036,1.036,0,0,1,1.554,0C32.823,16.427,37.427,22,44,22a1,1,0,0,1,1,1v2a1,1,0,0,1-2,0V23.964c-5.416-.388-9.393-3.833-11-5.478-1.607,1.645-5.584,5.09-11,5.478v8.97A16.753,16.753,0,0,0,32,45.943,16.976,16.976,0,0,0,43,32.931V28a1,1,0,0,1,2,0v5a.971.971,0,0,1-.007.121A18.753,18.753,0,0,1,32.316,47.949,1,1,0,0,1,32,48Z"/><path d="M30,38a1,1,0,0,1-.707-.293l-4-4a1,1,0,0,1,1.414-1.414L30,35.586l7.293-7.293a1,1,0,0,1,1.414,1.414l-8,8A1,1,0,0,1,30,38Z"/></svg>
