<svg xmlns="http://www.w3.org/2000/svg" version="1.1" xmlns:xlink="http://www.w3.org/1999/xlink" xmlns:svgjs="http://svgjs.com/svgjs" width="512" height="512" x="0" y="0" viewBox="0 0 32 32" style="enable-background:new 0 0 512 512" xml:space="preserve" class=""><g><g data-name="Layer 2"><path fill="#5e72e4" d="M19 29.25H5a2.753 2.753 0 0 1-2.75-2.75v-2a9.75 9.75 0 0 1 19.5 0v2A2.753 2.753 0 0 1 19 29.25zm-7-13a8.26 8.26 0 0 0-8.25 8.25v2A1.251 1.251 0 0 0 5 27.75h14a1.251 1.251 0 0 0 1.25-1.25v-2A8.26 8.26 0 0 0 12 16.25z" data-original="#232323"></path><path fill="#5e72e4" d="M12 16.25a6.749 6.749 0 1 1 5.482-2.812.75.75 0 1 1-1.216-.877A5.25 5.25 0 1 0 12 14.75a.75.75 0 0 1 0 1.5z" data-original="#232323"></path><g fill="#7fbde7"><path d="M29 12.75h-8a.75.75 0 0 1 0-1.5h8a.75.75 0 0 1 0 1.5z" fill="#5e72e4" data-original="#7fbde7" class=""></path><path d="M25 16.75a.75.75 0 0 1-.75-.75V8a.75.75 0 0 1 1.5 0v8a.75.75 0 0 1-.75.75z" fill="#5e72e4" data-original="#7fbde7" class=""></path></g></g></g></svg>