<svg xmlns="http://www.w3.org/2000/svg" version="1.1" xmlns:xlink="http://www.w3.org/1999/xlink" xmlns:svgjs="http://svgjs.com/svgjs" width="512" height="512" x="0" y="0" viewBox="0 0 32 32" style="enable-background:new 0 0 512 512" xml:space="preserve" class=""><g><path fill="#5e72e4" d="M26.91 3.27h-3.099v-.313a.9.9 0 0 0-1.8 0v.313H16.9v-.313a.9.9 0 0 0-1.8 0v.313H9.99v-.313a.9.9 0 0 0-1.8 0v.313h-3.1c-2.2 0-3.99 1.79-3.99 3.99v18.69c0 2.2 1.79 3.99 3.99 3.99h12.08a.9.9 0 0 0 0-1.8H5.09a2.192 2.192 0 0 1-2.189-2.189V7.26A2.192 2.192 0 0 1 5.09 5.07h3.099v.32a.9.9 0 0 0 1.8 0v-.32h5.11v.32a.9.9 0 0 0 1.8 0v-.32h5.11v.32a.9.9 0 0 0 1.8 0v-.32h3.099c1.207 0 2.189.982 2.189 2.189v8.96a.9.9 0 0 0 1.8 0V7.26a3.99 3.99 0 0 0-3.987-3.99z" data-original="#6621ba"></path><path fill="#5e72e4" d="M26.729 11.701a.9.9 0 0 0-.9-.9H6.171a.9.9 0 0 0 0 1.8h19.658a.9.9 0 0 0 .9-.9z" data-original="#6621ba"></path><g fill="#f98a17"><path d="M24.772 17.688c-3.379 0-6.128 2.749-6.128 6.128s2.749 6.128 6.128 6.128 6.128-2.749 6.128-6.128-2.749-6.128-6.128-6.128zm0 10.455c-2.386 0-4.327-1.941-4.327-4.327s1.941-4.327 4.327-4.327S29.1 21.43 29.1 23.815s-1.942 4.328-4.328 4.328z" fill="#5e72e4" data-original="#f98a17" class=""></path><path d="m25.985 22.225-1.842 1.483-.44-.562a.9.9 0 1 0-1.416 1.112l1.003 1.279a.898.898 0 0 0 1.272.146l2.552-2.056a.9.9 0 0 0-1.129-1.402z" fill="#5e72e4" data-original="#f98a17" class=""></path></g></g></svg>