<svg xmlns="http://www.w3.org/2000/svg" version="1.1" xmlns:xlink="http://www.w3.org/1999/xlink" xmlns:svgjs="http://svgjs.com/svgjs" width="512" height="512" x="0" y="0" viewBox="0 0 24 24" style="enable-background:new 0 0 512 512" xml:space="preserve" class=""><g><g data-name="Layer 2"><g fill="#232323"><path d="M14 8.75h-4a.76.76 0 0 1-.67-.41L6.69 3.06a1.26 1.26 0 0 1 .06-1.22 1.23 1.23 0 0 1 1.06-.59h8.38a1.23 1.23 0 0 1 1.06.59 1.26 1.26 0 0 1 .06 1.22l-1.67 3.33a.75.75 0 0 1-1 .34.76.76 0 0 1-.34-1l1.49-3H8.21l2.25 4.5H14a.75.75 0 0 1 0 1.5z" fill="#5e72e4" data-original="#232323" class=""></path><path d="M17.09 22.75H6.91a2.75 2.75 0 0 1-2.6-1.84 9.67 9.67 0 0 1-.53-4c.39-5.17 5-9.08 5.83-9.58a.77.77 0 0 1 .39-.08h4a.77.77 0 0 1 .39.11c.83.5 5.44 4.41 5.83 9.58a9.67 9.67 0 0 1-.53 4 2.75 2.75 0 0 1-2.6 1.81zm-6.86-14c-1 .71-4.64 4.13-5 8.31a8.3 8.3 0 0 0 .46 3.36 1.23 1.23 0 0 0 1.18.83h10.22a1.23 1.23 0 0 0 1.18-.83 8.3 8.3 0 0 0 .46-3.36c-.32-4.18-4-7.6-5-8.31z" fill="#5e72e4" data-original="#232323" class=""></path><path d="M13 11.75a.75.75 0 0 1-.71-.51l-1-3a.75.75 0 0 1 .47-1 .74.74 0 0 1 1 .47l1 3a.75.75 0 0 1-.47 1 .67.67 0 0 1-.29.04z" fill="#5e72e4" data-original="#232323" class=""></path><path d="M19 8.75h-6a.75.75 0 0 1 0-1.5h6a.75.75 0 0 1 0 1.5z" fill="#5e72e4" data-original="#232323" class=""></path></g><path fill="#7fbde7" d="M12 18.75A2.75 2.75 0 1 1 14.75 16 2.75 2.75 0 0 1 12 18.75zm0-4A1.25 1.25 0 1 0 13.25 16 1.25 1.25 0 0 0 12 14.75z" data-original="#7fbde7" class=""></path></g></g></svg>