<svg xmlns="http://www.w3.org/2000/svg" version="1.1" xmlns:xlink="http://www.w3.org/1999/xlink" xmlns:svgjs="http://svgjs.com/svgjs" width="512" height="512" x="0" y="0" viewBox="0 0 512 512" style="enable-background:new 0 0 512 512" xml:space="preserve" class=""><g><path d="m203.556 345.012 70.71-212.133c2.619-7.859-1.628-16.354-9.487-18.974-7.858-2.619-16.354 1.628-18.974 9.487l-70.71 212.133c-2.619 7.859 1.628 16.354 9.487 18.974 1.573.524 3.173.773 4.745.773 6.28.001 12.133-3.974 14.229-10.26zM309.533 279.203c24.813 0 45-20.187 45-45s-20.187-45-45-45-45 20.187-45 45 20.187 45 45 45zm0-60c8.271 0 15 6.729 15 15s-6.729 15-15 15-15-6.729-15-15 6.729-15 15-15zM139.827 189.203c-24.813 0-45 20.187-45 45s20.187 45 45 45 45-20.187 45-45-20.186-45-45-45zm0 60c-8.271 0-15-6.729-15-15s6.729-15 15-15 15 6.729 15 15-6.728 15-15 15z" fill="#5e72e4" data-original="#000000" class=""></path><path d="m509 186-52.307-69.743 2.041-14.283a15 15 0 0 0-4.243-12.728l-31.82-31.82 31.819-31.82c5.858-5.857 5.858-15.355 0-21.213-5.857-5.857-15.355-5.857-21.213 0l-31.819 31.82-31.82-31.82A15.016 15.016 0 0 0 356.91.15L208.417 21.363a15 15 0 0 0-8.485 4.243L16.084 209.454c-21.445 21.444-21.445 56.338 0 77.782L171.647 442.8A54.866 54.866 0 0 0 182 450.918V457c0 30.327 24.673 55 55 55h220c30.327 0 55-24.673 55-55V195c0-3.245-1.053-6.404-3-9zM37.297 266.023c-9.748-9.748-9.748-25.608 0-35.356L217.609 50.355 353.727 30.91l26.517 26.517-21.213 21.213-10.607-10.607c-5.857-5.857-15.355-5.857-21.213 0s-5.858 15.355 0 21.213l42.427 42.427c2.929 2.929 6.768 4.394 10.606 4.394s7.678-1.465 10.606-4.394c5.858-5.857 5.858-15.355 0-21.213l-10.607-10.607 21.213-21.213 26.517 26.517-19.446 136.118-180.311 180.312c-4.722 4.722-11 7.322-17.678 7.322s-12.956-2.601-17.678-7.322zM482 457c0 13.785-11.215 25-25 25H237c-13.164 0-23.976-10.228-24.925-23.154 13.567-.376 27.022-5.714 37.353-16.046l183.848-183.848a15 15 0 0 0 4.243-8.485l13.173-92.21L482 200z" fill="#5e72e4" data-original="#000000" class=""></path></g></svg>