<svg id="Layer_1" enable-background="new 0 0 512 512" height="512" viewBox="0 0 512 512" width="512" xmlns="http://www.w3.org/2000/svg"><path d="m512.5 255.8c0-49.3-2.5-93.9-9.9-119.7-8.7-30.2-18.2-57.8-44.7-82.2-31.6-29-60.3-38.8-101.9-46.9-30.9-6-66.9-7.3-89.4-7.2-6.7 0-13.4 0-20.1 0-22.5-.1-58.5 1.2-89.4 7.2-41.6 8.1-70.3 17.9-101.9 47-26.5 24.4-36 52-44.7 82.2-7.5 25.8-10 70.4-10 119.6v.1.1c0 49.2 2.5 93.8 9.9 119.6 8.7 30.2 18.2 57.8 44.7 82.2 31.6 29.1 60.3 38.9 101.9 47 36 7 78.8 7.6 99.2 7l.2.2.2-.2c20.5.6 63.3-.1 99.2-7 41.6-8.1 70.3-17.9 101.9-47 26.5-24.4 36-52 44.7-82.2 7.6-25.8 10.1-70.5 10.1-119.8z" fill="#379df1"/><path d="m316.5 100c-51.4 0-91.4 40-91.4 89.4 0 9.7 0 19.2 3.1 28-32.3 37.9-125.6 145.9-125.6 145.9l2.2 27.2s26.1 24.7 30 21c11.5-11.2 18.6-18.9 18.6-18.9l5.4-32.5 35.3-2.6 2.8-35.1 37.2-.7.4-37.6 39.5 1.6 6.7-14.1c11.6 5 22.2 7 35.8 7 51.4 0 93-40 93-89.4s-41.6-89.2-93-89.2zm21 101.2c-16.1 0-29.2-13-29.2-29.2 0-16.1 13-29.1 29.2-29.1 16-.1 29.1 13 29.2 29.1 0 16.2-13.1 29.2-29.2 29.2z" fill="#fff"/></svg>