<?xml version="1.0" encoding="iso-8859-1"?>
<!-- Generator: Adobe Illustrator 19.0.0, SVG Export Plug-In . SVG Version: 6.00 Build 0)  -->
<svg version="1.1" id="Capa_1" xmlns="http://www.w3.org/2000/svg" xmlns:xlink="http://www.w3.org/1999/xlink" x="0px" y="0px"
	 viewBox="0 0 502.596 502.596" style="enable-background:new 0 0 502.596 502.596;" xml:space="preserve">
<path style="fill:#4DCFE0;" d="M67.918,225.959c-18.286,0-35.004-7.314-48.065-19.853C6.792,193.045,0,176.327,0,158.041
	s7.314-35.004,19.853-48.065c6.269-6.269,16.196-6.269,21.943,0c6.269,6.269,6.269,16.196,0,21.943
	c-6.792,6.792-10.449,16.196-10.449,25.6s3.657,18.808,10.449,25.6c6.792,6.792,16.196,10.449,25.6,10.449s18.808-3.657,25.6-10.449
	c6.269-6.269,16.196-6.269,21.943,0c6.269,6.269,6.269,16.196,0,21.943C102.922,219.167,85.682,225.959,67.918,225.959z"/>
<path style="fill:#1185E0;" d="M357.355,471.51c-20.376,0-40.751-7.314-56.424-22.465l-5.224-4.702
	c-24.555,3.135-49.633,2.612-74.188-2.09l-7.837,7.314c-14.629,14.106-33.959,21.42-54.857,21.42h-2.09
	c-21.943-0.522-41.796-9.404-56.424-24.555c-21.943-22.988-25.6-57.992-9.404-85.682c-18.286-26.645-27.69-56.424-27.69-87.771
	v-7.314c0-0.522,0-0.522,0-1.045c1.045-17.763,6.269-36.049,15.151-54.335l7.314-14.629c0-0.522,0.522-0.522,0.522-1.045
	c19.853-33.437,52.245-60.604,90.384-76.8l12.539,28.735c-31.869,13.584-59.037,36.049-75.755,63.739l-7.314,13.584
	c-6.792,14.106-10.971,28.735-12.016,41.796v6.792c0,27.167,9.404,53.812,26.645,76.278c3.657,4.18,5.747,11.494,2.09,18.808
	c-0.522,1.045-1.045,1.567-1.567,2.612c-13.061,16.718-12.016,39.184,1.567,53.812c8.882,9.404,20.898,14.629,33.959,15.151h1.567
	c12.539,0,24.555-4.702,32.914-13.061l13.061-12.539c2.09-2.09,6.269-4.702,12.539-4.702c1.045,0,2.612,0,3.657,0.522
	c25.078,5.747,51.2,6.792,76.278,2.612c1.045,0,1.567,0,2.612,0c6.269,0,10.449,2.612,12.539,5.224l9.404,8.882
	c18.286,16.718,47.02,18.286,65.829,2.612c14.629-12.016,18.808-31.869,10.971-49.11c-2.09-3.657-3.135-8.359-1.567-12.539
	c0.522-2.612,2.09-5.224,3.657-7.314c9.404-9.927,16.718-21.42,22.465-33.437c0.522-1.567,1.567-3.135,3.135-4.18
	c1.567-1.567,5.224-5.224,11.494-5.747l34.482-3.657v-79.412l-34.482-3.657c-6.269-0.522-9.927-4.18-11.494-5.747
	c-1.045-1.045-2.09-2.612-3.135-4.18c-9.927-19.853-24.555-37.094-43.886-52.245c-0.522-0.522-1.045-1.045-1.567-1.045
	c-2.09-2.09-5.224-6.269-5.224-12.539c0-0.522,0-1.045,0-1.567l2.612-24.033c0.522-4.702,1.567-13.061,2.09-18.808
	c-7.314,1.045-21.943,4.702-48.588,16.196l-12.539-28.735c30.824-13.061,52.767-19.331,66.873-18.808
	c13.061,0,23.51,8.882,25.078,21.42c0.522,4.702,0.522,11.494-2.09,32.392l-1.567,16.718c17.763,14.629,31.869,31.869,42.841,51.2
	l36.571,3.657c10.971,0.522,19.331,9.927,19.331,20.898v98.743c0,9.927-7.314,18.808-17.241,20.376c-0.522,0-1.045,0-1.567,0
	l-37.094,4.18c-5.225,9.404-10.971,18.286-17.763,26.645c9.927,28.212,1.045,59.559-22.465,79.412
	C393.404,465.241,375.118,471.51,357.355,471.51z"/>
<g>
	<ellipse style="fill:#4DCFE0;" cx="344.294" cy="237.975" rx="15.673" ry="15.673"/>
	<path style="fill:#4DCFE0;" d="M328.098,162.22h-2.612c8.359-13.584,12.539-28.735,12.539-44.931
		c0-47.543-38.661-86.204-86.204-86.204s-86.204,38.661-86.204,86.204c0,16.196,4.702,31.869,12.539,44.931h-2.612
		c-8.882,0-15.673,6.792-15.673,15.673s6.792,15.673,15.673,15.673h152.555c8.882,0,15.673-6.792,15.673-15.673
		S336.98,162.22,328.098,162.22z M196.963,117.29c0-30.302,24.555-54.857,54.857-54.857s54.857,24.555,54.857,54.857
		c0,17.763-8.359,33.959-23.51,44.931h-62.694C205.845,151.771,196.963,135.576,196.963,117.29z"/>
</g>
<g>
</g>
<g>
</g>
<g>
</g>
<g>
</g>
<g>
</g>
<g>
</g>
<g>
</g>
<g>
</g>
<g>
</g>
<g>
</g>
<g>
</g>
<g>
</g>
<g>
</g>
<g>
</g>
<g>
</g>
</svg>
