<svg height="512" viewBox="0 0 24 24" width="512" xmlns="http://www.w3.org/2000/svg"><g id="Layer_2" data-name="Layer 2"><path d="m17.22 19h-10.44a2 2 0 0 1 -1.94-1.51l-1.51-6a1.74 1.74 0 0 1 .46-1.67 1.77 1.77 0 0 1 1.67-.46l2.16.54 2.82-3.52a2.06 2.06 0 0 1 3.12 0l2.82 3.52 2.16-.54a1.77 1.77 0 0 1 1.67.46 1.74 1.74 0 0 1 .46 1.67l-1.51 6a2 2 0 0 1 -1.94 1.51zm-11.85-7.63 1.41 5.63h10.44l1.41-5.63-1.76.44a2 2 0 0 1 -2.05-.69l-2.82-3.52-2.82 3.52a2 2 0 0 1 -2 .69z"/><circle cx="2.75" cy="7.25" r="1.25"/><circle cx="21.25" cy="7.25" r="1.25"/><circle cx="12" cy="3" r="1.25"/><path d="m18 22h-12a1 1 0 0 1 0-2h12a1 1 0 0 1 0 2z"/></g></svg>