<?xml version="1.0" encoding="UTF-8"?>
<!-- Generator: Adobe Illustrator 24.3.0, SVG Export Plug-In . SVG Version: 6.00 Build 0)  -->
<svg xmlns="http://www.w3.org/2000/svg" xmlns:xlink="http://www.w3.org/1999/xlink" version="1.1" id="Capa_1" x="0px" y="0px" viewBox="0 0 512.019 512.019" style="enable-background:new 0 0 512.019 512.019;" xml:space="preserve" width="512" height="512">
<g>
	<g id="object_4_">
		<g>
			<path d="M387.572,127.935H364.66v-19.832C364.671,48.411,316.29,0.011,256.597,0S148.505,48.37,148.494,108.063     c0,0.013,0,0.027,0,0.04v19.832h-24.046c-33.387,0.038-60.443,27.095-60.479,60.482v203.536     c0.075,66.28,53.787,119.991,120.067,120.066h143.949c66.279-0.075,119.991-53.786,120.066-120.066V188.417     C448.014,155.03,420.959,127.973,387.572,127.935z M183.793,108.103c-0.019-40.198,32.552-72.8,72.749-72.819     c40.198-0.019,72.8,32.552,72.819,72.749c0,0.023,0,0.047,0,0.07v19.832H183.793V108.103z M412.751,391.954     c-0.053,46.793-37.973,84.714-84.767,84.767H184.036c-46.794-0.053-84.714-37.973-84.768-84.767V188.417     c0.017-13.9,11.28-25.165,25.18-25.183h263.128c13.9,0.016,25.164,11.28,25.179,25.18L412.751,391.954z"/>
		</g>
		<g>
			<path d="M347.011,192.465c-9.747,0-17.649,7.902-17.649,17.649v37.485c-0.005,40.198-32.597,72.78-72.794,72.774     c-40.19-0.005-72.769-32.584-72.774-72.774v-37.485c0-9.747-7.902-17.649-17.649-17.649s-17.649,7.902-17.649,17.649v37.485     c0.011,59.693,48.411,108.074,108.103,108.063c59.677-0.011,108.052-48.386,108.063-108.063v-37.485     C364.66,200.367,356.758,192.465,347.011,192.465z"/>
		</g>
	</g>
</g>















</svg>
