<svg xmlns="http://www.w3.org/2000/svg" version="1.1" xmlns:xlink="http://www.w3.org/1999/xlink" xmlns:svgjs="http://svgjs.com/svgjs" width="512" height="512" x="0" y="0" viewBox="0 0 24 24" style="enable-background:new 0 0 512 512" xml:space="preserve" class=""><g><g data-name="Layer 2"><path fill="#5e72e4" d="M15 21.49a1 1 0 0 1-.33-1.94 8.92 8.92 0 0 0 1-.44 1 1 0 0 1 .92 1.78 9.37 9.37 0 0 1-1.26.54 1 1 0 0 1-.33.06z" data-original="#232323" class=""></path><path fill="#5e72e4" d="M12 22a10 10 0 1 1 9-5.55 10.12 10.12 0 0 1-1.51 2.22A1 1 0 1 1 18 17.33 7.88 7.88 0 0 0 20 12a8 8 0 1 0-8 8 1 1 0 0 1 0 2z" data-original="#232323" class=""></path><g fill="#7fbde7"><path d="M14.16 17.5H9.84a2.5 2.5 0 0 1-2.24-3.61A5 5 0 0 1 12 11a5 5 0 0 1 4.4 2.89 2.5 2.5 0 0 1-2.24 3.61zM12 13a3 3 0 0 0-2.61 1.77.48.48 0 0 0 0 .49.47.47 0 0 0 .42.24h4.32a.47.47 0 0 0 .42-.24.48.48 0 0 0 0-.49A3 3 0 0 0 12 13z" fill="#5e72e4" data-original="#7fbde7" class=""></path><path d="M12 13a3.5 3.5 0 1 1 3.5-3.5A3.5 3.5 0 0 1 12 13zm0-5a1.5 1.5 0 1 0 1.5 1.5A1.5 1.5 0 0 0 12 8z" fill="#5e72e4" data-original="#7fbde7" class=""></path></g></g></g></svg>