<svg xmlns="http://www.w3.org/2000/svg" version="1.1" xmlns:xlink="http://www.w3.org/1999/xlink" xmlns:svgjs="http://svgjs.com/svgjs" width="512" height="512" x="0" y="0" viewBox="0 0 500 500" style="enable-background:new 0 0 512 512" xml:space="preserve" class=""><g><g fill="#2475ff"><path d="M448.813 275.644H241.966c-11.335 0-20.557 9.222-20.557 20.557V429.52c0 11.336 9.222 20.558 20.557 20.558h206.847c11.336 0 20.558-9.222 20.558-20.558V296.202c0-11.335-9.222-20.557-20.558-20.557zm5.558 153.875a5.563 5.563 0 0 1-5.558 5.558H241.966a5.563 5.563 0 0 1-5.557-5.558V296.202a5.563 5.563 0 0 1 5.557-5.556h206.847a5.563 5.563 0 0 1 5.558 5.556z" fill="#5e72e4" data-original="#2475ff"></path><path d="M297.377 361.805c15.69 0 28.454-12.765 28.454-28.454 0-15.69-12.765-28.455-28.454-28.455s-28.454 12.764-28.454 28.455c0 15.689 12.765 28.454 28.454 28.454zm0-41.91c7.418 0 13.454 6.037 13.454 13.456s-6.036 13.454-13.454 13.454-13.454-6.035-13.454-13.454 6.036-13.455 13.454-13.455zM297.028 366.361c-25.896 0-46.964 21.069-46.964 46.964a7.5 7.5 0 1 0 15 0c0-17.625 14.339-31.964 31.964-31.964 17.624 0 31.963 14.34 31.963 31.964a7.5 7.5 0 1 0 15 0c0-25.895-21.068-46.964-46.963-46.964zM364.26 352.158h25.843a7.5 7.5 0 1 0 0-15h-25.844a7.5 7.5 0 1 0 0 15zM430.614 366.494H364.26a7.5 7.5 0 1 0 0 15h66.355a7.5 7.5 0 1 0 0-15zM430.614 395.565H364.26a7.5 7.5 0 1 0 0 15h66.355a7.5 7.5 0 1 0 0-15z" fill="#5e72e4" data-original="#2475ff"></path></g><path d="m241.627 244.224 31.18 15.981a22.819 22.819 0 0 1 5.838 4.282 7.475 7.475 0 0 0 5.34 2.234c1.902 0 3.806-.72 5.267-2.162a7.5 7.5 0 0 0 .072-10.605 37.778 37.778 0 0 0-9.674-7.098l-29.575-15.159c9.098-16.259 9.587-29.402 9.543-32.756l.005-.06c7.923-67.32-22.755-110.073-49.94-134.103-23.078-20.4-57.428-19.868-79.902 1.232C106.038 88.304 78.4 129.466 81.563 198.95c.04.878.236 1.709.549 2.479 1.245 9.873 4.62 19.588 10.052 29.028l-31.997 16.4a37.834 37.834 0 0 0-19.418 24.39l-9.89 39.112a7.5 7.5 0 0 0 14.541 3.678l9.89-39.113a22.83 22.83 0 0 1 11.719-14.717l33.677-17.262c6.942 8.765 15.728 17.227 26.324 25.277 13.047 9.913 28.438 14.914 43.926 14.914 13.53 0 27.136-3.816 39.316-11.512 14.092-8.904 24.168-18.35 31.375-27.4zM140.049 76.946c16.795-15.77 42.46-16.169 59.698-.93 18.333 16.205 38.417 41.886 44.371 79.292a61.9 61.9 0 0 0-5.75-4.825c-31.286-23.2-86.486-21.794-119.687-7.187-7.636 3.36-14.193 7.376-19.576 11.93 6.8-38.368 24.86-63.177 40.944-78.28zm32.818 145.051c-35.318 0-47.634-52.202-49.985-64.133.601-.281 1.21-.561 1.839-.838 14.49-6.375 31.823-9.475 48.723-9.475 17.395 0 34.319 3.295 47.205 9.68-8.22 30.96-21.192 64.766-47.782 64.766zm-76.012-34.929c.515-4.948 2.989-13.028 12.477-20.853 1.737 7.392 4.947 18.668 10.33 30.042 7 14.797 15.789 25.714 26.018 32.505-.927 6.893-3.999 19.568-11.24 26.248-19.232-14.995-40.642-38.602-37.586-67.942zm50.647 76.002c4.603-5.292 8.164-12.272 10.621-20.843a81.435 81.435 0 0 0 1.664-6.983 48.936 48.936 0 0 0 13.08 1.753c3.114 0 6.133-.316 9.066-.915.36 1.773.815 3.719 1.39 5.763 2.478 8.82 6.127 15.976 10.869 21.371-15.082 6.597-31.924 6.494-46.69-.146zm60.054-7.663c-7.004-6.076-10.243-17.738-11.433-24.992 7.764-4.79 14.695-12.163 20.717-22.136 7.825-12.96 13.101-28.462 16.924-42.107 8.75 8.325 12.417 18.908 10.896 31.54a7.54 7.54 0 0 0-.05.709c-.002.105.003.209.005.313.002.106-.002.211.005.317.017.305 1.26 29.596-37.064 56.356zM344.32 236.031h56.347c9.562 0 18.125-4.944 22.906-13.224 2.39-4.141 3.586-8.684 3.586-13.226 0-4.542-1.195-9.084-3.585-13.225L395.4 147.558c-4.781-8.282-13.344-13.225-22.906-13.225s-18.125 4.943-22.906 13.225l-28.174 48.798c-2.39 4.141-3.586 8.683-3.586 13.225s1.196 9.084 3.586 13.225c4.78 8.28 13.344 13.225 22.906 13.225zm-9.916-32.175 28.174-48.798c2.07-3.585 5.776-5.725 9.916-5.725s7.846 2.14 9.916 5.725l28.173 48.798a11.425 11.425 0 0 1 1.553 5.725 11.43 11.43 0 0 1-1.553 5.726c-2.07 3.584-5.777 5.724-9.916 5.724H344.32c-4.14 0-7.846-2.14-9.916-5.725a11.422 11.422 0 0 1-1.552-5.725c0-1.966.518-3.933 1.552-5.725z" fill="#5e72e4" data-original="#000000" class=""></path><path d="M372.494 190.32a7.5 7.5 0 0 0 7.5-7.5v-13.318a7.5 7.5 0 1 0-15 0v13.318a7.5 7.5 0 0 0 7.5 7.5zM372.49 214.91c1.98 0 3.91-.8 5.31-2.2a7.579 7.579 0 0 0 2.05-6.77c-.1-.48-.24-.95-.43-1.4a7.65 7.65 0 0 0-.69-1.3 7.88 7.88 0 0 0-.93-1.14 7.585 7.585 0 0 0-5.31-2.19c-1.97 0-3.9.8-5.3 2.19-.35.35-.66.73-.93 1.14-.27.41-.5.84-.69 1.3-.19.45-.33.92-.43 1.4-.1.48-.15.98-.15 1.47 0 1.97.8 3.9 2.2 5.3 1.4 1.4 3.33 2.2 5.3 2.2z" fill="#5e72e4" data-original="#000000" class=""></path></g></svg>