<svg xmlns="http://www.w3.org/2000/svg" version="1.1" xmlns:xlink="http://www.w3.org/1999/xlink" xmlns:svgjs="http://svgjs.com/svgjs" width="512" height="512" x="0" y="0" viewBox="0 0 24 24" style="enable-background:new 0 0 512 512" xml:space="preserve" class=""><g><g data-name="Layer 2"><path fill="#5e72e4" d="M12 11a4 4 0 1 1 4-4 4 4 0 0 1-4 4zm0-6a2 2 0 1 0 2 2 2 2 0 0 0-2-2z" data-original="#232323"></path><path fill="#7fbde7" d="M18 21a4 4 0 1 1 4-4 4 4 0 0 1-4 4zm0-6a2 2 0 1 0 2 2 2 2 0 0 0-2-2z" data-original="#7fbde7"></path><g fill="#232323"><path d="M6 21a4 4 0 1 1 4-4 4 4 0 0 1-4 4zm0-6a2 2 0 1 0 2 2 2 2 0 0 0-2-2zM9.06 8.6a1 1 0 0 1-1-1 1 1 0 1 1 1 1z" fill="#5e72e4" data-original="#232323"></path><path d="M5 15.17a1 1 0 0 1-1-.86 5.59 5.59 0 0 1 0-.81 7.05 7.05 0 0 1 .62-2.89 7 7 0 0 1 1.16-1.82 1 1 0 0 1 1.5 1.34 4.74 4.74 0 0 0-.83 1.29A5 5 0 0 0 6 13.5a4.71 4.71 0 0 0 0 .5 1 1 0 0 1-.85 1.13z" fill="#5e72e4" data-original="#232323"></path></g><path fill="#7fbde7" d="M12 21a6.62 6.62 0 0 1-.93-.06 1 1 0 1 1 .3-2 3.81 3.81 0 0 0 1.26 0 6 6 0 0 0 2.6-.83 1 1 0 1 1 1 1.7A8 8 0 0 1 12.87 21a6.72 6.72 0 0 1-.87 0z" data-original="#7fbde7"></path><path fill="#5e72e4" d="M18.47 12a1 1 0 0 1-.92-.6 4.74 4.74 0 0 0-.83-1.29 5.67 5.67 0 0 0-2.17-1.6 1 1 0 0 1-.61-.92 1 1 0 0 1 1-1 1.06 1.06 0 0 1 .5.13 7.67 7.67 0 0 1 2.8 2.09 6.92 6.92 0 0 1 1.15 1.8 1 1 0 0 1-.52 1.32 1.14 1.14 0 0 1-.4.07z" data-original="#232323"></path></g></g></svg>