<svg id="svg8" height="512" viewBox="0 0 8.4666665 8.4666669" width="512" xmlns="http://www.w3.org/2000/svg" xmlns:svg="http://www.w3.org/2000/svg"><g id="layer2"><path id="path824" d="m4.2333334.26458337c-2.1887462 0-3.96875003 1.78000383-3.96875003 3.96875003 0 2.188746 1.78000383 3.9687499 3.96875003 3.9687499 2.188746 0 3.9687499-1.7800039 3.9687499-3.9687499 0-2.1887462-1.7800039-3.96875003-3.9687499-3.96875003zm0 .52916667c1.9027632 0 3.4416502 1.53681996 3.4416502 3.43958336 0 1.9027632-1.538887 3.4416502-3.4416502 3.4416502-1.9027634 0-3.43958336-1.538887-3.43958336-3.4416502 0-1.9027634 1.53681996-3.43958336 3.43958336-3.43958336zm-.0036169 1.32446696a.26460979.26460979 0 0 0 -.259933.2676839v.2227254c-.4272102.0801429-.7927162.3552394-.7927165.8319906 0 .3307291.1490956.5982189.3493328.753959s.4263305.2247926.624768.2909385c.1984375.066146.3697359.1293849.467155.2051552.097419.07577.1441772.1395265.1441772.337964 0 .4409723-1.0562663.4409723-1.0562663 0a.26464844.26464844 0 1 0 -.5291667 0c0 .4763793.3658309.7519969.7927165.8325075v.2216917a.26464844.26464844 0 1 0 .5291667 0v-.2216917c.426961-.080468.7932332-.3560628.7932332-.8325075 0-.3307292-.149612-.598219-.3498495-.7539591-.2002372-.1557401-.4263305-.2253093-.624768-.2914552-.1984375-.0661458-.3697359-.1288682-.467155-.2046385-.097419-.0757706-.1441772-.1395264-.1441772-.3379639.0000002-.4409718 1.0562663-.4409718 1.0562663 0a.2648417.2648417 0 1 0 .5296834 0c0-.4760347-.366396-.7508571-.7932332-.8314738v-.2232422a.26460979.26460979 0 0 0 -.2692342-.2676839z" font-variant-ligatures="normal" font-variant-position="normal" font-variant-caps="normal" font-variant-numeric="normal" font-variant-alternates="normal" font-feature-settings="normal" text-indent="0" text-align="start" text-decoration-line="none" text-decoration-style="solid" text-decoration-color="rgb(0,0,0)" text-transform="none" text-orientation="mixed" white-space="normal" shape-padding="0" isolation="auto" mix-blend-mode="normal" solid-color="rgb(0,0,0)" solid-opacity="1" vector-effect="none"/></g></svg>