<svg xmlns="http://www.w3.org/2000/svg" version="1.1" xmlns:xlink="http://www.w3.org/1999/xlink" xmlns:svgjs="http://svgjs.com/svgjs" width="512" height="512" x="0" y="0" viewBox="0 0 32 32" style="enable-background:new 0 0 512 512" xml:space="preserve" class=""><g><path d="M28 16a4 4 0 0 1 .59-1.38 3.76 3.76 0 0 0 .73-2.95 3.81 3.81 0 0 0-2.38-2A4.18 4.18 0 0 1 25.71 9a4 4 0 0 1-.31-1.42 3.79 3.79 0 0 0-1.17-2.86 3.75 3.75 0 0 0-3.06-.22 3.78 3.78 0 0 1-1.46.13 3.63 3.63 0 0 1-1-.93A3.85 3.85 0 0 0 16 2a3.85 3.85 0 0 0-2.67 1.65 3.63 3.63 0 0 1-1 .93 3.78 3.78 0 0 1-1.46-.13 3.75 3.75 0 0 0-3.06.22A3.79 3.79 0 0 0 6.6 7.53 4 4 0 0 1 6.29 9a4.18 4.18 0 0 1-1.23.72 3.81 3.81 0 0 0-2.38 2 3.76 3.76 0 0 0 .73 2.95A4 4 0 0 1 4 16a4 4 0 0 1-.59 1.38 3.76 3.76 0 0 0-.73 2.95 3.81 3.81 0 0 0 2.38 2 4.18 4.18 0 0 1 1.23.72 4 4 0 0 1 .31 1.42 3.79 3.79 0 0 0 1.17 2.86 3.75 3.75 0 0 0 3.06.22 3.78 3.78 0 0 1 1.46-.13 3.63 3.63 0 0 1 1 .93A3.85 3.85 0 0 0 16 30a3.85 3.85 0 0 0 2.67-1.65 3.63 3.63 0 0 1 1-.93 3.78 3.78 0 0 1 1.46.13 3.75 3.75 0 0 0 3.06-.22 3.79 3.79 0 0 0 1.17-2.86 4 4 0 0 1 .31-1.42 4.18 4.18 0 0 1 1.23-.72 3.81 3.81 0 0 0 2.38-2 3.76 3.76 0 0 0-.73-2.95A4 4 0 0 1 28 16Zm-1.15 2.36c.22.4.64 1.13.57 1.35s-.82.58-1.3.8a4.88 4.88 0 0 0-2 1.37 4.77 4.77 0 0 0-.68 2.36c-.06.5-.15 1.32-.36 1.47s-1 0-1.48-.12a5 5 0 0 0-2.48-.08A4.78 4.78 0 0 0 17.19 27c-.36.4-.91 1-1.19 1s-.83-.6-1.19-1a4.78 4.78 0 0 0-1.9-1.49 3.11 3.11 0 0 0-.9-.13 8.45 8.45 0 0 0-1.58.21c-.48.1-1.29.26-1.48.12s-.3-1-.36-1.47a4.77 4.77 0 0 0-.68-2.36 4.88 4.88 0 0 0-2-1.37c-.48-.22-1.21-.55-1.3-.8s.35-.95.57-1.35A5 5 0 0 0 6 16a5 5 0 0 0-.85-2.36c-.22-.4-.64-1.13-.57-1.35s.82-.58 1.3-.8a4.88 4.88 0 0 0 2-1.37 4.77 4.77 0 0 0 .68-2.36c.06-.5.15-1.32.36-1.47s1 0 1.48.12a5 5 0 0 0 2.48.08A4.78 4.78 0 0 0 14.81 5c.36-.4.91-1 1.19-1s.83.6 1.19 1a4.78 4.78 0 0 0 1.9 1.49 5 5 0 0 0 2.48-.08 3.36 3.36 0 0 1 1.48-.12c.21.15.3 1 .36 1.47a4.77 4.77 0 0 0 .68 2.36 4.88 4.88 0 0 0 2 1.37c.48.22 1.21.55 1.3.8s-.35 1-.57 1.35A5 5 0 0 0 26 16a5 5 0 0 0 .85 2.36Z" fill="#5e72e4" data-original="#000000"></path><path d="m19.79 12.29-5.29 5.3-1.79-1.8a1 1 0 0 0-1.42 1.42l2.5 2.5a1 1 0 0 0 1.42 0l6-6a1 1 0 0 0-1.42-1.42Z" fill="#5e72e4" data-original="#000000"></path></g></svg>