<svg xmlns="http://www.w3.org/2000/svg" version="1.1" xmlns:xlink="http://www.w3.org/1999/xlink" xmlns:svgjs="http://svgjs.com/svgjs" width="512" height="512" x="0" y="0" viewBox="0 0 24 24" style="enable-background:new 0 0 512 512" xml:space="preserve" class=""><g><g fill="#3c36b5"><path d="M10.28 22H5c-.8 0-1.55-.31-2.12-.88S2 19.8 2 19v-3.22c0-.8.31-1.55.88-2.12s1.32-.88 2.12-.88h5.28c.79 0 1.56.32 2.12.88s.88 1.32.88 2.12V19c0 .8-.31 1.55-.88 2.12s-1.33.88-2.12.88zM5 14.78c-.26 0-.52.11-.71.29s-.29.44-.29.71V19c0 .26.11.52.29.71s.44.29.71.29h5.28c.26 0 .52-.11.71-.29s.29-.44.29-.71v-3.22c0-.26-.11-.52-.29-.71s-.44-.29-.71-.29zM19 11.22h-5.28c-.79 0-1.56-.32-2.12-.88s-.88-1.32-.88-2.12V5c0-.8.31-1.55.88-2.12S12.93 2 13.72 2H19c.8 0 1.55.31 2.12.88S22 4.2 22 5v3.22c0 .8-.31 1.55-.88 2.12s-1.32.88-2.12.88zM13.72 4c-.26 0-.52.11-.71.29s-.29.44-.29.71v3.22c0 .26.11.52.29.71s.44.29.71.29H19a.99.99 0 0 0 1-1V5c0-.26-.11-.52-.29-.71A.99.99 0 0 0 19 4h-5.28z" fill="#5e72e4" data-original="#3c36b5"></path><path d="M12.28 17.46H3c-.55 0-1-.45-1-1s.45-1 1-1h9.28c.55 0 1 .45 1 1s-.45 1-1 1zM21 6.68h-9.28c-.55 0-1-.45-1-1s.45-1 1-1H21c.55 0 1 .45 1 1s-.45 1-1 1z" fill="#5e72e4" data-original="#3c36b5"></path></g><path fill="#5e72e4" d="M4.79 12h-.14a1 1 0 0 1-.85-1.13A8.02 8.02 0 0 1 8.06 4.9a1 1 0 0 1 1.35.43c.25.49.06 1.09-.43 1.35a6.014 6.014 0 0 0-3.2 4.48 1 1 0 0 1-.99.86z" data-original="#ff38ac" class=""></path><path fill="#5e72e4" d="M8.51 6.77c-.06 0-.11 0-.17-.01l-2.31-.39c-.54-.09-.91-.61-.82-1.15s.61-.9 1.15-.82l2.31.39c.54.09.91.61.82 1.15-.08.49-.51.83-.99.83zM15.48 19.23c-.36 0-.71-.2-.89-.54-.25-.49-.06-1.09.43-1.35a6.014 6.014 0 0 0 3.2-4.48c.08-.55.59-.92 1.13-.85a1 1 0 0 1 .85 1.13 8.02 8.02 0 0 1-4.26 5.97c-.15.08-.3.11-.46.11z" data-original="#ff38ac" class=""></path><path fill="#5e72e4" d="M17.79 19.62c-.06 0-.11 0-.17-.01l-2.31-.39c-.54-.09-.91-.61-.82-1.15s.61-.9 1.15-.82l2.31.39c.54.09.91.61.82 1.15-.08.49-.51.83-.99.83z" data-original="#ff38ac" class=""></path></g></svg>